SplineFontDB: 3.0
FontName: Lobster1.3
FullName: Lobster 1.3
FamilyName: Lobster 1.3
Weight: Regular
Copyright: Copyright (c) 2010 by Pablo Impallari. All rights reserved.
Version: 001.001
ItalicAngle: 0
UnderlinePosition: -100
UnderlineWidth: 50
Ascent: 750
Descent: 250
InvalidEm: 0
sfntRevision: 0x000100c5
LayerCount: 3
Layer: 0 0 "Back" 1
Layer: 1 0 "Fore" 0
Layer: 2 0 "Back 2" 1
XUID: [1021 647 -312734098 10181]
StyleMap: 0x0040
FSType: 0
OS2Version: 2
OS2_WeightWidthSlopeOnly: 0
OS2_UseTypoMetrics: 0
CreationTime: 1274149223
ModificationTime: 1564717335
PfmFamily: 17
TTFWeight: 400
TTFWidth: 5
LineGap: 9
VLineGap: 0
Panose: 2 0 5 6 0 0 0 2 0 3
OS2TypoAscent: 750
OS2TypoAOffset: 0
OS2TypoDescent: -250
OS2TypoDOffset: 0
OS2TypoLinegap: 0
OS2WinAscent: 1000
OS2WinAOffset: 0
OS2WinDescent: 250
OS2WinDOffset: 0
HheadAscent: 750
HheadAOffset: 0
HheadDescent: -250
HheadDOffset: 0
OS2SubXSize: 700
OS2SubYSize: 650
OS2SubXOff: 0
OS2SubYOff: 140
OS2SupXSize: 700
OS2SupYSize: 650
OS2SupXOff: 0
OS2SupYOff: 477
OS2StrikeYSize: 50
OS2StrikeYPos: 250
OS2CapHeight: 750
OS2XHeight: 500
OS2FamilyClass: 2562
OS2Vendor: 'PfEd'
OS2CodePages: 00000001.00000000
OS2UnicodeRanges: 8000002f.4000004a.00000000.00000000
Lookup: 1 0 0 "'aalt' Access All Alternates in Latin lookup 0" { "'aalt' Access All Alternates in Latin lookup 0 subtable"  } ['aalt' ('latn' <'dflt' > ) ]
Lookup: 3 0 0 "'aalt' Access All Alternates in Latin lookup 1" { "'aalt' Access All Alternates in Latin lookup 1 subtable"  } ['aalt' ('latn' <'dflt' > ) ]
Lookup: 4 0 1 "'liga' Standard Ligatures in Latin lookup 2" { "'liga' Standard Ligatures in Latin lookup 2 subtable"  } ['liga' ('latn' <'dflt' > ) ]
Lookup: 6 0 0 "'liga' Standard Ligatures in Latin lookup 3" { "'liga' Standard Ligatures in Latin lookup 3 subtable"  } ['liga' ('latn' <'dflt' > ) ]
Lookup: 4 0 1 "'liga' Standard Ligatures in Latin lookup 4" { "'liga' Standard Ligatures in Latin lookup 4 subtable"  } ['liga' ('latn' <'dflt' > ) ]

StartChar: A
Encoding: 65 65 1
Width: 668
Flags: MW
HStem: -113 21G -20 20G<391 535 391 391> 277 178<51.5 212.5> 399 56 731 20G<553 624>
VStem: 9 118<317.5 323 305.5 370.5> 84 120<-54 -5 -82.5 41.5>
LayerCount: 3
Fore
SplineSet
535 0 m 1xea
 391 0 l 1
 468 363 l 1
 417 385 376 396 333 399 c 1
 258 237 204 47 204 -57 c 0
 204 -108 217 -104 218 -113 c 1
 149 -109 84 -107 84 -1 c 0
 84 84 143 247 231 399 c 1xda
 171 395 128 383 114 347 c 1
 119 347 127 330 127 316 c 0
 127 295 109 277 66 277 c 0
 37 277 9 295 9 340 c 0xec
 9 401 101 455 204 455 c 0
 221 455 241 454 263 452 c 1
 364 614 494 751 612 751 c 0
 636 751 668 746 692 736 c 1
 535 0 l 1xea
477 407 m 1
 535 679 l 1
 474 646 409 553 353 441 c 1
 395 433 438 422 477 407 c 1
EndSplineSet
Substitution2: "'calt' Contextual Alternates in Latin lookup 7 subtable" A.calt
Substitution2: "'salt' Stylistic Alternatives in Latin lookup 6 subtable" A.salt
AlternateSubs2: "'aalt' Access All Alternates in Latin lookup 1 subtable" A.salt A.calt
EndChar

StartChar: A.calt
Encoding: 1114113 -1 2
Width: 736
Flags: MW
HStem: -113 21G -20 20G<455 599 455 455> 299 45<127.5 264 224 242> 450 31<182 211 160 234.5> 731 20G<617.5 688>
VStem: 11 85<386 416 386 431> 148 120<-54 -15 -82.5 32.5>
LayerCount: 3
Fore
SplineSet
723 372 m 1
 716 336 l 1
 669 331 l 1
 599 0 l 1
 455 0 l 1
 522 317 l 1
 464 311 406 307 349 304 c 1
 299 168 268 27 268 -57 c 0
 268 -108 281 -104 282 -113 c 1
 213 -109 148 -107 148 -1 c 0
 148 66 184 180 242 299 c 1
 191 299 l 2
 64 299 11 348 11 391 c 0
 11 471 136 481 184 481 c 0
 238 481 285 472 330 457 c 1
 431 616 559 751 676 751 c 0
 700 751 732 746 756 736 c 1
 677 366 l 1
 692 368 707 370 723 372 c 1
401 428 m 1
 439 409 478 388 520 364 c 2
 530 358 l 1
 599 682 l 1
 528 651 458 549 401 428 c 1
315 434 m 1
 281 444 248 450 221 450 c 0
 143 450 96 432 96 400 c 0
 96 372 137 344 224 344 c 2
 264 344 l 1
 280 374 297 404 315 434 c 1
391 407 m 1
 365 345 l 1
 413 346 460 348 509 351 c 1
 470 372 430 391 391 407 c 1
EndSplineSet
EndChar

StartChar: A.salt
Encoding: 1114114 -1 3
Width: 590
Flags: MW
HStem: -113 21G -20 20G<315 459 315 315> 366 52<256 392 234 403> 731 20G<417 548>
VStem: 8 120<-54 -8.5 -82.5 93.5>
LayerCount: 3
Fore
SplineSet
459 0 m 1
 315 0 l 1
 392 366 l 1
 234 366 l 1
 170 212 128 40 128 -57 c 0
 128 -108 141 -104 142 -113 c 1
 73 -109 8 -107 8 -1 c 0
 8 188 298 751 536 751 c 0
 560 751 592 746 616 736 c 1
 459 0 l 1
256 418 m 1
 403 418 l 1
 459 682 l 1
 386 650 314 544 256 418 c 1
EndSplineSet
Substitution2: "'calt' Contextual Alternates in Latin lookup 7 subtable" A.calt
Substitution2: "'aalt' Access All Alternates in Latin lookup 0 subtable" A.calt
EndChar

StartChar: Aacute
Encoding: 193 193 4
Width: 668
Flags: MW
HStem: -113 21G -20 20G<391 535 391 391> 277 178<51.5 212.5> 399 56 980 20G<597 702 702 702>
VStem: 9 118<317.5 323 305.5 370.5> 84 120<-54 -5 -82.5 41.5>
LayerCount: 3
Fore
SplineSet
535 0 m 1xea
 391 0 l 1
 468 363 l 1
 417 385 376 396 333 399 c 1
 258 237 204 47 204 -57 c 0
 204 -108 217 -104 218 -113 c 1
 149 -109 84 -107 84 -1 c 0
 84 84 143 247 231 399 c 1xda
 171 395 128 383 114 347 c 1
 119 347 127 330 127 316 c 0
 127 295 109 277 66 277 c 0
 37 277 9 295 9 340 c 0xec
 9 401 101 455 204 455 c 0
 221 455 241 454 263 452 c 1
 364 614 494 751 612 751 c 0
 636 751 668 746 692 736 c 1
 535 0 l 1xea
477 407 m 1
 535 679 l 1
 474 646 409 553 353 441 c 1
 395 433 438 422 477 407 c 1
506 811 m 1
 597 1000 l 1
 702 1000 l 1
 581 811 l 1
 506 811 l 1
EndSplineSet
EndChar

StartChar: Acircumflex
Encoding: 194 194 5
Width: 668
Flags: MW
HStem: -113 21G -20 20G<391 535 391 391> 277 178<51.5 212.5> 399 56 751 60 980 20G<629 650 650 650>
VStem: 9 118<317.5 323 305.5 370.5> 84 120<-54 -5 -82.5 41.5>
LayerCount: 3
Fore
SplineSet
535 0 m 1xed
 391 0 l 1
 468 363 l 1
 417 385 376 396 333 399 c 1
 258 237 204 47 204 -57 c 0
 204 -108 217 -104 218 -113 c 1
 149 -109 84 -107 84 -1 c 0
 84 84 143 247 231 399 c 1xdd
 171 395 128 383 114 347 c 1
 119 347 127 330 127 316 c 0
 127 295 109 277 66 277 c 0
 37 277 9 295 9 340 c 0xee
 9 401 101 455 204 455 c 0
 221 455 241 454 263 452 c 1
 364 614 494 751 612 751 c 0
 636 751 668 746 692 736 c 1
 535 0 l 1xed
477 407 m 1
 535 679 l 1
 474 646 409 553 353 441 c 1
 395 433 438 422 477 407 c 1
710 811 m 1
 678 811 l 1
 618 891 l 1
 461 811 l 1
 417 811 l 1
 629 1000 l 1
 650 1000 l 1
 710 811 l 1
EndSplineSet
EndChar

StartChar: Adieresis
Encoding: 196 196 6
Width: 668
Flags: MW
HStem: -113 21G -20 20G<391 535 391 391> 277 178<51.5 212.5> 399 56 823 122<474 507.5 654 687.5>
VStem: 9 118<317.5 323 305.5 370.5> 84 120<-54 -5 -82.5 41.5> 430 122<867 900.5> 610 122<867 900.5>
LayerCount: 3
Fore
SplineSet
535 0 m 1xeb80
 391 0 l 1
 468 363 l 1
 417 385 376 396 333 399 c 1
 258 237 204 47 204 -57 c 0
 204 -108 217 -104 218 -113 c 1
 149 -109 84 -107 84 -1 c 0
 84 84 143 247 231 399 c 1xdb80
 171 395 128 383 114 347 c 1
 119 347 127 330 127 316 c 0
 127 295 109 277 66 277 c 0
 37 277 9 295 9 340 c 0xed80
 9 401 101 455 204 455 c 0
 221 455 241 454 263 452 c 1
 364 614 494 751 612 751 c 0
 636 751 668 746 692 736 c 1
 535 0 l 1xeb80
477 407 m 1
 535 679 l 1
 474 646 409 553 353 441 c 1
 395 433 438 422 477 407 c 1
610 884 m 0
 610 917 637 945 671 945 c 0
 704 945 732 917 732 884 c 0
 732 850 704 823 671 823 c 0
 637 823 610 850 610 884 c 0
430 884 m 0
 430 917 457 945 491 945 c 0
 524 945 552 917 552 884 c 0
 552 850 524 823 491 823 c 0
 457 823 430 850 430 884 c 0
EndSplineSet
EndChar

StartChar: Agrave
Encoding: 192 192 7
Width: 668
Flags: MW
HStem: -113 21G -20 20G<391 535 391 391> 277 178<51.5 212.5> 399 56 811 189<546 546 546 592 487 621>
VStem: 9 118<317.5 323 305.5 370.5> 84 120<-54 -5 -82.5 41.5>
LayerCount: 3
Fore
SplineSet
535 0 m 1xea
 391 0 l 1
 468 363 l 1
 417 385 376 396 333 399 c 1
 258 237 204 47 204 -57 c 0
 204 -108 217 -104 218 -113 c 1
 149 -109 84 -107 84 -1 c 0
 84 84 143 247 231 399 c 1xda
 171 395 128 383 114 347 c 1
 119 347 127 330 127 316 c 0
 127 295 109 277 66 277 c 0
 37 277 9 295 9 340 c 0xec
 9 401 101 455 204 455 c 0
 221 455 241 454 263 452 c 1
 364 614 494 751 612 751 c 0
 636 751 668 746 692 736 c 1
 535 0 l 1xea
477 407 m 1
 535 679 l 1
 474 646 409 553 353 441 c 1
 395 433 438 422 477 407 c 1
546 811 m 1
 487 1000 l 1
 592 1000 l 1
 621 811 l 1
 546 811 l 1
EndSplineSet
EndChar

StartChar: Aring
Encoding: 197 197 8
Width: 668
Flags: MW
HStem: -113 21G -20 20G<391 535 391 391> 277 178<51.5 212.5> 399 56 802 35<598 625.5 598 637> 930 33<605.5 639>
VStem: 9 118<317.5 323 305.5 370.5> 84 120<-54 -5 -82.5 41.5> 536 40<863 886.5 863 890> 656 37<869 892.5>
LayerCount: 3
Fore
SplineSet
535 0 m 1xedc0
 391 0 l 1
 468 363 l 1
 417 385 376 396 333 399 c 1
 258 237 204 47 204 -57 c 0
 204 -108 217 -104 218 -113 c 1
 149 -109 84 -107 84 -1 c 0
 84 84 143 247 231 399 c 1xddc0
 171 395 128 383 114 347 c 1
 119 347 127 330 127 316 c 0
 127 295 109 277 66 277 c 0
 37 277 9 295 9 340 c 0xeec0
 9 401 101 455 204 455 c 0
 221 455 241 454 263 452 c 1
 364 614 494 751 612 751 c 0
 636 751 668 746 692 736 c 1
 535 0 l 1xedc0
477 407 m 1
 535 679 l 1
 474 646 409 553 353 441 c 1
 395 433 438 422 477 407 c 1
621 963 m 0
 670 963 693 929 693 886 c 0
 693 842 668 802 606 802 c 0
 563 802 536 834 536 872 c 0
 536 908 561 963 621 963 c 0
656 883 m 0
 656 902 655 930 623 930 c 0
 588 930 576 899 576 874 c 0
 576 852 586 837 610 837 c 0
 641 837 656 855 656 883 c 0
EndSplineSet
EndChar

StartChar: Atilde
Encoding: 195 195 9
Width: 668
Flags: MW
HStem: -113 21G -20 20G<391 535 391 391> 277 178<51.5 212.5> 399 56 819 78<587 724.5> 856 74<439 583.5>
VStem: 9 118<317.5 323 305.5 370.5> 84 120<-54 -5 -82.5 41.5>
LayerCount: 3
Fore
SplineSet
535 0 m 1xe9
 391 0 l 1
 468 363 l 1
 417 385 376 396 333 399 c 1
 258 237 204 47 204 -57 c 0
 204 -108 217 -104 218 -113 c 1
 149 -109 84 -107 84 -1 c 0
 84 84 143 247 231 399 c 1xd9
 171 395 128 383 114 347 c 1
 119 347 127 330 127 316 c 0
 127 295 109 277 66 277 c 0
 37 277 9 295 9 340 c 0xea
 9 401 101 455 204 455 c 0
 221 455 241 454 263 452 c 1
 364 614 494 751 612 751 c 0
 636 751 668 746 692 736 c 1
 535 0 l 1xe9
775 920 m 1
 781 919 l 1
 770 872 696 819 620 819 c 0xea
 554 819 507 856 452 856 c 0
 426 856 404 847 386 830 c 1
 380 832 l 1
 412 896 471 930 547 930 c 0xe6
 620 930 654 897 712 897 c 0
 737 897 761 905 775 920 c 1
477 407 m 1
 535 679 l 1
 474 646 409 553 353 441 c 1
 395 433 438 422 477 407 c 1
EndSplineSet
EndChar

StartChar: B
Encoding: 66 66 10
Width: 635
Flags: MW
HStem: -20 20G<94 238 94 94> -17 96<370 389.5 355 455> 386 48<363.5 378.5 330 403> 704 46<288 408>
VStem: 6 93<454 537 435.5 556.5> 461 138<220.5 295.5> 479 105<561 627> 479 120
LayerCount: 3
Fore
SplineSet
230 636 m 1xbc
 378 656 l 1
 330 434 l 1
 337 434 l 2
 420 434 479 523 479 599 c 0
 479 655 447 704 369 704 c 0
 207 704 99 613 99 461 c 0
 99 410 112 402 113 393 c 1
 44 393 6 418 6 490 c 0
 6 623 190 750 357 750 c 0
 514 750 584 672 584 590 c 0x7a
 584 531 548 469 484 432 c 1
 566 416 599 347 599 269 c 0
 599 140 510 -17 400 -17 c 0
 340 -17 282 -11 282 52 c 0
 282 69 286 90 295 115 c 1
 314 84 348 79 362 79 c 0x79
 417 79 461 178 461 263 c 0
 461 328 436 386 370 386 c 0
 357 386 338 385 320 383 c 1
 238 0 l 1
 94 0 l 1
 230 636 l 1xbc
EndSplineSet
Substitution2: "'salt' Stylistic Alternatives in Latin lookup 6 subtable" B.salt
Substitution2: "'aalt' Access All Alternates in Latin lookup 0 subtable" B.salt
EndChar

StartChar: B.salt
Encoding: 1114115 -1 11
Width: 640
Flags: MW
HStem: -28 92<342.5 354.5 308.5 424.5> -20 20G<94 238 94 94> 393 41 704 46<288 408>
VStem: 6 93<454 537 435.5 556.5> 449 148<232 308.5> 479 105<561 627> 479 118
LayerCount: 3
Fore
SplineSet
230 636 m 1x7c
 378 656 l 1
 330 434 l 1
 337 434 l 2
 420 434 479 523 479 599 c 0
 479 655 447 704 369 704 c 0
 207 704 99 613 99 461 c 0
 99 410 112 402 113 393 c 1
 44 393 6 418 6 490 c 0
 6 623 190 750 357 750 c 0
 514 750 584 672 584 590 c 0xba
 584 531 548 469 484 432 c 1
 565 417 597 356 597 282 c 0
 597 147 487 -28 362 -28 c 0xb9
 323 -28 283 -11 244 30 c 1
 238 0 l 1
 94 0 l 1
 230 636 l 1x7c
370 386 m 0
 357 386 338 385 320 383 c 1
 258 93 l 1
 279 73 299 64 318 64 c 0
 391 64 449 185 449 279 c 0xbc
 449 338 426 386 370 386 c 0
EndSplineSet
EndChar

StartChar: C
Encoding: 67 67 12
Width: 497
Flags: MW
HStem: -6 90<259 290> 524 226<228 490.5> 703 47<321.5 407.5 228 415>
VStem: 24 157<205.5 358> 452 83<619.5 640>
LayerCount: 3
Fore
SplineSet
500 180 m 1xb8
 523 170 l 1
 470 24 337 -6 243 -6 c 0
 141 -6 24 44 24 249 c 0
 24 467 95 750 361 750 c 0
 454 750 535 713 535 616 c 0
 535 563 516 524 465 524 c 0xd8
 449 524 427 528 408 550 c 1
 433 557 452 607 452 632 c 0
 452 648 447 703 383 703 c 0
 260 703 181 449 181 271 c 0
 181 140 205 84 313 84 c 0
 390 84 463 116 500 180 c 1xb8
EndSplineSet
EndChar

StartChar: Ccedilla
Encoding: 199 199 13
Width: 497
Flags: MW
HStem: -218 33<235 257.5 235 271> -218 60<165.5 271> -107 49<227 321> -5 89<228 351.5 271 271> 524 226<228 490.5> 703 47<321.5 407.5 228 415>
VStem: 24 157<205.5 358> 279 83<-144 -134> 452 83<619.5 640>
LayerCount: 3
Fore
SplineSet
362 -108 m 0xb780
 362 -180 300 -218 242 -218 c 0
 191 -218 164 -205 135 -190 c 1
 144 -174 156 -158 175 -158 c 0x7b80
 216 -158 221 -185 249 -185 c 0
 266 -185 279 -164 279 -143 c 0
 279 -125 268 -107 240 -107 c 0
 214 -107 199 -114 188 -119 c 1
 228 -5 l 1
 130 -1 24 53 24 249 c 0
 24 467 95 750 361 750 c 0
 454 750 535 713 535 616 c 0
 535 563 516 524 465 524 c 0xbb80
 449 524 427 528 408 550 c 1
 433 557 452 607 452 632 c 0
 452 648 447 703 383 703 c 0
 260 703 181 449 181 271 c 0
 181 140 205 84 313 84 c 0
 390 84 463 116 500 180 c 1
 523 170 l 1
 475 38 362 1 271 -5 c 1
 247 -66 l 1
 267 -61 285 -58 300 -58 c 0
 342 -58 362 -77 362 -108 c 0xb780
EndSplineSet
EndChar

StartChar: D
Encoding: 68 68 14
Width: 663
Flags: MW
HStem: -20 20G<94 238 94 94> -13 88<349 374.5 305.5 442> 704 46<288 426.5>
VStem: 6 93<454 537 435.5 556.5> 507 138<412 550.5 351 570.5>
LayerCount: 3
Fore
SplineSet
230 636 m 1xb8
 378 656 l 1
 258 95 l 1
 277 81 296 75 315 75 c 0
 434 75 507 316 507 508 c 0
 507 633 484 704 369 704 c 0
 207 704 99 613 99 461 c 0
 99 410 112 402 113 393 c 1
 44 393 6 418 6 490 c 0
 6 623 190 750 357 750 c 0
 588 750 645 621 645 480 c 0
 645 222 516 -13 368 -13 c 0x78
 330 -13 289 3 246 40 c 1
 238 0 l 1
 94 0 l 1
 230 636 l 1xb8
EndSplineSet
EndChar

StartChar: E
Encoding: 69 69 15
Width: 459
Flags: MW
HStem: -6 90<149 341.5> 524 226<244 454.5> 706 44<313.5 361.5 244 382>
VStem: 11 175<180.5 244> 93 135<554 614.5> 416 83<619.5 640>
LayerCount: 3
Fore
SplineSet
461 180 m 1xd4
 484 170 l 1
 431 24 312 -6 218 -6 c 0
 80 -6 11 93 11 196 c 0xd4
 11 292 71 392 192 417 c 1
 124 454 93 512 93 569 c 0
 93 660 173 750 315 750 c 0
 408 750 499 713 499 616 c 0
 499 563 480 524 429 524 c 0xcc
 413 524 391 528 372 550 c 1
 397 557 416 607 416 632 c 0
 416 648 414 706 350 706 c 0
 277 706 228 650 228 583 c 0xac
 228 525 266 460 360 418 c 1
 233 366 186 286 186 217 c 0
 186 144 239 84 303 84 c 0
 380 84 424 116 461 180 c 1xd4
EndSplineSet
Substitution2: "'salt' Stylistic Alternatives in Latin lookup 6 subtable" E.salt
Substitution2: "'aalt' Access All Alternates in Latin lookup 0 subtable" E.salt
EndChar

StartChar: E.salt
Encoding: 1114116 -1 16
Width: 554
Flags: MW
HStem: 0 106<255 457> 345 74<322 456 306 476> 630 108<488 511> 668 82<232 232>
VStem: 9 93<454 540.5 435.5 556.5>
LayerCount: 3
Fore
SplineSet
322 419 m 1xe8
 476 419 l 1
 456 345 l 1
 306 345 l 1
 255 106 l 1
 478 106 l 1
 457 0 l 1
 88 0 l 1
 232 668 l 1
 155 664 102 620 102 461 c 0
 102 410 115 402 116 393 c 1
 47 393 9 418 9 490 c 0
 9 623 103 750 350 750 c 0xd8
 390 750 453 738 516 738 c 0xe8
 547 738 578 741 606 750 c 1xd8
 592 708 589 647 511 630 c 1
 465 630 418 639 371 649 c 1
 322 419 l 1xe8
EndSplineSet
EndChar

StartChar: Eacute
Encoding: 201 201 17
Width: 459
Flags: MW
HStem: -6 90<149 341.5> 524 226<244 454.5> 706 44<313.5 361.5 244 382> 980 20G<382 487 487 487>
VStem: 11 175<180.5 244> 93 135<554 614.5> 416 83<619.5 640>
LayerCount: 3
Fore
SplineSet
461 180 m 1xda
 484 170 l 1
 431 24 312 -6 218 -6 c 0
 80 -6 11 93 11 196 c 0xda
 11 292 71 392 192 417 c 1
 124 454 93 512 93 569 c 0
 93 660 173 750 315 750 c 0
 408 750 499 713 499 616 c 0
 499 563 480 524 429 524 c 0xd6
 413 524 391 528 372 550 c 1
 397 557 416 607 416 632 c 0
 416 648 414 706 350 706 c 0
 277 706 228 650 228 583 c 0xb6
 228 525 266 460 360 418 c 1
 233 366 186 286 186 217 c 0
 186 144 239 84 303 84 c 0
 380 84 424 116 461 180 c 1xda
291 811 m 1
 382 1000 l 1
 487 1000 l 1
 366 811 l 1
 291 811 l 1
EndSplineSet
EndChar

StartChar: Ecircumflex
Encoding: 202 202 18
Width: 459
Flags: MW
HStem: -6 90<149 341.5> 524 226<244 454.5> 706 44<313.5 361.5 244 382> 750 61<244 247 203 361.5> 980 20G<415 436 436 436>
VStem: 11 175<180.5 244> 93 135<554 614.5> 416 83<619.5 640>
LayerCount: 3
Fore
SplineSet
461 180 m 1xcd
 484 170 l 1
 431 24 312 -6 218 -6 c 0
 80 -6 11 93 11 196 c 0x9d
 11 292 71 392 192 417 c 1
 124 454 93 512 93 569 c 0
 93 660 173 750 315 750 c 0
 408 750 499 713 499 616 c 0
 499 563 480 524 429 524 c 0xcb
 413 524 391 528 372 550 c 1
 397 557 416 607 416 632 c 0
 416 648 414 706 350 706 c 0
 277 706 228 650 228 583 c 0xab
 228 525 266 460 360 418 c 1
 233 366 186 286 186 217 c 0
 186 144 239 84 303 84 c 0
 380 84 424 116 461 180 c 1xcd
496 811 m 1
 464 811 l 1
 404 891 l 1
 247 811 l 1
 203 811 l 1
 415 1000 l 1
 436 1000 l 1
 496 811 l 1
EndSplineSet
EndChar

StartChar: Edieresis
Encoding: 203 203 19
Width: 459
Flags: MW
HStem: -6 90<149 341.5> 524 226<244 454.5> 706 44<313.5 361.5 244 382> 823 122<232 265.5 412 445.5>
VStem: 11 175<180.5 244> 93 135<554 614.5> 188 122<867 900.5> 368 131 416 83<619.5 640>
LayerCount: 3
Fore
SplineSet
461 180 m 1xdb
 484 170 l 1
 431 24 312 -6 218 -6 c 0
 80 -6 11 93 11 196 c 0xdb
 11 292 71 392 192 417 c 1
 124 454 93 512 93 569 c 0
 93 660 173 750 315 750 c 0
 408 750 499 713 499 616 c 0
 499 563 480 524 429 524 c 0xd5
 413 524 391 528 372 550 c 1
 397 557 416 607 416 632 c 0
 416 648 414 706 350 706 c 0
 277 706 228 650 228 583 c 0xb480
 228 525 266 460 360 418 c 1
 233 366 186 286 186 217 c 0
 186 144 239 84 303 84 c 0
 380 84 424 116 461 180 c 1xdb
188 884 m 0
 188 917 215 945 249 945 c 0
 282 945 310 917 310 884 c 0
 310 850 282 823 249 823 c 0
 215 823 188 850 188 884 c 0
368 884 m 0
 368 917 395 945 429 945 c 0
 462 945 490 917 490 884 c 0
 490 850 462 823 429 823 c 0
 395 823 368 850 368 884 c 0
EndSplineSet
EndChar

StartChar: Egrave
Encoding: 200 200 20
Width: 459
Flags: MW
HStem: -6 90<149 341.5> 524 226<244 454.5> 706 44<313.5 361.5 244 382> 811 189<321 321 321 367 262 396>
VStem: 11 175<180.5 244> 93 135<554 614.5> 416 83<619.5 640>
LayerCount: 3
Fore
SplineSet
461 180 m 1xda
 484 170 l 1
 431 24 312 -6 218 -6 c 0
 80 -6 11 93 11 196 c 0xda
 11 292 71 392 192 417 c 1
 124 454 93 512 93 569 c 0
 93 660 173 750 315 750 c 0
 408 750 499 713 499 616 c 0
 499 563 480 524 429 524 c 0xd6
 413 524 391 528 372 550 c 1
 397 557 416 607 416 632 c 0
 416 648 414 706 350 706 c 0
 277 706 228 650 228 583 c 0xb6
 228 525 266 460 360 418 c 1
 233 366 186 286 186 217 c 0
 186 144 239 84 303 84 c 0
 380 84 424 116 461 180 c 1xda
321 811 m 1
 262 1000 l 1
 367 1000 l 1
 396 811 l 1
 321 811 l 1
EndSplineSet
EndChar

StartChar: F
Encoding: 70 70 21
Width: 495
Flags: MW
HStem: 0 21G<88 232 88 88> 345 74<322 456 306 476> 630 108<488 511> 668 82<232 232>
VStem: 9 93<454 540.5 435.5 556.5>
LayerCount: 3
Fore
SplineSet
322 419 m 1xe8
 476 419 l 1
 456 345 l 1
 306 345 l 1
 232 0 l 1
 88 0 l 1
 232 668 l 1
 155 664 102 620 102 461 c 0
 102 410 115 402 116 393 c 1
 47 393 9 418 9 490 c 0
 9 623 103 750 350 750 c 0xd8
 390 750 453 738 516 738 c 0xe8
 547 738 578 741 606 750 c 1xd8
 592 708 589 647 511 630 c 1
 465 630 418 639 371 649 c 1
 322 419 l 1xe8
EndSplineSet
EndChar

StartChar: G
Encoding: 71 71 22
Width: 578
Flags: MW
HStem: -207 50<195 238.5 195 290> -13 81<200 211 151.5 233> 109 83<152.5 307.5> 524 226<261.5 514.5> 703 47<340 419.5 261.5 427>
VStem: 19 154<312.5 436.5 312.5 460.5> 69 84<-103.5 -70.5 -106.5 -35> 69 220<-103.5 33> 464 95<619.5 640>
LayerCount: 3
Fore
SplineSet
417 418 m 1xf180
 546 418 l 1
 464 42 l 2
 431 -111 372 -207 208 -207 c 0
 113 -207 69 -138 69 -69 c 0
 69 -1 112 68 191 68 c 0
 231 68 289 65 289 1 c 0xf180
 289 -10 287 -24 283 -39 c 1
 258 -18 243 -13 223 -13 c 0
 177 -13 153 -52 153 -89 c 0xf280
 153 -124 174 -157 216 -157 c 0
 261 -157 293 -137 316 -34 c 2
 356 145 l 1
 298 114 243 109 234 109 c 0
 71 109 19 227 19 365 c 0
 19 556 150 750 373 750 c 0
 466 750 559 713 559 616 c 0
 559 563 540 524 489 524 c 0xf480
 473 524 439 528 420 550 c 1
 445 557 464 607 464 632 c 0
 464 648 459 703 395 703 c 0
 285 703 173 516 173 357 c 0xec80
 173 268 206 192 289 192 c 0
 326 192 353 201 374 229 c 1
 417 418 l 1xf180
EndSplineSet
EndChar

StartChar: H
Encoding: 72 72 23
Width: 631
Flags: MW
HStem: 0 21G<94 238 94 94 357 501 357 357> 730 20G<273.5 364>
VStem: 6 93<454 514 435.5 556.5>
LayerCount: 3
Fore
SplineSet
397 748 m 1
 332 444 l 1
 366 450 400 457 432 457 c 0
 439 457 447 457 454 456 c 1
 516 748 l 1
 660 748 l 1
 501 0 l 1
 357 0 l 1
 436 371 l 1
 414 379 393 381 372 381 c 0
 353 381 334 379 318 377 c 1
 238 0 l 1
 94 0 l 1
 239 680 l 1
 151 643 99 567 99 461 c 0
 99 410 112 402 113 393 c 1
 44 393 6 418 6 490 c 0
 6 623 190 750 357 750 c 0
 371 750 384 749 397 748 c 1
EndSplineSet
EndChar

StartChar: I
Encoding: 73 73 24
Width: 375
Flags: MW
HStem: 0 21G<94 238 94 94> 730 20G<273.5 364>
VStem: 6 93<454 514.5 435.5 556.5>
LayerCount: 3
Fore
SplineSet
397 748 m 1
 238 0 l 1
 94 0 l 1
 239 679 l 1
 152 643 99 568 99 461 c 0
 99 410 112 402 113 393 c 1
 44 393 6 418 6 490 c 0
 6 623 190 750 357 750 c 0
 371 750 384 749 397 748 c 1
EndSplineSet
EndChar

StartChar: Iacute
Encoding: 205 205 25
Width: 375
Flags: MW
HStem: 0 21G<94 238 94 94> 980 20G<392 497 497 497>
VStem: 6 93<454 514.5 435.5 556.5>
LayerCount: 3
Fore
SplineSet
397 748 m 1
 238 0 l 1
 94 0 l 1
 239 679 l 1
 152 643 99 568 99 461 c 0
 99 410 112 402 113 393 c 1
 44 393 6 418 6 490 c 0
 6 623 190 750 357 750 c 0
 371 750 384 749 397 748 c 1
301 811 m 1
 392 1000 l 1
 497 1000 l 1
 376 811 l 1
 301 811 l 1
EndSplineSet
EndChar

StartChar: Icircumflex
Encoding: 206 206 26
Width: 375
Flags: MW
HStem: 0 21G<94 238 94 94> 750 61 980 20G<363 384 384 384>
VStem: 6 93<454 514.5 435.5 556.5>
LayerCount: 3
Fore
SplineSet
397 748 m 1
 238 0 l 1
 94 0 l 1
 239 679 l 1
 152 643 99 568 99 461 c 0
 99 410 112 402 113 393 c 1
 44 393 6 418 6 490 c 0
 6 623 190 750 357 750 c 0
 371 750 384 749 397 748 c 1
444 811 m 1
 412 811 l 1
 352 891 l 1
 195 811 l 1
 151 811 l 1
 363 1000 l 1
 384 1000 l 1
 444 811 l 1
EndSplineSet
EndChar

StartChar: Idieresis
Encoding: 207 207 27
Width: 375
Flags: MW
HStem: 0 21G<94 238 94 94> 823 122<211 244.5 391 424.5>
VStem: 6 93<454 514.5 435.5 556.5> 167 122<867 900.5> 347 122<867 900.5>
LayerCount: 3
Fore
SplineSet
397 748 m 1
 238 0 l 1
 94 0 l 1
 239 679 l 1
 152 643 99 568 99 461 c 0
 99 410 112 402 113 393 c 1
 44 393 6 418 6 490 c 0
 6 623 190 750 357 750 c 0
 371 750 384 749 397 748 c 1
347 884 m 0
 347 917 374 945 408 945 c 0
 441 945 469 917 469 884 c 0
 469 850 441 823 408 823 c 0
 374 823 347 850 347 884 c 0
167 884 m 0
 167 917 194 945 228 945 c 0
 261 945 289 917 289 884 c 0
 289 850 261 823 228 823 c 0
 194 823 167 850 167 884 c 0
EndSplineSet
EndChar

StartChar: Igrave
Encoding: 204 204 28
Width: 375
Flags: MW
HStem: 0 21G<94 238 94 94> 811 189<289 289 289 335 230 364>
VStem: 6 93<454 514.5 435.5 556.5>
LayerCount: 3
Fore
SplineSet
397 748 m 1
 238 0 l 1
 94 0 l 1
 239 679 l 1
 152 643 99 568 99 461 c 0
 99 410 112 402 113 393 c 1
 44 393 6 418 6 490 c 0
 6 623 190 750 357 750 c 0
 371 750 384 749 397 748 c 1
289 811 m 1
 230 1000 l 1
 335 1000 l 1
 364 811 l 1
 289 811 l 1
EndSplineSet
EndChar

StartChar: J
Encoding: 74 74 29
Width: 536
Flags: MW
HStem: -207 50<154.5 191.5 154.5 247> -13 81<148 159 99.5 181> 730 20G<538 578 578 578>
VStem: 17 84<-107.5 -68.5 -113 -32> 17 220<-107.5 33> 187 93<454 514.5 435.5 556.5>
LayerCount: 3
Fore
SplineSet
538 750 m 2xf4
 578 750 l 1
 428 40 l 2
 396 -113 329 -207 165 -207 c 0
 70 -207 17 -149 17 -66 c 0
 17 2 60 68 139 68 c 0
 179 68 237 65 237 1 c 0xe8
 237 -10 235 -24 231 -39 c 1
 206 -18 191 -13 171 -13 c 0
 125 -13 101 -50 101 -87 c 0
 101 -139 140 -157 169 -157 c 0
 214 -157 241 -137 264 -34 c 2
 421 680 l 1
 334 644 280 568 280 461 c 0
 280 410 293 402 294 393 c 1
 225 393 187 418 187 490 c 0
 187 623 371 750 538 750 c 2xf4
EndSplineSet
EndChar

StartChar: K
Encoding: 75 75 30
Width: 601
Flags: MW
HStem: -20 20G<94 238 94 94> -17 21G<403.5 448> 380 46<346.5 469.5> 730 20G<273.5 364>
VStem: 6 93<454 514 435.5 556.5> 358 138<51 83> 411 85 411 134<278 333>
LayerCount: 3
Fore
SplineSet
397 748 m 1xba
 331 442 l 1
 394 527 559 746 559 745 c 2
 664 745 l 1
 385 424 l 1
 398 426 410 426 421 426 c 0
 518 426 545 380 545 319 c 0xb9
 545 237 496 129 496 66 c 0
 496 36 511 9 535 0 c 1xbc
 493 -12 460 -17 436 -17 c 0
 371 -17 358 17 358 50 c 0x7c
 358 116 411 237 411 313 c 0
 411 353 396 380 351 380 c 0
 342 380 331 379 318 376 c 1
 238 0 l 1
 94 0 l 1
 239 680 l 1
 151 643 99 567 99 461 c 0
 99 410 112 402 113 393 c 1
 44 393 6 418 6 490 c 0
 6 623 190 750 357 750 c 0
 371 750 384 749 397 748 c 1xba
EndSplineSet
EndChar

StartChar: L
Encoding: 76 76 31
Width: 392
Flags: MW
HStem: -250 141<515 586> 720 20G<273.5 364>
VStem: 6 93<444 504.5 425.5 546.5>
LayerCount: 3
Fore
SplineSet
397 738 m 1
 243 20 l 1
 347 -3 451 -109 579 -109 c 0
 606 -109 634 -105 663 -93 c 1
 653 -189 613 -250 559 -250 c 0
 416 -250 290 -23 113 -23 c 0
 105 -23 98 -23 90 -24 c 1
 239 669 l 1
 152 633 99 558 99 451 c 0
 99 400 112 392 113 383 c 1
 44 383 6 408 6 480 c 0
 6 613 190 740 357 740 c 0
 371 740 384 739 397 738 c 1
EndSplineSet
EndChar

StartChar: M
Encoding: 77 77 32
Width: 785
Flags: MW
HStem: 0 21G<67 147 67 67 279 416 279 279 506 650 506 506> 726 20G<284 373.5>
VStem: 37 93<454 518.5 435.5 551> 279 152<160 427 427 427>
LayerCount: 3
Fore
SplineSet
650 0 m 1
 506 0 l 1
 606 473 l 1
 416 0 l 1
 279 0 l 1
 279 427 l 1
 147 0 l 1
 67 0 l 1
 291 687 l 1
 191 655 130 576 130 461 c 0
 130 410 143 402 144 393 c 1
 75 393 37 418 37 490 c 0
 37 612 206 746 362 746 c 0
 385 746 409 743 431 736 c 1
 431 160 l 1
 650 736 l 1
 807 736 l 1
 650 0 l 1
EndSplineSet
Substitution2: "'salt' Stylistic Alternatives in Latin lookup 6 subtable" M.salt
Substitution2: "'aalt' Access All Alternates in Latin lookup 0 subtable" M.salt
EndChar

StartChar: M.salt
Encoding: 1114117 -1 33
Width: 806
Flags: MW
HStem: -113 21G 731 20G<398 529 701.5 757>
VStem: 11 120<-54 43 -82.5 93.5> 131 191<-82.5 282.5> 322 109<157.5 282.5>
LayerCount: 3
Fore
SplineSet
825 736 m 1
 661 -41 l 1
 570 -41 537 -27 537 39 c 0
 537 60 541 78 546 99 c 2
 662 651 l 1
 558 538 431 229 431 159 c 0
 431 156 431 153 432 151 c 1
 357 155 322 181 322 246 c 0
 322 319 366 440 449 635 c 1
 307 576 131 143 131 -57 c 0
 131 -108 144 -104 145 -113 c 1
 76 -109 11 -107 11 -1 c 0
 11 188 279 751 517 751 c 0
 541 751 560 746 584 737 c 1
 571 698 536 613 517 580 c 1
 624 733 658 751 745 751 c 0
 769 751 801 746 825 736 c 1
EndSplineSet
EndChar

StartChar: N
Encoding: 78 78 34
Width: 702
Flags: MW
HStem: 0 21G<94 238 94 94 397.5 421 421 565> 730 20G<273.5 399>
VStem: 6 93<454 514 435.5 556.5> 363 74<208 253>
LayerCount: 3
Fore
SplineSet
580 748 m 1
 724 748 l 1
 565 0 l 1
 421 0 l 2
 374 0 363 88 363 204 c 0
 363 302 370 419 370 523 c 0
 370 554 370 584 368 612 c 1
 238 0 l 1
 94 0 l 1
 239 680 l 1
 151 643 99 567 99 461 c 0
 99 410 112 402 113 393 c 1
 44 393 6 418 6 490 c 0
 6 623 190 750 357 750 c 0
 441 750 448 707 448 564 c 0
 448 459 437 328 437 231 c 0
 437 185 440 146 447 122 c 1
 580 748 l 1
EndSplineSet
EndChar

StartChar: Ntilde
Encoding: 209 209 35
Width: 702
Flags: MW
HStem: 0 21G<94 238 94 94 397.5 421 421 565> 819 78<497 634.5> 856 74<349 493.5>
VStem: 6 93<454 514 435.5 556.5> 363 74<208 253>
LayerCount: 3
Fore
SplineSet
580 748 m 1xd8
 724 748 l 1
 565 0 l 1
 421 0 l 2
 374 0 363 88 363 204 c 0
 363 302 370 419 370 523 c 0
 370 554 370 584 368 612 c 1
 238 0 l 1
 94 0 l 1
 239 680 l 1
 151 643 99 567 99 461 c 0
 99 410 112 402 113 393 c 1
 44 393 6 418 6 490 c 0
 6 623 190 750 357 750 c 0
 441 750 448 705 448 564 c 0
 448 459 437 328 437 231 c 0
 437 185 440 146 447 122 c 1
 580 748 l 1xd8
685 920 m 1
 691 919 l 1
 680 872 606 819 530 819 c 0xd8
 464 819 417 856 362 856 c 0
 336 856 314 847 296 830 c 1
 290 832 l 1
 322 896 381 930 457 930 c 0xb8
 530 930 564 897 622 897 c 0
 647 897 671 905 685 920 c 1
EndSplineSet
EndChar

StartChar: O
Encoding: 79 79 36
Width: 658
Flags: MW
HStem: -9 84<304.5 375 304.5 421.5> 704 46<288 432>
VStem: 6 93<454 537 435.5 556.5> 127 126<194 310.5> 515 116<406.5 555>
LayerCount: 3
Fore
SplineSet
388 656 m 1
 306 548 253 401 253 237 c 0
 253 151 277 75 332 75 c 0
 418 75 515 313 515 500 c 0
 515 610 495 704 369 704 c 0
 207 704 99 613 99 461 c 0
 99 410 112 402 113 393 c 1
 44 393 6 418 6 490 c 0
 6 623 190 750 357 750 c 0
 555 750 631 653 631 479 c 0
 631 284 511 -9 332 -9 c 0
 204 -9 127 51 127 217 c 0
 127 404 193 664 341 664 c 0
 356 664 371 661 388 656 c 1
EndSplineSet
EndChar

StartChar: Oacute
Encoding: 211 211 37
Width: 658
Flags: MW
HStem: -9 84<304.5 375 304.5 421.5> 704 46<288 432> 980 20G<522 627 627 627>
VStem: 6 93<454 537 435.5 556.5> 127 126<194 310.5> 515 116<406.5 555>
LayerCount: 3
Fore
SplineSet
388 656 m 1
 306 548 253 401 253 237 c 0
 253 151 277 75 332 75 c 0
 418 75 515 313 515 500 c 0
 515 610 495 704 369 704 c 0
 207 704 99 613 99 461 c 0
 99 410 112 402 113 393 c 1
 44 393 6 418 6 490 c 0
 6 623 190 750 357 750 c 0
 555 750 631 653 631 479 c 0
 631 284 511 -9 332 -9 c 0
 204 -9 127 51 127 217 c 0
 127 404 193 664 341 664 c 0
 356 664 371 661 388 656 c 1
431 811 m 1
 522 1000 l 1
 627 1000 l 1
 506 811 l 1
 431 811 l 1
EndSplineSet
EndChar

StartChar: Ocircumflex
Encoding: 212 212 38
Width: 658
Flags: MW
HStem: -9 84<304.5 375 304.5 421.5> 664 40<288 348.5> 704 46<288 432> 750 61<302 346 302 456> 980 20G<514 535 535 535>
VStem: 6 93<454 537 435.5 556.5> 127 126<194 310.5> 515 116<406.5 555>
LayerCount: 3
Fore
SplineSet
388 656 m 1xdf
 306 548 253 401 253 237 c 0
 253 151 277 75 332 75 c 0
 418 75 515 313 515 500 c 0
 515 610 495 704 369 704 c 0
 207 704 99 613 99 461 c 0
 99 410 112 402 113 393 c 1
 44 393 6 418 6 490 c 0
 6 623 190 750 357 750 c 0xaf
 555 750 631 653 631 479 c 0
 631 284 511 -9 332 -9 c 0
 204 -9 127 51 127 217 c 0
 127 404 193 664 341 664 c 0
 356 664 371 661 388 656 c 1xdf
595 811 m 1xdf
 563 811 l 1
 503 891 l 1
 346 811 l 1
 302 811 l 1
 514 1000 l 1
 535 1000 l 1
 595 811 l 1xdf
EndSplineSet
EndChar

StartChar: Odieresis
Encoding: 214 214 39
Width: 658
Flags: MW
HStem: -9 84<304.5 375 304.5 421.5> 704 46<288 432> 823 122<352 385.5 532 565.5>
VStem: 6 93<454 537 435.5 556.5> 127 126<194 310.5> 308 122<867 900.5> 488 122<867 900.5> 515 116<406.5 555>
LayerCount: 3
Fore
SplineSet
388 656 m 1xfd
 306 548 253 401 253 237 c 0
 253 151 277 75 332 75 c 0
 418 75 515 313 515 500 c 0
 515 610 495 704 369 704 c 0
 207 704 99 613 99 461 c 0
 99 410 112 402 113 393 c 1
 44 393 6 418 6 490 c 0
 6 623 190 750 357 750 c 0
 555 750 631 653 631 479 c 0
 631 284 511 -9 332 -9 c 0
 204 -9 127 51 127 217 c 0
 127 404 193 664 341 664 c 0
 356 664 371 661 388 656 c 1xfd
308 884 m 0
 308 917 335 945 369 945 c 0
 402 945 430 917 430 884 c 0
 430 850 402 823 369 823 c 0
 335 823 308 850 308 884 c 0
488 884 m 0xfe
 488 917 515 945 549 945 c 0
 582 945 610 917 610 884 c 0
 610 850 582 823 549 823 c 0
 515 823 488 850 488 884 c 0xfe
EndSplineSet
EndChar

StartChar: Ograve
Encoding: 210 210 40
Width: 658
Flags: MW
HStem: -9 84<304.5 375 304.5 421.5> 704 46<288 432> 811 189<401 401 401 447 342 476>
VStem: 6 93<454 537 435.5 556.5> 127 126<194 310.5> 515 116<406.5 555>
LayerCount: 3
Fore
SplineSet
388 656 m 1
 306 548 253 401 253 237 c 0
 253 151 277 75 332 75 c 0
 418 75 515 313 515 500 c 0
 515 610 495 704 369 704 c 0
 207 704 99 613 99 461 c 0
 99 410 112 402 113 393 c 1
 44 393 6 418 6 490 c 0
 6 623 190 750 357 750 c 0
 555 750 631 653 631 479 c 0
 631 284 511 -9 332 -9 c 0
 204 -9 127 51 127 217 c 0
 127 404 193 664 341 664 c 0
 356 664 371 661 388 656 c 1
401 811 m 1
 342 1000 l 1
 447 1000 l 1
 476 811 l 1
 401 811 l 1
EndSplineSet
EndChar

StartChar: Otilde
Encoding: 213 213 41
Width: 658
Flags: MW
HStem: -9 84<304.5 375 304.5 421.5> 704 46<288 432> 819 78<445 582.5> 856 74<297 441.5>
VStem: 6 93<454 537 435.5 556.5> 127 126<194 310.5> 515 116<406.5 555>
LayerCount: 3
Fore
SplineSet
388 656 m 1xee
 306 548 253 401 253 237 c 0
 253 151 277 75 332 75 c 0
 418 75 515 313 515 500 c 0
 515 610 495 704 369 704 c 0
 207 704 99 613 99 461 c 0
 99 410 112 402 113 393 c 1
 44 393 6 418 6 490 c 0
 6 623 190 750 357 750 c 0
 555 750 631 653 631 479 c 0
 631 284 511 -9 332 -9 c 0
 204 -9 127 51 127 217 c 0
 127 404 193 664 341 664 c 0
 356 664 371 661 388 656 c 1xee
633 920 m 1
 639 919 l 1
 628 872 554 819 478 819 c 0xee
 412 819 365 856 310 856 c 0
 284 856 262 847 244 830 c 1
 238 832 l 1
 270 896 329 930 405 930 c 0xde
 478 930 512 897 570 897 c 0
 595 897 619 905 633 920 c 1
EndSplineSet
EndChar

StartChar: P
Encoding: 80 80 42
Width: 573
Flags: MW
HStem: 0 21G<94 238 94 94> 285 37<299 307 299 307> 704 46<277 402>
VStem: 6 93<454 537 435.5 556.5> 482 111<515 604.5 489.5 605>
LayerCount: 3
Fore
SplineSet
230 636 m 1
 378 656 l 1
 307 322 l 1
 407 330 482 462 482 568 c 0
 482 642 446 704 358 704 c 0
 196 704 99 613 99 461 c 0
 99 410 112 402 113 393 c 1
 44 393 6 418 6 490 c 0
 6 623 190 750 357 750 c 0
 521 750 593 656 593 553 c 0
 593 426 484 285 304 285 c 2
 299 285 l 1
 238 0 l 1
 94 0 l 1
 230 636 l 1
EndSplineSet
EndChar

StartChar: Q
Encoding: 81 81 43
Width: 658
Flags: MW
HStem: -113 84<461.5 587.5> -9 84<309 326 309 340> -9 166<305 332 305 340> 704 46<288 432>
VStem: 6 93<454 537 435.5 556.5> 117 126<221.5 315> 515 116<433.5 555>
LayerCount: 3
Fore
SplineSet
378 656 m 1xbe
 296 548 243 402 243 238 c 0
 243 205 247 174 254 148 c 1
 276 154 296 157 314 157 c 0
 350 157 377 145 398 127 c 1
 461 208 515 367 515 500 c 0
 515 610 495 704 369 704 c 0
 207 704 99 613 99 461 c 0
 99 410 112 402 113 393 c 1
 44 393 6 418 6 490 c 0
 6 623 190 750 357 750 c 0
 555 750 631 653 631 479 c 0
 631 337 567 143 463 48 c 1
 492 7 523 -29 584 -29 c 0
 591 -29 598 -28 606 -27 c 1
 580 -96 546 -113 503 -113 c 0
 420 -113 395 -58 378 -2 c 1
 363 -6 348 -9 332 -9 c 0
 203 -9 117 53 117 222 c 0
 117 408 193 664 333 664 c 0
 347 664 362 661 378 656 c 1xbe
289 120 m 0
 282 120 274 119 265 117 c 1
 278 91 296 75 322 75 c 0xde
 330 75 339 77 348 82 c 1
 336 104 319 120 289 120 c 0
EndSplineSet
EndChar

StartChar: R
Encoding: 82 82 44
Width: 601
Flags: MW
HStem: -20 20G<94 238 94 94> -17 21G<403.5 448> 381 43<345.5 372.5> 704 46<288 408>
VStem: 6 93<454 537 435.5 556.5> 358 138<51 83> 410 86 479 66 479 105<560 627>
LayerCount: 3
Fore
SplineSet
230 636 m 1xba
 378 656 l 1
 328 424 l 1
 337 424 l 2
 420 424 479 521 479 599 c 0
 479 655 447 704 369 704 c 0
 207 704 99 613 99 461 c 0
 99 410 112 402 113 393 c 1
 44 393 6 418 6 490 c 0
 6 623 190 750 357 750 c 0
 515 750 584 672 584 590 c 0xb880
 584 529 545 459 476 419 c 1
 528 404 545 366 545 319 c 0xb9
 545 237 496 128 496 66 c 0
 496 36 511 9 535 0 c 1xbc
 493 -12 460 -17 436 -17 c 0
 371 -17 358 17 358 50 c 0x7c
 358 116 410 237 410 313 c 0
 410 353 395 381 350 381 c 0
 341 381 330 380 318 377 c 1
 238 0 l 1
 94 0 l 1
 230 636 l 1xba
EndSplineSet
EndChar

StartChar: S
Encoding: 83 83 45
Width: 570
Flags: MW
HStem: -5 48<220.5 283.5 220.5 335.5> 529 221<316.5 487> 703 47<360.5 402.5 316.5 414.5>
VStem: 34 111<105.5 173.5 105.5 203> 138 157<537.5 616.5> 354 166<156.5 280> 461 59 461 83<619.5 653.5>
LayerCount: 3
Fore
SplineSet
544 630 m 0xa9
 544 573 513 529 461 529 c 0xd1
 445 529 429 535 416 550 c 1
 443 566 461 603 461 636 c 0
 461 671 441 703 388 703 c 0
 333 703 295 671 295 616 c 0xaa
 295 459 520 450 520 227 c 0
 520 86 416 -5 255 -5 c 0
 175 -5 34 12 34 156 c 0
 34 250 104 300 181 300 c 0
 226 300 254 285 262 249 c 1
 181 242 145 208 145 139 c 0
 145 72 197 43 244 43 c 0
 323 43 354 112 354 186 c 0xd4
 354 374 138 415 138 564 c 0
 138 669 257 750 376 750 c 0
 429 750 544 742 544 630 c 0xa9
EndSplineSet
EndChar

StartChar: T
Encoding: 84 84 46
Width: 481
Flags: MW
HStem: 0 21G<157 301 157 157> 618 114<597.5 627 555 664> 661 88<243 299>
VStem: 6 93<453 544.5 434.5 555.5>
LayerCount: 3
Fore
SplineSet
624 618 m 0xd0
 571 618 506 632 439 644 c 1
 301 0 l 1
 157 0 l 1
 299 661 l 1
 187 661 99 629 99 460 c 0
 99 409 112 401 113 392 c 1
 44 392 6 417 6 489 c 0
 6 622 100 749 347 749 c 0xb0
 388 749 506 732 604 732 c 0
 650 732 692 736 719 747 c 1
 705 705 704 618 624 618 c 0xd0
EndSplineSet
EndChar

StartChar: T_h
Encoding: 1114118 -1 47
Width: 996
Flags: MW
HStem: 0 91<813 943> 425 75<715 833> 664 85<300 300>
VStem: 6 93<453 538.5 434.5 555.5> 728 145<71.5 132.5> 775 146<371 384>
LayerCount: 3
Fore
SplineSet
99 460 m 0xf4
 99 409 112 401 113 392 c 1
 44 392 6 417 6 489 c 0
 6 622 111 749 358 749 c 0
 404 749 526 723 628 723 c 0
 677 723 721 729 749 747 c 1
 724 702 710 674 663 437 c 1
 707 471 758 500 806 500 c 0
 860 500 921 442 921 375 c 0xf4
 921 367 921 359 919 351 c 2
 878 160 l 2
 875 148 873 137 873 128 c 0
 873 106 884 91 923 91 c 0
 963 91 1015 147 1055 179 c 1
 1089 179 l 1
 1043 133 930 0 852 0 c 0
 774 0 728 34 728 109 c 0xf8
 728 125 730 141 734 160 c 2
 772 340 l 2
 774 349 775 358 775 366 c 0
 775 402 756 425 729 425 c 0
 701 425 680 415 655 396 c 1
 636 298 612 172 581 0 c 1
 437 0 l 1
 574 638 l 1
 534 642 488 649 442 655 c 1
 301 0 l 1
 157 0 l 1
 300 664 l 1
 189 659 99 617 99 460 c 0xf4
EndSplineSet
Ligature2: "'liga' Standard Ligatures in Latin lookup 2 subtable" T h
EndChar

StartChar: T_i
Encoding: 1114119 -1 48
Width: 750
Flags: MW
HStem: 0 91<553.5 683> 573 160<555 667> 674 75<223.5 267.5>
VStem: 6 93<453 542.5 434.5 555.5> 467 146<71.5 133.5>
LayerCount: 3
Fore
SplineSet
545 500 m 1xd8
 689 500 l 1
 617 160 l 2
 615 149 613 138 613 129 c 0
 613 107 623 91 663 91 c 0
 703 91 755 147 795 179 c 1
 829 179 l 1
 783 133 670 0 592 0 c 0
 515 0 467 34 467 109 c 0
 467 124 469 141 473 160 c 2
 545 500 l 1xd8
157 0 m 1
 301 671 l 1
 287 673 274 674 261 674 c 0
 169 674 99 625 99 460 c 0
 99 409 112 401 113 392 c 1
 44 392 6 417 6 489 c 0
 6 622 100 749 347 749 c 0xb8
 388 749 506 733 604 733 c 0
 650 733 692 736 719 747 c 1
 729 716 733 690 733 669 c 0
 733 595 684 573 650 573 c 0
 604 573 523 608 438 637 c 1
 301 0 l 1
 157 0 l 1
EndSplineSet
Ligature2: "'liga' Standard Ligatures in Latin lookup 2 subtable" T i
EndChar

StartChar: U
Encoding: 85 85 49
Width: 678
Flags: MW
HStem: 0 21G<397 541 397 397> 1 74<304.5 326> 730 20G<273.5 374>
VStem: 6 93<454 523 435.5 556.5> 126 127<194 281>
LayerCount: 3
Fore
SplineSet
557 748 m 1x78
 700 748 l 1
 541 0 l 1
 397 0 l 1xb8
 408 52 l 1
 375 22 341 1 311 1 c 0
 196 1 126 52 126 213 c 0
 126 349 178 588 285 695 c 1
 170 668 99 585 99 461 c 0
 99 410 112 402 113 393 c 1
 44 393 6 418 6 490 c 0
 6 623 190 750 357 750 c 0
 391 750 414 750 432 745 c 1
 347 633 253 394 253 237 c 0
 253 151 277 75 332 75 c 0
 372 75 403 105 429 152 c 1
 557 748 l 1x78
EndSplineSet
EndChar

StartChar: Uacute
Encoding: 218 218 50
Width: 678
Flags: MW
HStem: 0 21G<397 541 397 397> 1 74<304.5 326> 980 20G<522 627 627 627>
VStem: 6 93<454 523 435.5 556.5> 126 127<194 281>
LayerCount: 3
Fore
SplineSet
557 748 m 1x78
 700 748 l 1
 541 0 l 1
 397 0 l 1xb8
 408 52 l 1
 375 22 341 1 311 1 c 0
 196 1 126 52 126 213 c 0
 126 349 178 588 285 695 c 1
 170 668 99 585 99 461 c 0
 99 410 112 402 113 393 c 1
 44 393 6 418 6 490 c 0
 6 623 190 750 357 750 c 0
 392 750 414 750 432 745 c 1
 347 633 253 394 253 237 c 0
 253 151 277 75 332 75 c 0
 372 75 403 105 429 152 c 1
 557 748 l 1x78
431 811 m 1
 522 1000 l 1
 627 1000 l 1
 506 811 l 1
 431 811 l 1
EndSplineSet
EndChar

StartChar: Ucircumflex
Encoding: 219 219 51
Width: 678
Flags: MW
HStem: 0 21G<397 541 397 397> 1 74<304.5 326> 750 61<342 374> 980 20G<554 575 575 575>
VStem: 6 93<454 523 435.5 556.5> 126 127<194 281>
LayerCount: 3
Fore
SplineSet
557 748 m 1x7c
 700 748 l 1
 541 0 l 1
 397 0 l 1xbc
 408 52 l 1
 375 22 341 1 311 1 c 0
 196 1 126 52 126 213 c 0
 126 349 178 588 285 695 c 1
 170 668 99 585 99 461 c 0
 99 410 112 402 113 393 c 1
 44 393 6 418 6 490 c 0
 6 623 190 750 357 750 c 0
 391 750 414 750 432 745 c 1
 347 633 253 394 253 237 c 0
 253 151 277 75 332 75 c 0
 372 75 403 105 429 152 c 1
 557 748 l 1x7c
635 811 m 1
 603 811 l 1
 543 891 l 1
 386 811 l 1
 342 811 l 1
 554 1000 l 1
 575 1000 l 1
 635 811 l 1
EndSplineSet
EndChar

StartChar: Udieresis
Encoding: 220 220 52
Width: 678
Flags: MW
HStem: 0 21G<397 541 397 397> 1 74<304.5 326> 823 122<422 455.5 602 635.5>
VStem: 6 93<454 523 435.5 556.5> 126 127<194 281> 378 122<867 900.5> 558 122<867 900.5>
LayerCount: 3
Fore
SplineSet
557 748 m 1x7e
 700 748 l 1
 541 0 l 1
 397 0 l 1xbe
 408 52 l 1
 375 22 341 1 311 1 c 0
 196 1 126 52 126 213 c 0
 126 349 178 588 285 695 c 1
 170 668 99 585 99 461 c 0
 99 410 112 402 113 393 c 1
 44 393 6 418 6 490 c 0
 6 623 190 750 357 750 c 0
 391 750 414 750 432 745 c 1
 347 633 253 394 253 237 c 0
 253 151 277 75 332 75 c 0
 372 75 403 105 429 152 c 1
 557 748 l 1x7e
378 884 m 0
 378 917 405 945 439 945 c 0
 472 945 500 917 500 884 c 0
 500 850 472 823 439 823 c 0
 405 823 378 850 378 884 c 0
558 884 m 0
 558 917 585 945 619 945 c 0
 652 945 680 917 680 884 c 0
 680 850 652 823 619 823 c 0
 585 823 558 850 558 884 c 0
EndSplineSet
EndChar

StartChar: Ugrave
Encoding: 217 217 53
Width: 678
Flags: MW
HStem: 0 21G<397 541 397 397> 1 74<304.5 326> 811 189<451 451 451 497 392 526>
VStem: 6 93<454 523 435.5 556.5> 126 127<194 281>
LayerCount: 3
Fore
SplineSet
557 748 m 1x78
 700 748 l 1
 541 0 l 1
 397 0 l 1xb8
 408 52 l 1
 375 22 341 1 311 1 c 0
 196 1 126 52 126 213 c 0
 126 349 178 588 285 695 c 1
 170 668 99 585 99 461 c 0
 99 410 112 402 113 393 c 1
 44 393 6 418 6 490 c 0
 6 623 190 750 357 750 c 0
 392 750 414 750 432 745 c 1
 347 633 253 394 253 237 c 0
 253 151 277 75 332 75 c 0
 372 75 403 105 429 152 c 1
 557 748 l 1x78
451 811 m 1
 392 1000 l 1
 497 1000 l 1
 526 811 l 1
 451 811 l 1
EndSplineSet
EndChar

StartChar: V
Encoding: 86 86 54
Width: 615
Flags: MW
HStem: 0 21G<264 408 264 264> 730 20G<273.5 364>
VStem: 6 93<454 516 435.5 556.5> 264 137
LayerCount: 3
Fore
SplineSet
397 748 m 1
 406 133 l 1
 616 745 l 1
 686 745 l 1
 408 0 l 1
 264 0 l 1
 264 683 l 1
 155 649 99 571 99 461 c 0
 99 410 112 402 113 393 c 1
 44 393 6 418 6 490 c 0
 6 623 190 750 357 750 c 0
 371 750 384 749 397 748 c 1
EndSplineSet
EndChar

StartChar: W
Encoding: 87 87 55
Width: 970
Flags: MW
HStem: 0 21G<264 408 264 264 610 754 610 610> 730 20G<273.5 364>
VStem: 6 93<454 516 435.5 556.5> 264 137 610 133<133 509 509 509>
LayerCount: 3
Fore
SplineSet
397 748 m 1
 406 133 l 1
 616 745 l 1
 743 745 l 1
 743 133 l 1
 962 745 l 1
 1032 745 l 1
 754 0 l 1
 610 0 l 1
 610 509 l 1
 408 0 l 1
 264 0 l 1
 264 683 l 1
 155 649 99 571 99 461 c 0
 99 410 112 402 113 393 c 1
 44 393 6 418 6 490 c 0
 6 623 190 750 357 750 c 0
 371 750 384 749 397 748 c 1
EndSplineSet
Substitution2: "'salt' Stylistic Alternatives in Latin lookup 6 subtable" W.salt
Substitution2: "'aalt' Access All Alternates in Latin lookup 0 subtable" W.salt
EndChar

StartChar: W.salt
Encoding: 1114120 -1 56
Width: 743
Flags: MW
HStem: -15 21G<114 169.5 335 466> 729 20G<179 222.5>
VStem: 398 87<357.5 555> 645 120<542.5 698 542.5 720.5>
LayerCount: 3
Fore
SplineSet
21 0 m 1
 179 749 l 1
 266 749 302 736 302 674 c 0
 302 657 299 635 294 609 c 2
 190 115 l 1
 290 194 398 402 398 555 c 1
 462 555 485 493 485 413 c 0
 485 302 441 156 400 90 c 1
 542 149 627 499 645 693 c 1
 645 698 l 2
 645 743 632 741 631 749 c 1
 700 745 765 743 765 637 c 0
 765 448 585 -15 347 -15 c 0
 323 -15 324 -10 300 -1 c 1
 320 77 349 124 369 217 c 1
 308 115 213 -15 126 -15 c 0
 102 -15 45 -9 21 0 c 1
EndSplineSet
EndChar

StartChar: X
Encoding: 88 88 57
Width: 620
Flags: MW
HStem: 0 21G<134 195 134 134 393 552 393 393> 730 20G<273.5 364>
VStem: 6 93<454 516 435.5 556.5>
LayerCount: 3
Fore
SplineSet
552 0 m 1
 393 0 l 1
 340 250 l 1
 195 0 l 1
 134 0 l 1
 322 332 l 1
 248 683 l 1
 155 649 99 571 99 461 c 0
 99 410 112 402 113 393 c 1
 44 393 6 418 6 490 c 0
 6 623 190 750 357 750 c 0
 371 750 384 749 397 748 c 1
 440 540 l 1
 556 745 l 1
 626 745 l 1
 458 454 l 1
 552 0 l 1
EndSplineSet
EndChar

StartChar: Y
Encoding: 89 89 58
Width: 620
Flags: MW
HStem: 0 21G<278 438 278 278> 730 20G<273.5 364>
VStem: 6 93<454 516 435.5 556.5>
LayerCount: 3
Fore
SplineSet
438 0 m 1
 278 0 l 1
 344 308 l 1
 248 683 l 1
 155 649 99 571 99 461 c 0
 99 410 112 402 113 393 c 1
 44 393 6 418 6 490 c 0
 6 623 190 750 357 750 c 0
 371 750 384 749 397 748 c 1
 484 390 l 1
 632 745 l 1
 698 745 l 1
 504 308 l 1
 438 0 l 1
EndSplineSet
EndChar

StartChar: Yacute
Encoding: 221 221 59
Width: 620
Flags: MW
HStem: 0 21G<278 438 278 278> 980 20G<558 663 663 663>
VStem: 6 93<454 516 435.5 556.5>
LayerCount: 3
Fore
SplineSet
438 0 m 1
 278 0 l 1
 344 308 l 1
 248 683 l 1
 155 649 99 571 99 461 c 0
 99 410 112 402 113 393 c 1
 44 393 6 418 6 490 c 0
 6 623 190 750 357 750 c 0
 371 750 384 749 397 748 c 1
 484 390 l 1
 632 745 l 1
 698 745 l 1
 504 308 l 1
 438 0 l 1
467 811 m 1
 558 1000 l 1
 663 1000 l 1
 542 811 l 1
 467 811 l 1
EndSplineSet
EndChar

StartChar: Z
Encoding: 90 90 60
Width: 530
Flags: MW
HStem: 0 56<337 364.5 337 372> 0 167<11 464> 599 151<125 552> 710 40<251.5 278.5>
VStem: 92 110<641 667.5 635.5 682.5> 386 111<97.5 125 83.5 129.5>
LayerCount: 3
Fore
SplineSet
404 78 m 1xac
 395 78 386 89 386 106 c 0
 386 153 418 167 450 167 c 0x6c
 478 167 497 141 497 109 c 0
 497 58 452 0 372 0 c 2
 11 0 l 1
 367 708 l 1
 344 709 290 710 267 710 c 0x9c
 236 710 185 706 185 688 c 1
 194 688 202 676 202 659 c 0
 202 612 171 599 139 599 c 0
 111 599 92 625 92 657 c 0
 92 708 129 750 209 750 c 2
 552 750 l 1
 204 58 l 1
 227 57 325 56 349 56 c 0
 380 56 404 60 404 78 c 1xac
EndSplineSet
EndChar

StartChar: a
Encoding: 97 97 61
Width: 503
Flags: MW
HStem: -20 20G<331.5 403> -6 83<58 186.5> -6 97 443 56<214.5 256 144 259> 480 20G<317 461 461 461>
VStem: -18 135<118 207>
LayerCount: 3
Fore
SplineSet
317 500 m 1x4c
 461 500 l 1
 389 160 l 2
 387 149 385 138 385 129 c 0
 385 107 395 91 435 91 c 0x2c
 475 91 527 147 567 179 c 1
 601 179 l 1
 555 133 442 0 364 0 c 0x94
 299 0 255 24 242 76 c 1
 212 35 167 -6 106 -6 c 0
 10 -6 -18 62 -18 121 c 0
 -18 293 44 499 244 499 c 0x34
 268 499 293 489 311 474 c 1
 317 500 l 1x4c
252 443 m 0x54
 177 443 117 284 117 148 c 0
 117 88 150 77 175 77 c 0
 198 77 220 99 239 127 c 1
 240 137 242 148 245 160 c 2
 301 425 l 1
 285 439 266 443 252 443 c 0x54
EndSplineSet
Substitution2: "Single Substitution lookup 8 subtable" a.fina
Substitution2: "'aalt' Access All Alternates in Latin lookup 0 subtable" a.fina
EndChar

StartChar: a.fina
Encoding: 1114121 -1 62
Width: 479
Flags: MW
HStem: -20 20G<312 358> -6 83<58 186.5> 443 56<214.5 256 144 259> 480 20G<317 460 460 460>
VStem: -18 135<118 207>
LayerCount: 3
Fore
SplineSet
460 500 m 1x58
 388 160 l 2
 385 148 383 137 383 126 c 0
 383 105 391 89 419 89 c 0
 426 89 437 89 445 92 c 1
 417 6 375 0 341 0 c 0x98
 283 0 252 30 242 76 c 1
 212 35 167 -6 106 -6 c 0
 10 -6 -18 62 -18 121 c 0
 -18 293 44 499 244 499 c 0x68
 268 499 293 489 311 474 c 1
 317 500 l 1
 460 500 l 1x58
245 160 m 2
 301 425 l 1
 285 439 266 443 252 443 c 0
 177 443 117 284 117 148 c 0
 117 88 150 77 175 77 c 0x68
 198 77 220 100 240 128 c 1
 240 138 242 149 245 160 c 2
EndSplineSet
EndChar

StartChar: a_s
Encoding: 1114122 -1 63
Width: 853
Flags: MW
HStem: -20 20G<328 377.5 582 674.5> -6 65 -6 83<58 186.5> -6 97 443 56<214.5 256 144 259> 500 20G
VStem: -18 135<118 207> 457 50<128 129.5 105.5 169.5> 457 153<128 214> 629 125 676 78 676 146<174 174 174 209>
LayerCount: 3
Fore
SplineSet
317 500 m 1x1f40
 460 500 l 1
 389 160 l 2
 386 145 384 133 384 123 c 0
 384 102 392 91 415 91 c 0
 426 91 441 105 457 128 c 1
 457 211 493 257 533 260 c 1
 569 325 592 414 609 490 c 1
 754 520 l 1
 754 506 l 2x1ec0
 754 341 821 291 822 174 c 1
 821 153 l 1
 849 178 874 204 886 218 c 1
 912 184 l 1
 884 162 844 127 804 93 c 1
 778 38 721 0 628 0 c 0
 536 0 482 21 464 79 c 1
 428 33 392 0 363 0 c 0x8f10
 293 0 255 30 243 78 c 1
 213 36 168 -6 106 -6 c 0
 10 -6 -18 62 -18 121 c 0
 -18 293 44 499 244 499 c 0
 268 499 293 489 311 474 c 1
 317 500 l 1x1f40
245 160 m 2
 301 425 l 1
 285 439 266 443 252 443 c 0
 177 443 117 284 117 148 c 0
 117 88 150 77 175 77 c 0x2ec0
 198 77 220 100 240 128 c 1
 240 138 242 149 245 160 c 2
610 199 m 0
 610 161 579 135 544 135 c 0
 532 135 521 138 509 143 c 1
 508 138 507 132 507 127 c 0
 507 84 554 59 593 59 c 0
 627 59 676 101 676 178 c 0x4f20
 676 240 631 293 629 418 c 1
 613 369 599 305 577 255 c 1
 601 247 610 229 610 199 c 0
EndSplineSet
Substitution2: "Single Substitution lookup 8 subtable" a_s.fina
Ligature2: "'liga' Standard Ligatures in Latin lookup 4 subtable" a s
Substitution2: "'aalt' Access All Alternates in Latin lookup 0 subtable" a_s.fina
EndChar

StartChar: a_s.fina
Encoding: 1114123 -1 64
Width: 840
Flags: MW
HStem: -20 20G<328 377.5 582 695.5> -6 65 -6 83<58 186.5> -6 97 443 56<214.5 256 144 259> 498 20G<749 749>
VStem: -18 135<118 207> 457 50<128 129.5 105.5 169> 457 153<128 214> 629 120 676 73 676 146<139.5 209>
LayerCount: 3
Fore
SplineSet
317 500 m 1x1b40
 460 500 l 1
 389 160 l 2
 386 145 384 133 384 123 c 0
 384 102 392 91 415 91 c 0
 426 91 441 105 457 128 c 1
 457 210 493 256 533 259 c 1
 567 324 587 412 604 488 c 1
 749 518 l 1
 749 504 l 2x16c0
 749 339 822 291 822 174 c 0
 822 81 763 0 628 0 c 0
 536 0 482 21 464 79 c 1
 428 33 392 0 363 0 c 0x8b10
 293 0 255 30 243 78 c 1
 213 36 168 -6 106 -6 c 0
 10 -6 -18 62 -18 121 c 0
 -18 293 44 499 244 499 c 0
 268 499 293 489 311 474 c 1
 317 500 l 1x1b40
245 160 m 2
 301 425 l 1
 285 439 266 443 252 443 c 0
 177 443 117 284 117 148 c 0
 117 88 150 77 175 77 c 0x2ac0
 198 77 220 100 240 128 c 1
 240 138 242 149 245 160 c 2
610 199 m 0
 609 161 579 135 544 135 c 0
 532 135 521 138 509 143 c 1
 508 138 507 132 507 127 c 0
 507 84 554 59 593 59 c 0
 627 59 676 101 676 178 c 0x4b20
 676 240 631 293 629 418 c 1
 613 369 599 305 577 255 c 1
 601 247 610 229 610 199 c 0
EndSplineSet
EndChar

StartChar: a_s_x
Encoding: 1114124 -1 65
Width: 1194
Flags: MW
HStem: -20 20G<328 377.5 582 674.5 985 1068> -6 65 -6 83<58 186.5> -6 97 443 56<214.5 256 144 259> 443 104
VStem: -18 135<118 207> 457 50<128 129.5 105.5 169.5> 457 153<128 214> 629 125 676 78 676 146<174 174 174 209> 1040 124<424.5 515> 1104 60
LayerCount: 3
Fore
SplineSet
806 500 m 1x4718
 951 500 l 1
 1002 295 l 1
 1052 337 1102 395 1104 444 c 1x26c4
 1098 443 1092 442 1087 442 c 0
 1053 442 1040 467 1040 498 c 0
 1040 532 1071 547 1108 547 c 0
 1147 547 1164 502 1164 457 c 0
 1164 392 1070 298 1015 246 c 1
 1038 155 l 2
 1048 114 1055 91 1100 91 c 0x1748
 1140 91 1192 147 1232 179 c 1
 1266 179 l 1
 1220 133 1107 0 1029 0 c 0
 941 0 916 24 891 155 c 1
 888 165 l 1
 864 144 834 118 804 93 c 1
 778 38 721 0 628 0 c 0
 536 0 482 21 464 79 c 1
 428 33 392 0 363 0 c 0x8748
 293 0 255 30 243 78 c 1
 213 36 168 -6 106 -6 c 0
 10 -6 -18 62 -18 121 c 0
 -18 293 44 499 244 499 c 0
 268 499 293 489 311 474 c 1
 317 500 l 1
 460 500 l 1
 389 160 l 2
 386 145 384 133 384 123 c 0
 384 102 392 91 415 91 c 0
 426 91 441 105 457 128 c 1
 457 211 493 257 533 260 c 1
 569 325 592 414 609 490 c 1
 754 520 l 1
 754 506 l 2x1ac8
 754 341 821 291 822 174 c 1
 821 153 l 1
 843 173 864 194 878 208 c 1
 806 500 l 1x4718
245 160 m 2
 301 425 l 1
 285 439 266 443 252 443 c 0
 177 443 117 284 117 148 c 0
 117 88 150 77 175 77 c 0
 198 77 220 100 240 128 c 1
 240 138 242 149 245 160 c 2
610 199 m 0
 610 161 579 135 544 135 c 0
 532 135 521 138 509 143 c 1
 508 138 507 132 507 127 c 0
 507 84 554 59 593 59 c 0
 627 59 676 101 676 178 c 0x4728
 676 240 631 293 629 418 c 1
 613 369 599 305 577 255 c 1
 601 247 610 229 610 199 c 0
EndSplineSet
Ligature2: "'liga' Standard Ligatures in Latin lookup 4 subtable" a s x
EndChar

StartChar: a_s_z
Encoding: 1114125 -1 66
Width: 1223
Flags: MW
HStem: -20 20G<328 377.5 582 695.5 793 793 793 1062> -6 46 -6 65 -6 83<58 186.5> -6 97 -6 157 460 39 498 20G<749 749>
VStem: -18 135<118 207> 457 50<128 129.5 105.5 169> 457 153<128 214> 629 120 676 73 676 146<139.5 209> 835 110<391 417.5 385.5 432.5> 1068 111<81.5 109 67.5 113.5>
LayerCount: 3
Fore
SplineSet
317 500 m 1x0ad3
 460 500 l 1
 389 160 l 2
 386 145 384 133 384 123 c 0
 384 102 392 91 415 91 c 0
 426 91 441 105 457 128 c 1
 457 210 493 256 533 259 c 1
 567 324 587 412 604 488 c 1
 749 518 l 1
 749 504 l 2x09b3
 749 339 822 291 822 174 c 0
 822 81 763 0 628 0 c 0
 536 0 482 21 464 79 c 1
 428 33 392 0 363 0 c 0x82c7
 293 0 255 30 243 78 c 1
 213 36 168 -6 106 -6 c 0
 10 -6 -18 62 -18 121 c 0
 -18 293 44 499 244 499 c 0
 268 499 293 489 311 474 c 1
 317 500 l 1x0ad3
1086 62 m 1
 1077 62 1068 73 1068 90 c 0
 1068 137 1100 151 1132 151 c 0x06d3
 1160 151 1179 125 1179 93 c 0
 1179 42 1142 0 1062 0 c 2
 793 0 l 1x82d3
 1056 458 l 1
 1033 459 1006 460 983 460 c 0
 952 460 928 456 928 438 c 1
 937 438 945 426 945 409 c 0
 945 362 914 349 882 349 c 0
 854 349 835 375 835 407 c 0
 835 458 872 500 952 500 c 2
 1221 500 l 1
 958 42 l 1
 981 41 1007 40 1031 40 c 0x42d3
 1062 40 1086 44 1086 62 c 1
245 160 m 2
 301 425 l 1
 285 439 266 443 252 443 c 0
 177 443 117 284 117 148 c 0
 117 88 150 77 175 77 c 0x12b3
 198 77 220 100 240 128 c 1
 240 138 242 149 245 160 c 2
610 199 m 0
 609 161 579 135 544 135 c 0
 532 135 521 138 509 143 c 1
 508 138 507 132 507 127 c 0
 507 84 554 59 593 59 c 0
 627 59 676 101 676 178 c 0x22cb
 676 240 631 293 629 418 c 1
 613 369 599 305 577 255 c 1
 601 247 610 229 610 199 c 0
EndSplineSet
Ligature2: "'liga' Standard Ligatures in Latin lookup 4 subtable" a s z
EndChar

StartChar: a_z
Encoding: 1114126 -1 67
Width: 886
Flags: MW
HStem: -20 20G<312 358 445 445 445 714> -6 46 -6 83<58 186.5> -6 157 349 150 443 56<214.5 256 144 259> 460 39 480 20G<317 460 460 460 604 873 873 873>
VStem: -18 135<118 207> 487 110<391 417.5 385.5 432.5> 720 111<81.5 109 67.5 113.5>
LayerCount: 3
Fore
SplineSet
460 500 m 1x41e0
 388 160 l 2
 385 148 383 137 383 126 c 0
 383 105 391 89 419 89 c 0
 426 89 437 89 445 92 c 1
 417 6 375 0 341 0 c 0x81e0
 283 0 252 30 242 76 c 1
 212 35 167 -6 106 -6 c 0
 10 -6 -18 62 -18 121 c 0
 -18 293 44 499 244 499 c 0x48e0
 268 499 293 489 311 474 c 1
 317 500 l 1
 460 500 l 1x41e0
738 62 m 1
 729 62 720 73 720 90 c 0
 720 137 752 151 784 151 c 0x18e0
 812 151 831 125 831 93 c 0
 831 42 794 0 714 0 c 2
 445 0 l 1
 708 458 l 1
 685 459 658 460 635 460 c 0x82e0
 604 460 580 456 580 438 c 1
 589 438 597 426 597 409 c 0
 597 362 566 349 534 349 c 0x48e0
 506 349 487 375 487 407 c 0
 487 458 524 500 604 500 c 2
 873 500 l 1
 610 42 l 1
 633 41 659 40 683 40 c 0x41e0
 714 40 738 44 738 62 c 1
245 160 m 2
 301 425 l 1
 285 439 266 443 252 443 c 0
 177 443 117 284 117 148 c 0
 117 88 150 77 175 77 c 0x24e0
 198 77 220 100 240 128 c 1
 240 136 242 149 245 160 c 2
EndSplineSet
Ligature2: "'liga' Standard Ligatures in Latin lookup 4 subtable" a z
EndChar

StartChar: aacute
Encoding: 225 225 68
Width: 489
Flags: MW
HStem: -20 20G<331.5 403> -6 83<58 186.5> -6 97 443 56<214.5 256 144 259> 730 20G<338 443 443 443>
VStem: -18 135<118 207>
LayerCount: 3
Fore
SplineSet
317 500 m 1x3c
 461 500 l 1
 389 160 l 2
 387 149 385 138 385 129 c 0
 385 107 395 91 435 91 c 0x3c
 475 91 527 147 567 179 c 1
 601 179 l 1
 555 133 442 0 364 0 c 0x9c
 299 0 255 24 242 76 c 1
 212 35 167 -6 106 -6 c 0
 10 -6 -18 62 -18 121 c 0
 -18 293 44 499 244 499 c 0
 268 499 293 489 311 474 c 1
 317 500 l 1x3c
252 443 m 0
 177 443 117 284 117 148 c 0
 117 88 150 77 175 77 c 0x5c
 198 77 220 99 239 127 c 1
 240 137 242 148 245 160 c 2
 301 425 l 1
 285 439 266 443 252 443 c 0
247 561 m 1
 338 750 l 1
 443 750 l 1
 322 561 l 1
 247 561 l 1
EndSplineSet
Substitution2: "Single Substitution lookup 8 subtable" aacute.fina
Substitution2: "'aalt' Access All Alternates in Latin lookup 0 subtable" aacute.fina
EndChar

StartChar: aacute.fina
Encoding: 1114127 -1 69
Width: 489
Flags: MW
HStem: -20 20G<312 358> -6 83<58 186.5> 443 56<214.5 256 144 259> 730 20G<333 438 438 438>
VStem: -18 135<118 207>
LayerCount: 3
Fore
SplineSet
460 500 m 1x78
 388 160 l 2
 385 148 383 137 383 126 c 0
 383 105 391 89 419 89 c 0
 426 89 437 89 445 92 c 1
 417 6 375 0 341 0 c 0xb8
 283 0 252 30 242 76 c 1
 212 35 167 -6 106 -6 c 0
 10 -6 -18 62 -18 121 c 0
 -18 293 44 499 244 499 c 0
 268 499 293 489 311 474 c 1
 317 500 l 1
 460 500 l 1x78
245 160 m 2
 301 425 l 1
 285 439 266 443 252 443 c 0
 177 443 117 284 117 148 c 0
 117 88 150 77 175 77 c 0x78
 198 77 220 100 240 128 c 1
 240 138 242 149 245 160 c 2
242 561 m 1
 333 750 l 1
 438 750 l 1
 317 561 l 1
 242 561 l 1
EndSplineSet
EndChar

StartChar: aacute.old
Encoding: 1114128 -1 70
Width: 201
Flags: MW
HStem: 561 189<83 249 144 158>
LayerCount: 3
Fore
SplineSet
83 561 m 1
 144 750 l 1
 249 750 l 1
 158 561 l 1
 83 561 l 1
EndSplineSet
EndChar

StartChar: aacute_s
Encoding: 1114129 -1 71
Width: 877
Flags: MW
HStem: -20 20G<328 377.5 582 674.5> -6 65 -6 83<58 186.5> -6 97 443 56<214.5 256 144 259> 730 20G<333 438 438 438>
VStem: -18 135<118 207> 457 50<128 129.5 105.5 169.5> 457 153<128 214> 629 125 676 78 676 146<174 174 174 209>
LayerCount: 3
Fore
SplineSet
317 500 m 1x1f40
 460 500 l 1
 389 160 l 2
 386 145 384 133 384 123 c 0
 384 102 392 91 415 91 c 0
 426 91 441 105 457 128 c 1
 457 211 493 257 533 260 c 1
 569 325 592 414 609 490 c 1
 754 520 l 1
 754 506 l 2x1ec0
 754 341 821 291 822 174 c 1
 821 153 l 1
 849 178 874 204 886 218 c 1
 912 184 l 1
 884 162 844 127 804 93 c 1
 778 38 721 0 628 0 c 0
 536 0 482 21 464 79 c 1
 428 33 392 0 363 0 c 0x8f10
 293 0 255 30 243 78 c 1
 213 36 168 -6 106 -6 c 0
 10 -6 -18 62 -18 121 c 0
 -18 293 44 499 244 499 c 0
 268 499 293 489 311 474 c 1
 317 500 l 1x1f40
245 160 m 2
 301 425 l 1
 285 439 266 443 252 443 c 0
 177 443 117 284 117 148 c 0
 117 88 150 77 175 77 c 0x2ec0
 198 77 220 100 240 128 c 1
 240 138 242 149 245 160 c 2
610 199 m 0
 610 161 579 135 544 135 c 0
 532 135 521 138 509 143 c 1
 508 138 507 132 507 127 c 0
 507 84 554 59 593 59 c 0
 627 59 676 101 676 178 c 0x4f20
 676 240 631 293 629 418 c 1
 613 369 599 305 577 255 c 1
 601 247 610 229 610 199 c 0
242 561 m 1
 333 750 l 1
 438 750 l 1
 317 561 l 1
 242 561 l 1
EndSplineSet
Substitution2: "Single Substitution lookup 8 subtable" aacute_s.fina
Ligature2: "'liga' Standard Ligatures in Latin lookup 4 subtable" aacute s
Substitution2: "'aalt' Access All Alternates in Latin lookup 0 subtable" aacute_s.fina
EndChar

StartChar: aacute_s.fina
Encoding: 1114130 -1 72
Width: 841
Flags: MW
HStem: -20 20G<328 377.5 582 695.5> -6 65 -6 83<58 186.5> -6 97 443 56<214.5 256 144 259> 730 20G<333 438 438 438>
VStem: -18 135<118 207> 457 50<128 129.5 105.5 169> 457 153<128 214> 629 120 676 73 676 146<139.5 209>
LayerCount: 3
Fore
SplineSet
317 500 m 1x1f40
 460 500 l 1
 389 160 l 2
 386 145 384 133 384 123 c 0
 384 102 392 91 415 91 c 0
 426 91 441 105 457 128 c 1
 457 210 493 256 533 259 c 1
 567 324 587 412 604 488 c 1
 749 518 l 1
 749 504 l 2x1ec0
 749 339 822 291 822 174 c 0
 822 81 763 0 628 0 c 0
 536 0 482 21 464 79 c 1
 428 33 392 0 363 0 c 0x8f10
 293 0 255 30 243 78 c 1
 213 36 168 -6 106 -6 c 0
 10 -6 -18 62 -18 121 c 0
 -18 293 44 499 244 499 c 0
 268 499 293 489 311 474 c 1
 317 500 l 1x1f40
245 160 m 2
 301 425 l 1
 285 439 266 443 252 443 c 0
 177 443 117 284 117 148 c 0
 117 88 150 77 175 77 c 0x2ec0
 198 77 220 100 240 128 c 1
 240 138 242 149 245 160 c 2
610 199 m 0
 609 161 579 135 544 135 c 0
 532 135 521 138 509 143 c 1
 508 138 507 132 507 127 c 0
 507 84 554 59 593 59 c 0
 627 59 676 101 676 178 c 0x4f20
 676 240 631 293 629 418 c 1
 613 369 599 305 577 255 c 1
 601 247 610 229 610 199 c 0
242 561 m 1
 333 750 l 1
 438 750 l 1
 317 561 l 1
 242 561 l 1
EndSplineSet
EndChar

StartChar: aacute_s_x
Encoding: 1114131 -1 73
Width: 1194
Flags: MW
HStem: -20 20G<328 377.5 582 674.5 985 1068> -6 65 -6 83<58 186.5> -6 97 443 56<214.5 256 144 259> 443 104 730 20G<333 438 438 438>
VStem: -18 135<118 207> 457 50<128 129.5 105.5 169.5> 457 153<128 214> 629 125 676 78 676 146<174 174 174 209> 1040 124<424.5 515> 1104 60
LayerCount: 3
Fore
SplineSet
806 500 m 1x478c
 951 500 l 1
 1002 295 l 1
 1052 337 1102 395 1104 444 c 1x2762
 1098 443 1092 442 1087 442 c 0
 1053 442 1040 467 1040 498 c 0
 1040 532 1071 547 1108 547 c 0
 1147 547 1164 502 1164 457 c 0
 1164 392 1070 298 1015 246 c 1
 1038 155 l 2
 1048 114 1055 91 1100 91 c 0x17a4
 1140 91 1192 147 1232 179 c 1
 1266 179 l 1
 1220 133 1107 0 1029 0 c 0
 941 0 916 24 891 155 c 1
 888 165 l 1
 864 144 834 118 804 93 c 1
 778 38 721 0 628 0 c 0
 536 0 482 21 464 79 c 1
 428 33 392 0 363 0 c 0x87a4
 293 0 255 30 243 78 c 1
 213 36 168 -6 106 -6 c 0
 10 -6 -18 62 -18 121 c 0
 -18 293 44 499 244 499 c 0
 268 499 293 489 311 474 c 1
 317 500 l 1
 460 500 l 1
 389 160 l 2
 386 145 384 133 384 123 c 0
 384 102 392 91 415 91 c 0
 426 91 441 105 457 128 c 1
 457 211 493 257 533 260 c 1
 569 325 592 414 609 490 c 1
 754 520 l 1
 754 506 l 2x1b64
 754 341 821 291 822 174 c 1
 821 153 l 1
 843 173 864 194 878 208 c 1
 806 500 l 1x478c
245 160 m 2
 301 425 l 1
 285 439 266 443 252 443 c 0
 177 443 117 284 117 148 c 0
 117 88 150 77 175 77 c 0
 198 77 220 100 240 128 c 1
 240 138 242 149 245 160 c 2
610 199 m 0
 610 161 579 135 544 135 c 0
 532 135 521 138 509 143 c 1
 508 138 507 132 507 127 c 0
 507 84 554 59 593 59 c 0
 627 59 676 101 676 178 c 0x4794
 676 240 631 293 629 418 c 1
 613 369 599 305 577 255 c 1
 601 247 610 229 610 199 c 0
242 561 m 1
 333 750 l 1
 438 750 l 1
 317 561 l 1
 242 561 l 1
EndSplineSet
Ligature2: "'liga' Standard Ligatures in Latin lookup 4 subtable" aacute s x
EndChar

StartChar: aacute_s_z
Encoding: 1114132 -1 74
Width: 1199
Flags: MW
HStem: -20 20G<328 377.5 582 695.5 793 793 793 1062> -6 46 -6 65 -6 83<58 186.5> -6 97 -6 157 460 39 730 20G<333 438 438 438>
VStem: -18 135<118 207> 457 50<128 129.5 105.5 169> 457 153<128 214> 629 120 676 73 676 146<139.5 209> 835 110<391 417.5 385.5 432.5> 1068 111<81.5 109 67.5 113.5>
LayerCount: 3
Fore
SplineSet
317 500 m 1x0bd3
 460 500 l 1
 389 160 l 2
 386 145 384 133 384 123 c 0
 384 102 392 91 415 91 c 0
 426 91 441 105 457 128 c 1
 457 210 493 256 533 259 c 1
 567 324 587 412 604 488 c 1
 749 518 l 1
 749 504 l 2x0bb3
 749 339 822 291 822 174 c 0
 822 81 763 0 628 0 c 0
 536 0 482 21 464 79 c 1
 428 33 392 0 363 0 c 0x83c7
 293 0 255 30 243 78 c 1
 213 36 168 -6 106 -6 c 0
 10 -6 -18 62 -18 121 c 0
 -18 293 44 499 244 499 c 0
 268 499 293 489 311 474 c 1
 317 500 l 1x0bd3
1086 62 m 1
 1077 62 1068 73 1068 90 c 0
 1068 137 1100 151 1132 151 c 0x07d3
 1160 151 1179 125 1179 93 c 0
 1179 42 1142 0 1062 0 c 2
 793 0 l 1x83d3
 1056 458 l 1
 1033 459 1006 460 983 460 c 0
 952 460 928 456 928 438 c 1
 937 438 945 426 945 409 c 0
 945 362 914 349 882 349 c 0
 854 349 835 375 835 407 c 0
 835 458 872 500 952 500 c 2
 1221 500 l 1
 958 42 l 1
 981 41 1007 40 1031 40 c 0x43d3
 1062 40 1086 44 1086 62 c 1
245 160 m 2
 301 425 l 1
 285 439 266 443 252 443 c 0
 177 443 117 284 117 148 c 0
 117 88 150 77 175 77 c 0x13b3
 198 77 220 100 240 128 c 1
 240 138 242 149 245 160 c 2
610 199 m 0
 609 161 579 135 544 135 c 0
 532 135 521 138 509 143 c 1
 508 138 507 132 507 127 c 0
 507 84 554 59 593 59 c 0
 627 59 676 101 676 178 c 0x23cb
 676 240 631 293 629 418 c 1
 613 369 599 305 577 255 c 1
 601 247 610 229 610 199 c 0
242 561 m 1
 333 750 l 1
 438 750 l 1
 317 561 l 1
 242 561 l 1
EndSplineSet
Ligature2: "'liga' Standard Ligatures in Latin lookup 4 subtable" aacute s z
EndChar

StartChar: acircumflex
Encoding: 226 226 75
Width: 503
Flags: MW
HStem: -20 20G<331.5 403> -6 83<58 186.5> 443 56<214.5 256 144 259> 499 62<149 193 149 256> 730 20G<361 382 382 382>
VStem: -18 135<118 207>
LayerCount: 3
Fore
SplineSet
317 500 m 1x6c
 461 500 l 1
 389 160 l 2
 387 149 385 138 385 129 c 0
 385 107 395 91 435 91 c 0
 475 91 527 147 567 179 c 1
 601 179 l 1
 555 133 442 0 364 0 c 0xac
 299 0 255 24 242 76 c 1
 212 35 167 -6 106 -6 c 0
 10 -6 -18 62 -18 121 c 0
 -18 293 44 499 244 499 c 0
 268 499 293 489 311 474 c 1
 317 500 l 1x6c
252 443 m 0
 177 443 117 284 117 148 c 0
 117 88 150 77 175 77 c 0x6c
 198 77 220 99 239 127 c 1
 240 137 242 148 245 160 c 2
 301 425 l 1
 285 439 266 443 252 443 c 0
442 561 m 1x5c
 410 561 l 1
 350 641 l 1
 193 561 l 1
 149 561 l 1
 361 750 l 1
 382 750 l 1
 442 561 l 1x5c
EndSplineSet
EndChar

StartChar: acute
Encoding: 180 180 76
Width: 201
Flags: MW
HStem: 561 21G<83 83 83 158> 730 20G<174 279 279 279>
LayerCount: 3
Fore
SplineSet
83 561 m 1
 174 750 l 1
 279 750 l 1
 158 561 l 1
 83 561 l 1
EndSplineSet
EndChar

StartChar: adieresis
Encoding: 228 228 77
Width: 503
Flags: MW
HStem: -20 20G<331.5 403> -6 83<58 186.5> -6 97 443 56<214.5 256 144 259> 573 122<190 223.5 370 403.5>
VStem: -18 135<118 207> 146 122<617 650.5> 326 122<617 650.5>
LayerCount: 3
Fore
SplineSet
317 500 m 1x3f
 461 500 l 1
 389 160 l 2
 387 149 385 138 385 129 c 0
 385 107 395 91 435 91 c 0x3f
 475 91 527 147 567 179 c 1
 601 179 l 1
 555 133 442 0 364 0 c 0x9f
 299 0 255 24 242 76 c 1
 212 35 167 -6 106 -6 c 0
 10 -6 -18 62 -18 121 c 0
 -18 293 44 499 244 499 c 0
 268 499 293 489 311 474 c 1
 317 500 l 1x3f
252 443 m 0
 177 443 117 284 117 148 c 0
 117 88 150 77 175 77 c 0x5f
 198 77 220 99 239 127 c 1
 240 137 242 148 245 160 c 2
 301 425 l 1
 285 439 266 443 252 443 c 0
146 634 m 0
 146 667 173 695 207 695 c 0
 240 695 268 667 268 634 c 0
 268 600 240 573 207 573 c 0
 173 573 146 600 146 634 c 0
326 634 m 0
 326 667 353 695 387 695 c 0
 420 695 448 667 448 634 c 0
 448 600 420 573 387 573 c 0
 353 573 326 600 326 634 c 0
EndSplineSet
EndChar

StartChar: ae
Encoding: 230 230 78
Width: 625
Flags: MW
HStem: -6 21G<58 143.5> 0 72<449.5 464.5> 0 249 443 56<214.5 261.5> 456 43 489 20G<454 529>
VStem: -18 135<118 207> 252 135<147 159 159 164 125 194.5> 556 60<400 410.5>
LayerCount: 3
Fore
SplineSet
106 -6 m 0x9380
 10 -6 -18 62 -18 121 c 0
 -18 293 44 499 244 499 c 0x9380
 287 499 334 466 335 433 c 1
 371 478 420 509 488 509 c 0
 570 509 616 475 616 405 c 0
 616 283 485 213 390 201 c 1
 388 185 387 170 387 158 c 0
 387 92 430 72 469 72 c 0
 518 72 602 130 637 204 c 1
 682 204 l 1
 625 101 529 0 400 0 c 0x4780
 326 0 278 43 260 102 c 1
 231 55 181 -6 106 -6 c 0x9380
252 443 m 0
 177 443 117 284 117 148 c 0
 117 88 150 77 175 77 c 0
 203 77 229 111 252 147 c 1
 252 159 l 2
 252 230 269 332 316 407 c 1
 299 436 271 443 252 443 c 0
556 400 m 0
 556 421 551 456 521 456 c 0
 465 456 419 343 398 249 c 1x2b80
 490 250 555 329 556 400 c 0
EndSplineSet
EndChar

StartChar: agrave
Encoding: 224 224 79
Width: 503
Flags: MW
HStem: -20 20G<331.5 403> -6 83<58 186.5> -6 97 443 56<214.5 256 144 259> 561 189<243 243 243 289 184 318>
VStem: -18 135<118 207>
LayerCount: 3
Fore
SplineSet
317 500 m 1x3c
 461 500 l 1
 389 160 l 2
 387 149 385 138 385 129 c 0
 385 107 395 91 435 91 c 0x3c
 475 91 527 147 567 179 c 1
 601 179 l 1
 555 133 442 0 364 0 c 0x9c
 299 0 255 24 242 76 c 1
 212 35 167 -6 106 -6 c 0
 10 -6 -18 62 -18 121 c 0
 -18 293 44 499 244 499 c 0
 268 499 293 489 311 474 c 1
 317 500 l 1x3c
252 443 m 0
 177 443 117 284 117 148 c 0
 117 88 150 77 175 77 c 0x5c
 198 77 220 99 239 127 c 1
 240 137 242 148 245 160 c 2
 301 425 l 1
 285 439 266 443 252 443 c 0
243 561 m 1
 184 750 l 1
 289 750 l 1
 318 561 l 1
 243 561 l 1
EndSplineSet
EndChar

StartChar: aring
Encoding: 229 229 80
Width: 503
Flags: MW
HStem: -20 20G<331.5 403> -6 83<58 186.5> -6 97 443 56<214.5 256 144 259> 557 35<301 328.5 301 340> 685 33<308.5 342>
VStem: -18 135<118 207> 239 40<618 641.5 618 645> 359 37<624 647.5>
LayerCount: 3
Fore
SplineSet
317 500 m 1x3f80
 461 500 l 1
 389 160 l 2
 387 149 385 138 385 129 c 0
 385 107 395 91 435 91 c 0x3f80
 475 91 527 147 567 179 c 1
 601 179 l 1
 555 133 442 0 364 0 c 0x9f80
 299 0 255 24 242 76 c 1
 212 35 167 -6 106 -6 c 0
 10 -6 -18 62 -18 121 c 0
 -18 293 44 499 244 499 c 0
 268 499 293 489 311 474 c 1
 317 500 l 1x3f80
252 443 m 0
 177 443 117 284 117 148 c 0
 117 88 150 77 175 77 c 0x5f80
 198 77 220 99 239 127 c 1
 240 137 242 148 245 160 c 2
 301 425 l 1
 285 439 266 443 252 443 c 0
324 718 m 0
 373 718 396 684 396 641 c 0
 396 597 371 557 309 557 c 0
 266 557 239 589 239 627 c 0
 239 663 264 718 324 718 c 0
359 638 m 0
 359 657 358 685 326 685 c 0
 291 685 279 654 279 629 c 0
 279 607 289 592 313 592 c 0
 344 592 359 610 359 638 c 0
EndSplineSet
EndChar

StartChar: asciicircum
Encoding: 94 94 81
Width: 421
Flags: MW
HStem: 561 21G<50 94 50 50 311 343 311 311> 730 20G<262 283 283 283>
LayerCount: 3
Fore
SplineSet
343 561 m 1
 311 561 l 1
 251 641 l 1
 94 561 l 1
 50 561 l 1
 262 750 l 1
 283 750 l 1
 343 561 l 1
EndSplineSet
EndChar

StartChar: at
Encoding: 64 64 82
Width: 562
Flags: MW
HStem: -38 90<171 211> 121 69 136 54<343 362.5> 390 42<271 296.5 243.5 297> 493 64<268 352 256.5 366.5>
VStem: -8 110<130.5 256.5 130.5 293.5> 154 65<200.5 222> 424 67<385.5 435>
LayerCount: 3
Fore
SplineSet
394 99 m 0xdf
 404 91 407 85 407 82 c 0
 407 77 404 74 402 71 c 0
 349 -9 249 -38 173 -38 c 0
 87 -38 -8 15 -8 152 c 0
 -8 435 201 557 312 557 c 0
 392 557 491 538 491 412 c 0
 491 262 406 136 319 136 c 0xbf
 303 136 293 139 285 144 c 1
 272 132 240 121 207 121 c 0
 175 121 154 166 154 199 c 0
 154 245 197 432 290 432 c 0
 303 432 316 425 323 415 c 1
 327 430 l 1
 383 424 l 1
 338 232 l 2
 336 224 334 216 334 209 c 0
 334 196 339 190 347 190 c 0
 388 190 424 359 424 412 c 0
 424 458 409 493 324 493 c 0
 212 493 102 350 102 163 c 0
 102 98 138 52 204 52 c 0
 266 52 316 67 347 98 c 0
 353 104 362 111 370 111 c 0
 377 111 389 103 394 99 c 0xdf
270 185 m 1
 270 195 l 2
 270 201 270 208 273 216 c 2
 315 383 l 1
 309 389 300 390 294 390 c 0
 248 390 219 265 219 212 c 0
 219 189 223 180 255 180 c 0
 260 180 265 182 270 185 c 1
EndSplineSet
EndChar

StartChar: atilde
Encoding: 227 227 83
Width: 503
Flags: MW
HStem: -20 20G<331.5 403> -6 83<58 186.5> -6 97 443 56<214.5 256 144 259> 569 78<292 429.5> 606 74<144 288.5>
VStem: -18 135<118 207>
LayerCount: 3
Fore
SplineSet
317 500 m 1x3a
 461 500 l 1
 389 160 l 2
 387 149 385 138 385 129 c 0
 385 107 395 91 435 91 c 0x3a
 475 91 527 147 567 179 c 1
 601 179 l 1
 555 133 442 0 364 0 c 0x9a
 299 0 255 24 242 76 c 1
 212 35 167 -6 106 -6 c 0
 10 -6 -18 62 -18 121 c 0
 -18 293 44 499 244 499 c 0
 268 499 293 489 311 474 c 1
 317 500 l 1x3a
252 443 m 0
 177 443 117 284 117 148 c 0
 117 88 150 77 175 77 c 0x5a
 198 77 220 99 239 127 c 1
 240 137 242 148 245 160 c 2
 301 425 l 1
 285 439 266 443 252 443 c 0
480 670 m 1
 486 669 l 1
 475 622 401 569 325 569 c 0x5a
 259 569 212 606 157 606 c 0
 131 606 109 597 91 580 c 1
 85 582 l 1
 117 646 176 680 252 680 c 0x56
 325 680 359 647 417 647 c 0
 442 647 466 655 480 670 c 1
EndSplineSet
EndChar

StartChar: b
Encoding: 98 98 84
Width: 430
Flags: MW
HStem: -3 71<153 209 153 236.5> 442 60<238 333> 680 20G
VStem: -18 142<90 111.5 90 118> 300 112<332 398>
LayerCount: 3
Fore
SplineSet
99 680 m 1
 247 700 l 1
 199 473 l 1
 222 490 252 502 285 502 c 0
 381 502 412 434 412 375 c 0
 412 218 326 -3 147 -3 c 0
 48 -3 -18 25 -18 111 c 0
 -18 125 -16 142 -12 160 c 2
 99 680 l 1
300 368 m 0
 300 428 268 442 243 442 c 0
 233 442 198 435 189 428 c 1
 132 160 l 2
 127 136 124 118 124 105 c 0
 124 75 138 68 168 68 c 0
 250 68 300 296 300 368 c 0
EndSplineSet
EndChar

StartChar: b_s
Encoding: 1114133 -1 85
Width: 795
Flags: MW
HStem: -20 20G<517.5 606> -3 62 128 131<501.5 514.5> 442 60<238 333> 680 20G
VStem: -18 142<90 111.5 90 118> 300 112<365 398> 410 48<101 123 101 168> 410 157<70 219> 573 110 613 134<168.5 208>
LayerCount: 3
Fore
SplineSet
99 680 m 1x7e40
 247 700 l 1
 199 473 l 1
 222 490 252 502 285 502 c 0
 381 502 412 434 412 375 c 0
 412 355 410 334 408 313 c 1
 453 348 501 400 548 483 c 1
 683 513 l 1
 683 495 l 2x7e40
 683 333 747 290 747 174 c 0
 747 163 747 153 745 142 c 1
 776 169 809 201 830 226 c 1
 856 184 l 1
 823 147 770 108 722 71 c 1
 695 28 646 0 566 0 c 0
 469 0 410 29 410 111 c 0
 410 225 488 259 515 259 c 0
 553 259 567 239 567 199 c 0xbca0
 567 161 533 128 496 128 c 0
 484 128 472 131 461 140 c 1
 459 133 458 126 458 120 c 0
 458 82 487 59 536 59 c 0
 570 59 613 101 613 177 c 0x7d20
 613 239 575 293 573 418 c 1
 533 362 460 292 395 245 c 1
 361 118 280 -3 147 -3 c 0
 48 -3 -18 25 -18 111 c 0
 -18 125 -16 142 -12 160 c 2
 99 680 l 1x7e40
300 368 m 0
 300 428 268 442 243 442 c 0
 233 442 198 435 189 428 c 1
 132 160 l 2
 127 136 124 118 124 105 c 0
 124 75 138 68 168 68 c 0
 218 68 257 155 279 238 c 1
 270 246 266 258 266 270 c 0
 266 294 278 319 297 333 c 1
 299 347 300 359 300 368 c 0
EndSplineSet
Substitution2: "Single Substitution lookup 8 subtable" b_s.fina
Ligature2: "'liga' Standard Ligatures in Latin lookup 4 subtable" b s
Substitution2: "'aalt' Access All Alternates in Latin lookup 0 subtable" b_s.fina
EndChar

StartChar: b_s.fina
Encoding: 1114134 -1 86
Width: 770
Flags: MW
HStem: -20 20G<517.5 633.5> -3 62 128 131<501.5 514.5> 442 60<238 333> 680 20G
VStem: -18 142<90 111.5 90 118> 300 112<365 398> 410 48<101 123 101 168> 410 157<70 219> 573 110 613 134<139 208>
LayerCount: 3
Fore
SplineSet
99 680 m 1x7e40
 247 700 l 1
 199 473 l 1
 222 490 252 502 285 502 c 0
 381 502 412 434 412 375 c 0
 412 355 410 334 408 313 c 1
 453 348 501 400 548 483 c 1
 683 513 l 1
 683 495 l 2x7e40
 683 333 747 290 747 174 c 0
 747 81 701 0 566 0 c 0
 469 0 410 29 410 111 c 0
 410 225 488 259 515 259 c 0
 553 259 567 239 567 199 c 0xbca0
 567 161 533 128 496 128 c 0
 484 128 472 131 461 140 c 1
 459 133 458 126 458 120 c 0
 458 82 487 59 536 59 c 0
 570 59 613 101 613 177 c 0x7d20
 613 239 575 293 573 418 c 1
 533 362 460 292 395 245 c 1
 361 118 280 -3 147 -3 c 0
 48 -3 -18 25 -18 111 c 0
 -18 125 -16 142 -12 160 c 2
 99 680 l 1x7e40
300 368 m 0
 300 428 268 442 243 442 c 0
 233 442 198 435 189 428 c 1
 132 160 l 2
 127 136 124 118 124 105 c 0
 124 75 138 68 168 68 c 0
 218 68 257 155 279 238 c 1
 270 246 266 258 266 270 c 0
 266 294 278 319 297 333 c 1
 299 347 300 359 300 368 c 0
EndSplineSet
EndChar

StartChar: b_s_x
Encoding: 1114135 -1 87
Width: 1122
Flags: MW
HStem: -20 20G<523 611 945 1028> -3 62 -3 94 128 133<495 519.5> 442 60<238 333> 442 105<1030 1087.5> 680 20G
VStem: -18 142<90 111.5 90 118> 300 112<364.5 398> 411 54<106 127.5 106 163.5> 411 161<82 222> 578 110 619 146<168 208> 1000 124<424.5 515> 1064 60
LayerCount: 3
Fore
SplineSet
99 680 m 1x5b94
 247 700 l 1
 199 473 l 1
 222 490 252 502 285 502 c 0
 381 502 412 434 412 375 c 0
 412 354 410 331 407 309 c 1
 454 344 504 397 553 483 c 1
 688 513 l 1x5b94
 688 336 765 294 765 174 c 0
 765 162 764 150 762 139 c 1
 789 162 818 190 837 210 c 1
 766 500 l 1
 911 500 l 1
 962 295 l 1
 1012 337 1062 395 1064 444 c 1x5b8a
 1058 443 1052 442 1047 442 c 0
 1013 442 1000 467 1000 498 c 0
 1000 532 1031 547 1068 547 c 0
 1107 547 1124 502 1124 457 c 0
 1124 392 1030 298 975 246 c 1
 998 155 l 2
 1008 114 1015 91 1060 91 c 0x3794
 1100 91 1152 147 1192 179 c 1
 1226 179 l 1
 1180 133 1067 0 989 0 c 0
 901 0 876 24 851 155 c 1
 848 168 l 1
 814 139 772 102 735 72 c 1
 705 29 651 0 571 0 c 0
 475 0 411 44 411 120 c 0
 411 207 467 261 499 261 c 0
 551 261 572 245 572 199 c 0x9b34
 572 161 538 128 501 128 c 0
 489 128 477 131 466 140 c 1
 465 135 465 130 465 125 c 0
 465 87 490 59 541 59 c 0
 575 59 619 100 619 177 c 0x5b4c
 619 239 580 293 578 418 c 1
 536 359 462 284 392 237 c 1
 358 113 277 -3 147 -3 c 0
 48 -3 -18 25 -18 111 c 0
 -18 125 -16 142 -12 160 c 2
 99 680 l 1x5b94
300 368 m 0
 300 428 268 442 243 442 c 0
 233 442 198 435 189 428 c 1
 132 160 l 2
 127 136 124 118 124 105 c 0
 124 75 138 68 168 68 c 0
 250 68 300 296 300 368 c 0
EndSplineSet
Ligature2: "'liga' Standard Ligatures in Latin lookup 4 subtable" b s x
EndChar

StartChar: b_s_z
Encoding: 1114136 -1 88
Width: 1180
Flags: MW
HStem: -20 20G<527 642.5 735 735 735 1004> -3 43 -3 62 -3 154 128 133<499 523.5> 349 153 442 60<238 333> 460 42 680 20G
VStem: -18 142<90 111.5 90 118> 300 112<364 398> 415 54<106 127.5 106 163.5> 415 161<82 222> 582 110 622 134<138.5 208> 777 110<391 417.5 385.5 432.5> 1010 111<81.5 109 67.5 113.5>
LayerCount: 3
Fore
SplineSet
99 680 m 1x2cf580
 247 700 l 1
 199 473 l 1
 222 490 252 502 285 502 c 0
 381 502 412 434 412 375 c 0
 412 353 410 329 407 305 c 1
 455 340 507 394 557 483 c 1
 692 513 l 1x4cf580
 692 336 756 294 756 174 c 0
 756 81 710 0 575 0 c 0
 479 0 415 44 415 120 c 0
 415 207 471 261 503 261 c 0
 555 261 576 245 576 199 c 0x8ceb80
 576 161 542 128 505 128 c 0
 493 128 481 131 470 140 c 1
 469 135 469 130 469 125 c 0
 469 87 494 59 545 59 c 0
 579 59 622 100 622 177 c 0x2cf380
 622 239 584 293 582 418 c 1
 539 358 462 280 391 234 c 1
 356 111 275 -3 147 -3 c 0
 48 -3 -18 25 -18 111 c 0
 -18 125 -16 142 -12 160 c 2
 99 680 l 1x2cf580
1028 62 m 1
 1019 62 1010 73 1010 90 c 0
 1010 137 1042 151 1074 151 c 0x12f580
 1102 151 1121 125 1121 93 c 0
 1121 42 1084 0 1004 0 c 2
 735 0 l 1
 998 458 l 1
 975 459 948 460 925 460 c 0x89f580
 894 460 870 456 870 438 c 1
 879 438 887 426 887 409 c 0
 887 362 856 349 824 349 c 0
 796 349 777 375 777 407 c 0
 777 458 814 500 894 500 c 2
 1163 500 l 1
 900 42 l 1
 923 41 949 40 973 40 c 0
 1004 40 1028 44 1028 62 c 1
300 368 m 0
 300 428 268 442 243 442 c 0
 233 442 198 435 189 428 c 1
 132 160 l 2
 127 136 124 118 124 105 c 0
 124 75 138 68 168 68 c 0
 250 68 300 296 300 368 c 0
EndSplineSet
Ligature2: "'liga' Standard Ligatures in Latin lookup 4 subtable" b s z
EndChar

StartChar: c
Encoding: 99 99 89
Width: 360
Flags: MW
HStem: 0 85<164.5 212.5> 463 40<218 271>
VStem: -13 135<162.5 237> 297 57<428.5 441>
LayerCount: 3
Fore
SplineSet
292 401 m 1
 295 412 297 421 297 429 c 0
 297 453 282 463 260 463 c 0
 176 463 122 300 122 192 c 0
 122 133 134 85 195 85 c 0
 266 85 323 127 369 179 c 1
 403 179 l 1
 355 125 301 0 124 0 c 0
 41 0 -13 46 -13 164 c 0
 -13 310 50 503 244 503 c 0
 298 503 354 489 354 434 c 0
 354 423 353 414 349 401 c 1
 344 404 336 407 324 407 c 0
 315 407 305 405 292 401 c 1
EndSplineSet
Substitution2: "Single Substitution lookup 8 subtable" c.fina
Substitution2: "'salt' Stylistic Alternatives in Latin lookup 6 subtable" c.salt
AlternateSubs2: "'aalt' Access All Alternates in Latin lookup 1 subtable" c.fina c.salt
EndChar

StartChar: c.fina
Encoding: 1114137 -1 90
Width: 360
Flags: MW
HStem: 0 85<163.5 197> 463 40<218 271>
VStem: -13 135<167.5 237> 297 57<428.5 441>
LayerCount: 3
Fore
SplineSet
134 0 m 0
 51 0 -13 46 -13 164 c 0
 -13 310 50 503 244 503 c 0
 298 503 354 489 354 434 c 0
 354 423 353 414 349 401 c 1
 292 401 l 1
 295 412 297 421 297 429 c 0
 297 453 282 463 260 463 c 0
 176 463 122 300 122 192 c 0
 122 143 133 85 194 85 c 0
 248 85 295 110 334 144 c 1
 334 57 260 0 134 0 c 0
EndSplineSet
EndChar

StartChar: c.salt
Encoding: 1114138 -1 91
Width: 360
Flags: MW
HStem: 0 85<164.5 212.5> 332 171<262.5 271 147 301.5> 463 40<218 266.5>
VStem: -13 135<162.5 237> 229 125<365 461.5>
LayerCount: 3
Fore
SplineSet
277 332 m 0xb8
 248 332 229 353 229 377 c 0
 229 411 254 450 291 451 c 1
 284 459 273 463 260 463 c 0
 176 463 122 300 122 192 c 0
 122 133 134 85 195 85 c 0
 266 85 323 127 369 179 c 1
 403 179 l 1
 355 125 301 0 124 0 c 0
 41 0 -13 46 -13 164 c 0
 -13 310 50 503 244 503 c 0
 298 503 354 489 354 434 c 0
 354 382 326 332 277 332 c 0xb8
EndSplineSet
EndChar

StartChar: c_x
Encoding: 1114139 -1 92
Width: 725
Flags: MW
HStem: -20 20G<534.5 616> -1 86<168 190.5> 428 105<617.5 673> 463 40<218 271>
VStem: -13 135<168.5 237> 297 57<428.5 441> 588 126<468.5 480 438.5 501>
LayerCount: 3
Fore
SplineSet
370 500 m 1x5e
 515 500 l 1
 559 293 l 1
 610 342 647 392 652 430 c 1
 646 429 640 428 635 428 c 0
 600 428 588 453 588 484 c 0
 588 518 620 533 656 533 c 0
 690 533 714 499 714 461 c 0
 714 416 655 329 570 242 c 1
 589 155 l 2
 598 114 603 91 648 91 c 0
 688 91 740 147 780 179 c 1
 814 179 l 1
 768 133 655 0 577 0 c 0xae
 492 0 474 16 448 134 c 1
 348 57 237 -1 144 -1 c 0
 65 -1 -13 52 -13 164 c 0
 -13 310 50 503 244 503 c 0
 298 503 354 489 354 434 c 0
 354 423 353 414 349 401 c 1
 292 401 l 1
 295 412 297 421 297 429 c 0
 297 453 282 463 260 463 c 0
 176 463 122 300 122 192 c 0
 122 145 136 85 200 85 c 0
 253 85 347 131 435 192 c 1
 370 500 l 1x5e
EndSplineSet
Ligature2: "'liga' Standard Ligatures in Latin lookup 4 subtable" c x
EndChar

StartChar: c_z
Encoding: 1114140 -1 93
Width: 765
Flags: MW
HStem: 0 40<550 577.5 550 593> 0 85<163.5 197> 0 151<324 677> 349 154 463 40<218 271>
VStem: -13 135<167.5 237> 289 57<428.5 441> 392 110<391 417.5 385.5 432.5> 599 111<81.5 109 67.5 113.5>
LayerCount: 3
Fore
SplineSet
134 0 m 0x4f80
 51 0 -13 46 -13 164 c 0
 -13 310 50 503 244 503 c 0
 298 503 346 489 346 434 c 0
 346 423 345 414 341 401 c 1
 284 401 l 1
 287 412 289 421 289 429 c 0
 289 453 282 463 260 463 c 0
 176 463 122 300 122 192 c 0
 122 143 133 85 194 85 c 0
 248 85 295 110 334 144 c 1
 334 57 260 0 134 0 c 0x4f80
617 62 m 1
 608 62 599 73 599 90 c 0
 599 137 631 151 663 151 c 0x3780
 691 151 710 125 710 93 c 0
 710 42 673 0 593 0 c 2
 324 0 l 1
 597 458 l 1
 574 458 550 460 531 460 c 0
 504 460 485 456 485 438 c 1
 494 438 502 426 502 409 c 0
 502 362 471 349 439 349 c 0
 411 349 392 375 392 407 c 0
 392 458 429 500 509 500 c 2
 762 500 l 1
 489 42 l 1
 512 41 538 40 562 40 c 0x9780
 593 40 617 44 617 62 c 1
EndSplineSet
Ligature2: "'liga' Standard Ligatures in Latin lookup 4 subtable" c z
EndChar

StartChar: ccedilla
Encoding: 231 231 94
Width: 360
Flags: MW
HStem: -218 33<140 162.5 140 176> -218 60<70.5 176> -107 49<132 226> 0 85<81 230.5 179 179> 463 40<218 271>
VStem: -13 135<162.5 237> 184 83<-144 -133.5> 297 57<428.5 441>
LayerCount: 3
Fore
SplineSet
93 -119 m 1xbf
 136 0 l 1
 26 0 -13 72 -13 164 c 0
 -13 310 50 503 244 503 c 0
 298 503 354 489 354 434 c 0
 354 423 353 414 349 401 c 1
 344 404 336 407 324 407 c 0
 315 407 305 405 292 401 c 1
 295 412 297 421 297 429 c 0
 297 453 282 463 260 463 c 0
 176 463 122 300 122 192 c 0
 122 133 134 85 195 85 c 0
 266 85 323 127 369 179 c 1
 403 179 l 1
 340 81 254 6 179 0 c 1
 152 -66 l 1
 172 -61 190 -58 205 -58 c 0
 247 -58 267 -77 267 -108 c 0
 267 -180 205 -218 147 -218 c 0
 96 -218 69 -205 40 -190 c 1
 49 -174 61 -158 80 -158 c 0x7f
 121 -158 126 -185 154 -185 c 0
 171 -185 184 -163 184 -143 c 0
 184 -124 173 -107 145 -107 c 0
 119 -107 104 -114 93 -119 c 1xbf
EndSplineSet
EndChar

StartChar: cedilla
Encoding: 184 184 95
Width: 833
Flags: MW
HStem: -218 33<173 195.5 173 209> -218 60<103.5 209> -107 49<165 259> 9 20G<179 179>
VStem: 217 83<-144 -134>
LayerCount: 3
Fore
SplineSet
300 -108 m 0xb8
 300 -180 238 -218 180 -218 c 0
 129 -218 102 -205 73 -190 c 1
 82 -174 94 -158 113 -158 c 0x78
 154 -158 159 -185 187 -185 c 0
 204 -185 217 -164 217 -143 c 0
 217 -125 206 -107 178 -107 c 0
 152 -107 137 -114 126 -119 c 1
 179 29 l 1
 214 6 l 1
 185 -66 l 1
 205 -61 223 -58 238 -58 c 0
 280 -58 300 -77 300 -108 c 0xb8
EndSplineSet
EndChar

StartChar: circunflex
Encoding: 1114141 -1 96
Width: 421
Flags: MW
HStem: 561 21G<50 94 50 50 311 343 311 311> 730 20G<262 283 283 283>
LayerCount: 3
Fore
SplineSet
343 561 m 1
 311 561 l 1
 251 641 l 1
 94 561 l 1
 50 561 l 1
 262 750 l 1
 283 750 l 1
 343 561 l 1
EndSplineSet
EndChar

StartChar: colon
Encoding: 58 58 97
Width: 267
Flags: MW
HStem: 56 159<98 142> 296 159<148 192>
VStem: 41 159<113 157> 91 159<353 397>
LayerCount: 3
Fore
SplineSet
41 135 m 0xe0
 41 179 76 215 120 215 c 0
 164 215 200 179 200 135 c 0
 200 91 164 56 120 56 c 0
 76 56 41 91 41 135 c 0xe0
91 375 m 0xd0
 91 419 126 455 170 455 c 0
 214 455 250 419 250 375 c 0
 250 331 214 296 170 296 c 0
 126 296 91 331 91 375 c 0xd0
EndSplineSet
EndChar

StartChar: comma
Encoding: 44 44 98
Width: 216
Flags: MW
HStem: -126 21G 135 20G<81 125>
VStem: 32 139 84 87<-36.5 101>
LayerCount: 3
Fore
SplineSet
24 75 m 0xd0
 24 119 59 155 103 155 c 0
 147 155 171 123 171 79 c 0
 171 19 123 -69 41 -126 c 1
 34 -121 32 -115 32 -109 c 0xe0
 32 -73 84 -55 84 -18 c 0
 84 -11 80 -4 71 2 c 0
 45 19 24 42 24 75 c 0xd0
EndSplineSet
EndChar

StartChar: d
Encoding: 100 100 99
Width: 510
Flags: MW
HStem: -20 20G<330.5 402> -6 83<58 186.5> -6 97 443 56<214.5 256 144 259> 680 20G
VStem: -18 135<118 207>
LayerCount: 3
Fore
SplineSet
355 680 m 1x3c
 503 700 l 1
 389 160 l 2
 387 149 384 138 384 128 c 0
 384 106 395 91 434 91 c 0x3c
 474 91 526 147 566 179 c 1
 600 179 l 1
 554 133 441 0 363 0 c 0x9c
 298 0 255 24 242 76 c 1
 212 35 167 -6 106 -6 c 0
 10 -6 -18 62 -18 121 c 0
 -18 293 44 499 244 499 c 0
 268 499 293 489 311 474 c 1
 355 680 l 1x3c
252 443 m 0
 177 443 117 284 117 148 c 0
 117 88 150 77 175 77 c 0x5c
 198 77 220 99 239 127 c 1
 240 137 242 148 245 160 c 2
 301 425 l 1
 285 439 266 443 252 443 c 0
EndSplineSet
Substitution2: "Single Substitution lookup 8 subtable" d.fina
Substitution2: "'aalt' Access All Alternates in Latin lookup 0 subtable" d.fina
EndChar

StartChar: d.fina
Encoding: 1114142 -1 100
Width: 468
Flags: MW
HStem: -20 20G<311 357> -6 83<58 186.5> 443 56<214.5 256 144 259> 680 20G
VStem: -18 135<118 207>
LayerCount: 3
Fore
SplineSet
502 700 m 1x78
 387 160 l 2
 384 148 382 137 382 126 c 0
 382 105 390 89 418 89 c 0
 425 89 436 89 444 92 c 1
 416 6 374 0 340 0 c 0xb8
 282 0 251 30 241 75 c 1
 211 34 166 -6 106 -6 c 0
 10 -6 -18 62 -18 121 c 0
 -18 293 44 499 244 499 c 0
 268 499 293 488 311 474 c 1
 355 680 l 1
 502 700 l 1x78
252 443 m 0
 177 443 117 284 117 148 c 0
 117 88 150 77 175 77 c 0x78
 198 77 219 99 238 126 c 1
 239 137 241 148 244 160 c 2
 301 426 l 1
 285 439 266 443 252 443 c 0
EndSplineSet
EndChar

StartChar: dieresis
Encoding: 168 168 101
Width: 392
Flags: MW
HStem: 573 122<100 133.5 280 313.5>
VStem: 56 122<617 650.5> 236 122<617 650.5>
LayerCount: 3
Fore
SplineSet
56 634 m 0
 56 667 83 695 117 695 c 0
 150 695 178 667 178 634 c 0
 178 600 150 573 117 573 c 0
 83 573 56 600 56 634 c 0
236 634 m 0
 236 667 263 695 297 695 c 0
 330 695 358 667 358 634 c 0
 358 600 330 573 297 573 c 0
 263 573 236 600 236 634 c 0
EndSplineSet
EndChar

StartChar: dotlessi
Encoding: 305 305 102
Width: 276
Flags: MW
HStem: 0 91<79 209> 480 20G<71 216 216 216>
VStem: -6 145<71.5 133>
LayerCount: 3
Fore
SplineSet
71 500 m 1
 216 500 l 1
 144 160 l 2
 141 149 139 138 139 128 c 0
 139 106 150 91 189 91 c 0
 229 91 281 147 321 179 c 1
 355 179 l 1
 309 133 196 0 118 0 c 0
 40 0 -6 34 -6 109 c 0
 -6 125 -4 141 0 160 c 2
 71 500 l 1
EndSplineSet
EndChar

StartChar: dotlessi.fina
Encoding: 1114143 -1 103
Width: 249
Flags: MW
HStem: 0 21G<63.5 116> 480 20G<75 218 218 218>
VStem: -3 144<115.5 118>
LayerCount: 3
Fore
SplineSet
218 500 m 1
 146 160 l 2
 143 148 141 137 141 126 c 0
 141 105 149 89 177 89 c 0
 184 89 195 89 203 92 c 1
 175 6 133 0 99 0 c 0
 28 0 -3 47 -3 110 c 0
 -3 126 -1 143 3 160 c 2
 75 500 l 1
 218 500 l 1
EndSplineSet
EndChar

StartChar: e
Encoding: 101 101 104
Width: 355
Flags: MW
HStem: 0 72<179.5 194.5> 0 249 456 53<223 259 127 266>
VStem: -18 135<125 164 125 222.5> 286 60<400 410.5>
LayerCount: 3
Fore
SplineSet
117 158 m 0xb8
 117 92 160 72 199 72 c 0
 248 72 332 130 367 204 c 1
 412 204 l 1
 355 101 259 0 130 0 c 0
 34 0 -18 73 -18 159 c 0
 -18 286 36 509 218 509 c 0
 300 509 346 475 346 405 c 0
 346 283 215 213 120 201 c 1
 118 185 117 170 117 158 c 0xb8
286 400 m 0
 286 421 281 456 251 456 c 0
 195 456 149 343 128 249 c 1x78
 220 250 285 329 286 400 c 0
EndSplineSet
Substitution2: "Single Substitution lookup 8 subtable" e.fina
Substitution2: "'aalt' Access All Alternates in Latin lookup 0 subtable" e.fina
EndChar

StartChar: e.fina
Encoding: 1114144 -1 105
Width: 356
Flags: MW
HStem: 0 72<161.5 172> 0 249 456 53<215 251 119 258>
VStem: -26 135<125 164 125 222.5> 278 60<400 410.5>
LayerCount: 3
Fore
SplineSet
122 0 m 0xb8
 26 0 -26 73 -26 159 c 0
 -26 286 28 509 210 509 c 0
 292 509 338 475 338 405 c 0
 338 283 207 213 112 201 c 1
 110 185 109 170 109 158 c 0
 109 92 142 72 181 72 c 0
 228 72 268 99 309 136 c 1
 309 28 222 0 122 0 c 0xb8
278 400 m 0
 278 421 273 456 243 456 c 0
 187 456 141 343 120 249 c 1x78
 212 250 277 329 278 400 c 0
EndSplineSet
EndChar

StartChar: e_s
Encoding: 1114145 -1 106
Width: 708
Flags: MW
HStem: 0 59<423 453 409.5 517.5> 0 72<82 218> 0 249 456 53<223 259 127 266> 500 20G<597 597>
VStem: -18 135<125 164 125 222.5> 286 60<400 410.5> 300 46 300 153 472 125 519 78 519 146<170.5 209>
LayerCount: 3
Fore
SplineSet
117 158 m 0x9510
 117 92 160 72 199 72 c 0
 237 72 271 99 300 145 c 1
 304 216 339 257 376 260 c 1
 412 325 435 414 452 490 c 1
 597 520 l 1
 597 506 l 2x4cc0
 597 341 665 291 665 174 c 0
 665 167 665 160 664 153 c 1
 692 178 717 204 729 218 c 1
 755 184 l 1
 727 162 687 127 647 93 c 1
 621 38 564 0 471 0 c 0
 375 0 320 23 304 87 c 1
 263 35 211 0 130 0 c 0
 34 0 -18 73 -18 159 c 0
 -18 286 36 509 218 509 c 0
 300 509 346 475 346 405 c 0
 346 283 215 213 120 201 c 1
 118 185 117 170 117 158 c 0x9510
453 199 m 0
 453 161 422 135 387 135 c 0
 375 135 363 138 351 144 c 1
 351 85 383 59 436 59 c 0
 470 59 519 101 519 178 c 0x94a0
 519 240 474 293 472 418 c 1
 456 369 442 305 420 255 c 1
 444 247 453 229 453 199 c 0
286 400 m 0x3640
 286 421 281 456 251 456 c 0
 195 456 149 343 128 249 c 1
 220 250 285 329 286 400 c 0x3640
EndSplineSet
Substitution2: "Single Substitution lookup 8 subtable" e_s.fina
Ligature2: "'liga' Standard Ligatures in Latin lookup 4 subtable" e s
Substitution2: "'aalt' Access All Alternates in Latin lookup 0 subtable" e_s.fina
EndChar

StartChar: e_s.fina
Encoding: 1114146 -1 107
Width: 677
Flags: MW
HStem: 0 59<423.5 454 410.5 539.5> 0 72<82 218> 135 114 456 53<223 259 127 266> 498 20G<593 593>
VStem: -18 135<125 164 125 222.5> 286 60<400 410.5> 301 45 301 153 473 120 520 73 520 146<139.5 209>
LayerCount: 3
Fore
SplineSet
117 158 m 0xb510
 117 92 160 72 199 72 c 0
 237 72 271 99 301 147 c 1
 306 216 339 256 377 259 c 1
 411 324 431 412 448 488 c 1
 593 518 l 1
 593 504 l 2x6cc0
 593 339 666 291 666 174 c 0
 666 81 607 0 472 0 c 0
 375 0 321 23 305 88 c 1
 264 36 212 0 130 0 c 0
 34 0 -18 73 -18 159 c 0
 -18 286 36 509 218 509 c 0
 300 509 346 475 346 405 c 0
 346 283 215 213 120 201 c 1
 118 185 117 170 117 158 c 0xb510
454 199 m 0
 453 161 423 135 388 135 c 0
 376 135 364 138 352 144 c 1
 352 85 384 59 437 59 c 0
 471 59 520 101 520 178 c 0xb4a0
 520 240 475 293 473 418 c 1
 457 369 443 305 421 255 c 1
 445 247 454 229 454 199 c 0
286 400 m 0xb640
 286 421 281 456 251 456 c 0
 195 456 149 343 128 249 c 1
 220 250 285 329 286 400 c 0xb640
EndSplineSet
EndChar

StartChar: e_s_x
Encoding: 1114147 -1 108
Width: 1063
Flags: MW
HStem: 0 59<426 457 413.5 521.5> 0 72<82 219> 0 91<845 980> 0 249 442 105<930 987.5> 456 53<223 259 127 266>
VStem: -18 135<125 164 125 222.5> 286 60<400 410.5> 476 125 523 78 523 146<170.5 209> 900 124<482.5 484.5 429 515> 964 60
LayerCount: 3
Fore
SplineSet
666 500 m 1x8b30
 811 500 l 1
 862 295 l 1
 912 337 962 395 964 444 c 1x8b88
 958 443 952 442 947 442 c 0
 913 442 900 467 900 498 c 0
 900 532 931 547 968 547 c 0
 1007 547 1024 507 1024 462 c 0
 1024 396 930 299 875 246 c 1
 898 155 l 2
 908 114 915 91 960 91 c 0
 1000 91 1052 147 1092 179 c 1
 1126 179 l 1
 1080 133 967 0 889 0 c 0
 801 0 776 24 751 155 c 1
 746 174 l 1
 720 152 686 122 651 93 c 1
 625 38 568 0 475 0 c 0
 377 0 322 24 308 91 c 1x2b90
 266 37 213 0 130 0 c 0
 34 0 -18 73 -18 159 c 0
 -18 286 36 509 218 509 c 0
 300 509 346 475 346 405 c 0
 346 283 215 213 120 201 c 1
 118 185 117 170 117 158 c 0
 117 92 160 72 199 72 c 0
 239 72 274 101 305 152 c 1
 311 219 344 257 380 260 c 1
 416 325 439 414 456 490 c 1
 601 520 l 1
 601 506 l 2x4790
 601 341 669 291 669 174 c 0
 669 167 669 160 668 153 c 1
 696 178 721 204 733 218 c 1
 736 213 l 1
 666 500 l 1x8b30
457 199 m 0
 457 161 426 135 391 135 c 0
 379 135 367 138 355 144 c 1
 355 85 387 59 440 59 c 0
 474 59 523 101 523 178 c 0x8b50
 523 240 478 293 476 418 c 1
 460 369 446 305 424 255 c 1
 448 247 457 229 457 199 c 0
286 400 m 0
 286 421 281 456 251 456 c 0
 195 456 149 343 128 249 c 1x1790
 220 250 285 329 286 400 c 0
EndSplineSet
Ligature2: "'liga' Standard Ligatures in Latin lookup 4 subtable" e s x
EndChar

StartChar: e_s_z
Encoding: 1114148 -1 109
Width: 1056
Flags: MW
HStem: 0 40<852 879.5 852 895> 0 59<420.5 450 406.5 535.5> 0 72<82 217> 0 151<626 979> 135 114 349 160 460 49 498 20G<589 589>
VStem: -18 135<125 164 125 222.5> 297 49 297 153 469 120 516 73 516 146<139.5 209> 668 110<391 417.5 385.5 432.5> 901 111<81.5 109 67.5 113.5>
LayerCount: 3
Fore
SplineSet
117 158 m 0x8cc7
 117 92 160 72 199 72 c 0
 235 72 268 97 297 140 c 1
 300 214 334 256 373 259 c 1
 407 324 427 412 444 488 c 1
 589 518 l 1
 589 504 l 2x29b3
 589 339 662 291 662 174 c 0
 662 81 603 0 468 0 c 0
 373 0 318 22 302 84 c 1
 261 34 210 0 130 0 c 0
 34 0 -18 73 -18 159 c 0
 -18 286 36 509 218 509 c 0
 300 509 346 475 346 405 c 0
 346 283 215 213 120 201 c 1
 118 185 117 170 117 158 c 0x8cc7
919 62 m 1
 910 62 901 73 901 90 c 0
 901 137 933 151 965 151 c 0x14b3
 993 151 1012 125 1012 93 c 0
 1012 42 975 0 895 0 c 2
 626 0 l 1
 889 458 l 1
 866 459 839 460 816 460 c 0x8ad3
 785 460 761 456 761 438 c 1
 770 438 778 426 778 409 c 0
 778 362 747 349 715 349 c 0
 687 349 668 375 668 407 c 0
 668 458 705 500 785 500 c 2
 1054 500 l 1
 791 42 l 1
 814 41 840 40 864 40 c 0x8cd3
 895 40 919 44 919 62 c 1
450 199 m 0
 449 161 419 135 384 135 c 0
 372 135 360 138 348 144 c 1
 348 85 380 59 433 59 c 0
 467 59 516 101 516 178 c 0x4cab
 516 240 471 293 469 418 c 1
 453 369 439 305 417 255 c 1
 441 247 450 229 450 199 c 0
286 400 m 0
 286 421 281 456 251 456 c 0
 195 456 149 343 128 249 c 1
 220 250 285 329 286 400 c 0
EndSplineSet
Ligature2: "'liga' Standard Ligatures in Latin lookup 4 subtable" e s z
EndChar

StartChar: e_x
Encoding: 1114149 -1 110
Width: 722
Flags: MW
HStem: 0 21G<530.5 610> 1 72<184.5 186> 1 90 1 248 443 105<621 674.5> 456 53<228 264 132 271>
VStem: -13 135<125 164 125 222.5> 291 60<400 410.5> 591 128<483.5 501 454.5 516>
LayerCount: 3
Fore
SplineSet
380 500 m 1x4780
 525 500 l 1
 559 298 l 1
 612 357 649 413 655 445 c 1
 649 444 643 443 638 443 c 0
 604 443 591 468 591 499 c 0
 591 533 622 548 659 548 c 0
 690 548 719 524 719 478 c 0
 719 431 674 344 569 237 c 1
 583 155 l 2
 590 114 597 91 642 91 c 0x2b80
 682 91 734 147 774 179 c 1
 808 179 l 1
 762 133 649 0 571 0 c 0x8b80
 490 0 464 21 444 127 c 1
 347 55 237 1 135 1 c 0
 39 1 -13 73 -13 159 c 0
 -13 286 41 509 223 509 c 0
 305 509 351 475 351 405 c 0
 351 283 220 213 125 201 c 1
 123 185 122 170 122 158 c 0
 122 92 165 73 204 73 c 0
 271 73 356 120 434 182 c 1
 380 500 l 1x4780
291 400 m 0
 291 421 286 456 256 456 c 0
 200 456 154 343 133 249 c 1x1780
 225 250 290 329 291 400 c 0
EndSplineSet
Substitution2: "Single Substitution lookup 8 subtable" e_x.fina
Ligature2: "'liga' Standard Ligatures in Latin lookup 4 subtable" e x
Substitution2: "'aalt' Access All Alternates in Latin lookup 0 subtable" e_x.fina
EndChar

StartChar: e_x.fina
Encoding: 1114150 -1 111
Width: 722
Flags: MW
HStem: -26 63<573 688.5> 1 72<184.5 192.5> 1 248 443 105<612 665.5> 456 53<228 264 132 271>
VStem: -13 135<125 164 125 222.5> 291 60<400 410.5> 582 128<483.5 501 456 516>
LayerCount: 3
Fore
SplineSet
613 -26 m 0x97
 533 -26 514 10 481 129 c 2
 474 154 l 1
 372 69 250 1 135 1 c 0
 39 1 -13 73 -13 159 c 0
 -13 286 41 509 223 509 c 0
 305 509 351 475 351 405 c 0
 351 283 220 213 125 201 c 1
 123 185 122 170 122 158 c 0
 122 92 165 73 204 73 c 0x4f
 279 73 376 133 460 207 c 1
 381 500 l 1
 526 500 l 1
 572 322 l 1
 613 372 641 417 646 445 c 1
 640 444 634 443 629 443 c 0
 595 443 582 468 582 499 c 0
 582 533 613 548 650 548 c 0
 681 548 710 524 710 478 c 0
 710 434 673 360 587 263 c 1
 622 129 l 2
 636 75 660 37 686 37 c 0
 691 37 696 38 701 41 c 1
 686 -8 655 -26 613 -26 c 0x97
291 400 m 0
 291 421 286 456 256 456 c 0
 200 456 154 343 133 249 c 1x2f
 225 250 290 329 291 400 c 0
EndSplineSet
EndChar

StartChar: e_z
Encoding: 1114151 -1 112
Width: 769
Flags: MW
HStem: 0 40<550 577.5 550 593> 0 72<153.5 164> 0 151<324 677> 0 249 349 160 460 49
VStem: -34 135<125 164 125 222.5> 270 60<400 410.5> 382 110<391 417.5 385.5 432.5> 599 111<81.5 109 67.5 113.5>
LayerCount: 3
Fore
SplineSet
114 0 m 0x4bc0
 18 0 -34 73 -34 159 c 0
 -34 286 20 509 202 509 c 0
 284 509 330 475 330 405 c 0
 330 283 199 213 104 201 c 1
 102 185 101 170 101 158 c 0
 101 92 134 72 173 72 c 0
 220 72 260 99 301 136 c 1
 301 28 214 0 114 0 c 0x4bc0
617 62 m 1
 608 62 599 73 599 90 c 0
 599 137 631 151 663 151 c 0x2bc0
 691 151 710 125 710 93 c 0
 710 42 673 0 593 0 c 2
 324 0 l 1
 587 458 l 1
 564 458 540 460 521 460 c 0x87c0
 494 460 475 456 475 438 c 1
 484 438 492 426 492 409 c 0
 492 362 461 349 429 349 c 0
 401 349 382 375 382 407 c 0
 382 458 419 500 499 500 c 2
 752 500 l 1
 489 42 l 1
 512 41 538 40 562 40 c 0x8bc0
 593 40 617 44 617 62 c 1
270 400 m 0
 270 421 265 456 235 456 c 0
 179 456 133 343 112 249 c 1x1bc0
 204 250 269 329 270 400 c 0
EndSplineSet
Ligature2: "'liga' Standard Ligatures in Latin lookup 4 subtable" e z
EndChar

StartChar: eacute
Encoding: 233 233 113
Width: 362
Flags: MW
HStem: 0 72<179.5 194.5> 0 249 456 53<223 259 127 266> 730 20G<295 400 400 400>
VStem: -18 135<125 164 125 222.5> 286 60<400 410.5>
LayerCount: 3
Fore
SplineSet
117 158 m 0xbc
 117 92 160 72 199 72 c 0
 248 72 332 130 367 204 c 1
 412 204 l 1
 355 101 259 0 130 0 c 0
 34 0 -18 73 -18 159 c 0
 -18 286 36 509 218 509 c 0
 300 509 346 475 346 405 c 0
 346 283 215 213 120 201 c 1
 118 185 117 170 117 158 c 0xbc
286 400 m 0
 286 421 281 456 251 456 c 0
 195 456 149 343 128 249 c 1x7c
 220 250 285 329 286 400 c 0
204 561 m 1
 295 750 l 1
 400 750 l 1
 279 561 l 1
 204 561 l 1
EndSplineSet
Substitution2: "Single Substitution lookup 8 subtable" eacute.fina
Substitution2: "'aalt' Access All Alternates in Latin lookup 0 subtable" eacute.fina
EndChar

StartChar: eacute.fina
Encoding: 1114152 -1 114
Width: 370
Flags: MW
HStem: 0 72<153.5 164> 456 53<207 243 111 250> 730 20G<306 411 411 411>
VStem: -34 135<125 164 125 222.5> 270 60<400 410.5>
LayerCount: 3
Fore
SplineSet
114 0 m 0
 18 0 -34 73 -34 159 c 0
 -34 286 20 509 202 509 c 0
 284 509 330 475 330 405 c 0
 330 283 199 213 104 201 c 1
 102 185 101 170 101 158 c 0
 101 92 134 72 173 72 c 0
 220 72 260 99 301 136 c 1
 301 28 214 0 114 0 c 0
270 400 m 0
 270 421 265 456 235 456 c 0
 179 456 133 343 112 249 c 1
 204 250 269 329 270 400 c 0
215 561 m 1
 306 750 l 1
 411 750 l 1
 290 561 l 1
 215 561 l 1
EndSplineSet
EndChar

StartChar: eacute_s
Encoding: 1114153 -1 115
Width: 713
Flags: MW
HStem: 0 59<423 453 409.5 517.5> 0 72<82 218> 0 249 456 53<223 259 127 266> 730 20G<333 438 438 438>
VStem: -18 135<125 164 125 222.5> 286 60<400 410.5> 300 46 300 153 472 125 519 78 519 146<170.5 209>
LayerCount: 3
Fore
SplineSet
117 158 m 0x9d10
 117 92 160 72 199 72 c 0
 237 72 271 99 300 145 c 1
 304 216 339 257 376 260 c 1
 412 325 435 414 452 490 c 1
 597 520 l 1
 597 506 l 2x5cc0
 597 341 665 291 665 174 c 0
 665 167 665 160 664 153 c 1
 692 178 717 204 729 218 c 1
 755 184 l 1
 727 162 687 127 647 93 c 1
 621 38 564 0 471 0 c 0
 375 0 320 23 304 87 c 1
 263 35 211 0 130 0 c 0
 34 0 -18 73 -18 159 c 0
 -18 286 36 509 218 509 c 0
 300 509 346 475 346 405 c 0
 346 283 215 213 120 201 c 1
 118 185 117 170 117 158 c 0x9d10
453 199 m 0
 453 161 422 135 387 135 c 0
 375 135 363 138 351 144 c 1
 351 85 383 59 436 59 c 0
 470 59 519 101 519 178 c 0x9ca0
 519 240 474 293 472 418 c 1
 456 369 442 305 420 255 c 1
 444 247 453 229 453 199 c 0
286 400 m 0x3e40
 286 421 281 456 251 456 c 0
 195 456 149 343 128 249 c 1
 220 250 285 329 286 400 c 0x3e40
242 561 m 1
 333 750 l 1
 438 750 l 1
 317 561 l 1
 242 561 l 1
EndSplineSet
Substitution2: "Single Substitution lookup 8 subtable" eacute_s.fina
Ligature2: "'liga' Standard Ligatures in Latin lookup 4 subtable" eacute s
Substitution2: "'aalt' Access All Alternates in Latin lookup 0 subtable" eacute_s.fina
EndChar

StartChar: eacute_s.fina
Encoding: 1114154 -1 116
Width: 681
Flags: MW
HStem: 0 59<420.5 450 406.5 535.5> 0 72<82 217> 135 114 456 53<223 259 127 266> 730 20G<333 438 438 438>
VStem: -18 135<125 164 125 222.5> 297 49 297 153 469 120 516 73 516 146<139.5 209>
LayerCount: 3
Fore
SplineSet
117 158 m 0xbe20
 117 92 160 72 199 72 c 0
 235 72 268 97 297 140 c 1
 300 214 334 256 373 259 c 1
 407 324 427 412 444 488 c 1
 589 518 l 1
 589 504 l 2x7d80
 589 339 662 291 662 174 c 0
 662 81 603 0 468 0 c 0
 373 0 318 22 302 84 c 1
 261 34 210 0 130 0 c 0
 34 0 -18 73 -18 159 c 0
 -18 286 36 509 218 509 c 0
 300 509 346 475 346 405 c 0
 346 283 215 213 120 201 c 1
 118 185 117 170 117 158 c 0xbe20
450 199 m 0
 449 161 419 135 384 135 c 0
 372 135 360 138 348 144 c 1
 348 85 380 59 433 59 c 0
 467 59 516 101 516 178 c 0xbd40
 516 240 471 293 469 418 c 1
 453 369 439 305 417 255 c 1
 441 247 450 229 450 199 c 0
286 400 m 0
 286 421 281 456 251 456 c 0
 195 456 149 343 128 249 c 1
 220 250 285 329 286 400 c 0
242 561 m 1
 333 750 l 1
 438 750 l 1
 317 561 l 1
 242 561 l 1
EndSplineSet
EndChar

StartChar: eacute_s_x
Encoding: 1114155 -1 117
Width: 1049
Flags: MW
HStem: 0 59<421.5 451 407.5 515.5> 0 72<82 217.5> 0 91<836 971> 135 114 442 105<921 978.5> 456 53<223 259 127 266> 730 20G<333 438 438 438>
VStem: -18 135<125 164 125 222.5> 286 60<400 410.5> 298 48 298 153 470 125 517 78 517 146<170.5 209> 891 124<424.5 515> 955 60
LayerCount: 3
Fore
SplineSet
657 500 m 1x9b86
 802 500 l 1
 853 295 l 1
 903 337 953 395 955 444 c 1x9b31
 949 443 943 442 938 442 c 0
 904 442 891 467 891 498 c 0
 891 532 922 547 959 547 c 0
 998 547 1015 502 1015 457 c 0
 1015 392 921 298 866 246 c 1
 889 155 l 2
 899 114 906 91 951 91 c 0x3b92
 991 91 1043 147 1083 179 c 1
 1117 179 l 1
 1071 133 958 0 880 0 c 0
 792 0 767 24 738 172 c 1
 712 150 679 121 645 93 c 1
 619 38 562 0 469 0 c 0
 374 0 319 22 303 85 c 1
 262 34 210 0 130 0 c 0
 34 0 -18 73 -18 159 c 0
 -18 286 36 509 218 509 c 0
 300 509 346 475 346 405 c 0
 346 283 215 213 120 201 c 1
 118 185 117 170 117 158 c 0
 117 92 160 72 199 72 c 0
 236 72 269 97 298 142 c 1
 301 215 336 257 374 260 c 1
 410 325 433 414 450 490 c 1
 595 520 l 1
 595 506 l 2x5752
 595 341 663 291 663 174 c 0
 663 167 663 160 662 153 c 1
 689 178 715 204 726 217 c 1
 657 500 l 1x9b86
451 199 m 0
 451 161 420 135 385 135 c 0
 373 135 361 138 349 144 c 1
 349 85 381 59 434 59 c 0
 468 59 517 101 517 178 c 0x9b2a
 517 240 472 293 470 418 c 1
 454 369 440 305 418 255 c 1
 442 247 451 229 451 199 c 0
286 400 m 0x9792
 286 421 281 456 251 456 c 0
 195 456 149 343 128 249 c 1
 220 250 285 329 286 400 c 0x9792
242 561 m 1
 333 750 l 1
 438 750 l 1
 317 561 l 1
 242 561 l 1
EndSplineSet
Ligature2: "'liga' Standard Ligatures in Latin lookup 4 subtable" eacute s x
EndChar

StartChar: eacute_s_z
Encoding: 1114156 -1 118
Width: 1053
Flags: MW
HStem: 0 40<852 879.5 852 895> 0 59<418.5 447 403.5 532.5> 0 72<82 216.5> 0 151<626 979> 135 114 349 160 460 49 730 20G<333 438 438 438>
VStem: -18 135<125 164 125 222.5> 294 52 294 153 466 120 513 73 513 146<139.5 209> 668 110<391 417.5 385.5 432.5> 901 111<81.5 109 67.5 113.5>
LayerCount: 3
Fore
SplineSet
117 158 m 0x8dc7
 117 92 160 72 199 72 c 0
 234 72 266 95 294 136 c 1
 295 212 331 256 370 259 c 1
 404 324 424 412 441 488 c 1
 586 518 l 1
 586 504 l 2x2db3
 586 339 659 291 659 174 c 0
 659 81 600 0 465 0 c 0
 372 0 317 21 300 82 c 1
 259 33 208 0 130 0 c 0
 34 0 -18 73 -18 159 c 0
 -18 286 36 509 218 509 c 0
 300 509 346 475 346 405 c 0
 346 283 215 213 120 201 c 1
 118 185 117 170 117 158 c 0x8dc7
919 62 m 1
 910 62 901 73 901 90 c 0
 901 137 933 151 965 151 c 0x15b3
 993 151 1012 125 1012 93 c 0
 1012 42 975 0 895 0 c 2
 626 0 l 1
 889 458 l 1
 866 459 839 460 816 460 c 0x8bd3
 785 460 761 456 761 438 c 1
 770 438 778 426 778 409 c 0
 778 362 747 349 715 349 c 0
 687 349 668 375 668 407 c 0
 668 458 705 500 785 500 c 2
 1054 500 l 1
 791 42 l 1
 814 41 840 40 864 40 c 0x8dd3
 895 40 919 44 919 62 c 1
447 199 m 0
 446 161 416 135 381 135 c 0
 369 135 357 138 345 144 c 1
 345 85 377 59 430 59 c 0
 464 59 513 101 513 178 c 0x4dab
 513 240 468 293 466 418 c 1
 450 369 436 305 414 255 c 1
 438 247 447 229 447 199 c 0
286 400 m 0
 286 421 281 456 251 456 c 0
 195 456 149 343 128 249 c 1
 220 250 285 329 286 400 c 0
242 561 m 1
 333 750 l 1
 438 750 l 1
 317 561 l 1
 242 561 l 1
EndSplineSet
Ligature2: "'liga' Standard Ligatures in Latin lookup 4 subtable" eacute s z
EndChar

StartChar: eacute_x
Encoding: 1114157 -1 119
Width: 722
Flags: MW
HStem: 0 21G<537 618> 1 72<184.5 188> 1 90 1 248 443 105<612 665.5> 456 53<228 264 132 271> 730 20G<333 438 438 438>
VStem: -13 135<125 164 125 222.5> 291 60<400 410.5> 582 128<483.5 501 455 516>
LayerCount: 3
Fore
SplineSet
372 500 m 1x47c0
 517 500 l 1
 558 306 l 1
 607 362 641 415 646 445 c 1
 640 444 634 443 629 443 c 0
 595 443 582 468 582 499 c 0
 582 533 613 548 650 548 c 0
 681 548 710 524 710 478 c 0
 710 432 669 350 571 246 c 1
 591 155 l 2
 600 114 605 91 650 91 c 0x2bc0
 690 91 742 147 782 179 c 1
 816 179 l 1
 770 133 657 0 579 0 c 0x8bc0
 495 0 476 21 451 135 c 1
 354 59 241 1 135 1 c 0
 39 1 -13 73 -13 159 c 0
 -13 286 41 509 223 509 c 0
 305 509 351 475 351 405 c 0
 351 283 220 213 125 201 c 1
 123 185 122 170 122 158 c 0
 122 92 165 73 204 73 c 0
 273 73 361 123 439 189 c 1
 372 500 l 1x47c0
291 400 m 0
 291 421 286 456 256 456 c 0
 200 456 154 343 133 249 c 1x17c0
 225 250 290 329 291 400 c 0
242 561 m 1
 333 750 l 1
 438 750 l 1
 317 561 l 1
 242 561 l 1
EndSplineSet
Ligature2: "'liga' Standard Ligatures in Latin lookup 4 subtable" eacute x
EndChar

StartChar: ecircumflex
Encoding: 234 234 120
Width: 355
Flags: MW
HStem: 0 72<179.5 194.5> 249 207 456 53<223 259 127 266> 509 52<81 259> 730 20G<293 314 314 314>
VStem: -18 135<125 164 125 222.5> 286 60<400 410.5>
LayerCount: 3
Fore
SplineSet
117 158 m 0
 117 92 160 72 199 72 c 0
 248 72 332 130 367 204 c 1
 412 204 l 1
 355 101 259 0 130 0 c 0
 34 0 -18 73 -18 159 c 0
 -18 286 36 509 218 509 c 0
 300 509 346 475 346 405 c 0
 346 283 215 213 120 201 c 1
 118 185 117 170 117 158 c 0
374 561 m 1
 342 561 l 1
 282 641 l 1
 125 561 l 1
 81 561 l 1
 293 750 l 1
 314 750 l 1
 374 561 l 1
286 400 m 0
 286 421 281 456 251 456 c 0
 195 456 149 343 128 249 c 1
 220 250 285 329 286 400 c 0
EndSplineSet
EndChar

StartChar: edieresis
Encoding: 235 235 121
Width: 355
Flags: MW
HStem: 0 72<179.5 194.5> 0 249 456 53<223 259 127 266> 573 122<116 149.5 296 329.5>
VStem: -18 135<125 164 125 222.5> 72 122<617 650.5> 252 122<617 650.5> 286 60<400 410.5>
LayerCount: 3
Fore
SplineSet
117 158 m 0xb9
 117 92 160 72 199 72 c 0
 248 72 332 130 367 204 c 1
 412 204 l 1
 355 101 259 0 130 0 c 0
 34 0 -18 73 -18 159 c 0
 -18 286 36 509 218 509 c 0
 300 509 346 475 346 405 c 0
 346 283 215 213 120 201 c 1
 118 185 117 170 117 158 c 0xb9
286 400 m 0
 286 421 281 456 251 456 c 0
 195 456 149 343 128 249 c 1x75
 220 250 285 329 286 400 c 0
72 634 m 0
 72 667 99 695 133 695 c 0
 166 695 194 667 194 634 c 0
 194 600 166 573 133 573 c 0
 99 573 72 600 72 634 c 0
252 634 m 0xba
 252 667 279 695 313 695 c 0
 346 695 374 667 374 634 c 0
 374 600 346 573 313 573 c 0
 279 573 252 600 252 634 c 0xba
EndSplineSet
EndChar

StartChar: egrave
Encoding: 232 232 122
Width: 355
Flags: MW
HStem: 0 72<179.5 194.5> 0 249 456 53<223 259 127 266> 561 189<169 169 169 215 110 244>
VStem: -18 135<125 164 125 222.5> 286 60<400 410.5>
LayerCount: 3
Fore
SplineSet
117 158 m 0xbc
 117 92 160 72 199 72 c 0
 248 72 332 130 367 204 c 1
 412 204 l 1
 355 101 259 0 130 0 c 0
 34 0 -18 73 -18 159 c 0
 -18 286 36 509 218 509 c 0
 300 509 346 475 346 405 c 0
 346 283 215 213 120 201 c 1
 118 185 117 170 117 158 c 0xbc
286 400 m 0
 286 421 281 456 251 456 c 0
 195 456 149 343 128 249 c 1x7c
 220 250 285 329 286 400 c 0
169 561 m 1
 110 750 l 1
 215 750 l 1
 244 561 l 1
 169 561 l 1
EndSplineSet
EndChar

StartChar: ellipsis
Encoding: 8230 8230 123
Width: 702
Flags: MW
HStem: -4 159<88 132 323 367 568 612>
VStem: 31 159<53 97> 266 159<53 97> 511 159<53 97>
LayerCount: 3
Fore
SplineSet
31 75 m 0
 31 119 66 155 110 155 c 0
 154 155 190 119 190 75 c 0
 190 31 154 -4 110 -4 c 0
 66 -4 31 31 31 75 c 0
266 75 m 0
 266 119 301 155 345 155 c 0
 389 155 425 119 425 75 c 0
 425 31 389 -4 345 -4 c 0
 301 -4 266 31 266 75 c 0
511 75 m 0
 511 119 546 155 590 155 c 0
 634 155 670 119 670 75 c 0
 670 31 634 -4 590 -4 c 0
 546 -4 511 31 511 75 c 0
EndSplineSet
EndChar

StartChar: exclam
Encoding: 33 33 124
Width: 224
Flags: MW
HStem: 0 159<59 103> 680 20G<136 280 280 280>
VStem: 1 159<58 102>
LayerCount: 3
Fore
SplineSet
150 231 m 1
 65 231 l 1
 136 700 l 1
 280 700 l 1
 150 231 l 1
160 80 m 0
 160 36 125 0 81 0 c 0
 37 0 1 36 1 80 c 0
 1 124 37 159 81 159 c 0
 125 159 160 124 160 80 c 0
EndSplineSet
EndChar

StartChar: exclamdown
Encoding: 161 161 125
Width: 219
Flags: MW
HStem: -248 21G<-61 83 -61 -61> 293 159<116 160>
VStem: 59 159<350 394>
LayerCount: 3
Fore
SplineSet
69 221 m 1
 154 221 l 1
 83 -248 l 1
 -61 -248 l 1
 69 221 l 1
59 372 m 0
 59 416 94 452 138 452 c 0
 182 452 218 416 218 372 c 0
 218 328 182 293 138 293 c 0
 94 293 59 328 59 372 c 0
EndSplineSet
EndChar

StartChar: f
Encoding: 102 102 126
Width: 271
Flags: MW
HStem: -250 89<-114.5 -96.5 -118 -51.5> 460 40<218 284 210 291> 661 88<294 303.5 240 315>
VStem: -202 55<-135 -101 -135 -96> 343 48<633 638.5>
LayerCount: 3
Fore
SplineSet
388 600 m 1
 341 600 l 1
 342 610 343 618 343 627 c 0
 343 650 325 661 305 661 c 0
 283 661 249 646 235 579 c 2
 218 500 l 1
 291 500 l 1
 284 460 l 1
 210 460 l 1
 95 -80 l 2
 64 -223 -19 -250 -84 -250 c 0
 -145 -250 -202 -207 -202 -142 c 0
 -202 -50 -125 -21 -30 8 c 1
 91 579 l 2
 121 722 207 749 273 749 c 0
 334 749 391 706 391 641 c 0
 391 625 390 612 388 600 c 1
-147 -128 m 0
 -147 -142 -129 -161 -107 -161 c 0
 -86 -161 -63 -142 -50 -83 c 2
 -37 -25 l 1
 -100 -46 -147 -74 -147 -128 c 0
EndSplineSet
EndChar

StartChar: f_f
Encoding: 64256 64256 127
Width: 563
Flags: MW
HStem: -250 89<-85 -64 -85 -35 158.5 173.5> 460 40<238 345 246 337 490 581> 661 88<321 322.5 267 342 565 574.5>
VStem: -175 61<-135 -101 -135 -96> 614 48<633 638.5>
LayerCount: 3
Fore
SplineSet
-57 -250 m 0
 -118 -250 -175 -207 -175 -142 c 0
 -175 -50 -97 -21 -2 8 c 1
 118 579 l 2
 148 722 234 749 300 749 c 0
 345 749 388 725 407 686 c 1
 447 737 500 749 544 749 c 0
 605 749 662 706 662 641 c 0
 662 625 661 612 659 600 c 1
 612 600 l 1
 613 610 614 618 614 627 c 0
 614 650 596 661 576 661 c 0
 554 661 523 649 508 582 c 2
 490 500 l 1
 590 500 l 1
 581 460 l 1
 482 460 l 1
 369 -80 l 2
 339 -223 253 -250 187 -250 c 0
 130 -250 95 -225 79 -187 c 1
 40 -238 -13 -250 -57 -250 c 0
238 460 m 1
 149 37 l 1
 252 55 l 1
 337 460 l 1
 238 460 l 1
106 -141 m 1
 115 -157 138 -161 164 -161 c 0
 183 -161 210 -142 223 -83 c 2
 247 31 l 1
 144 12 l 1
 120 -103 113 -124 106 -141 c 1
370 627 m 0
 370 650 352 661 332 661 c 0
 310 661 279 649 264 582 c 2
 246 500 l 1
 345 500 l 1
 362 579 l 2
 366 596 370 611 370 627 c 0
-114 -128 m 0
 -114 -142 -96 -161 -74 -161 c 0
 -54 -161 -27 -142 -15 -83 c 2
 -3 -25 l 1
 -66 -46 -114 -74 -114 -128 c 0
EndSplineSet
Ligature2: "'liga' Standard Ligatures in Latin lookup 4 subtable" f f
EndChar

StartChar: f_f_i
Encoding: 64259 64259 128
Width: 733
Flags: MW
HStem: -250 83<129.5 140.5 111.5 188> 0 91<561.5 691> 460 40<206 313 214 305 457 544> 553 196 661 88<287 289.5 233 308> 691 58<569.5 579.5>
VStem: -209 61<-135 -101 -135 -96> 476 145<71.5 133> 571 139<605 620>
LayerCount: 3
Fore
SplineSet
457 500 m 1xe7
 697 500 l 1
 626 160 l 2
 624 149 621 138 621 128 c 0
 621 106 632 91 671 91 c 0
 711 91 763 147 803 179 c 1
 837 179 l 1
 791 133 678 0 600 0 c 0
 523 0 476 34 476 109 c 0xeb
 476 124 478 141 482 160 c 2
 544 460 l 1
 449 460 l 1
 337 -80 l 2
 307 -223 221 -250 155 -250 c 0
 104 -250 65 -225 47 -184 c 1
 8 -237 -46 -250 -91 -250 c 0
 -152 -250 -209 -207 -209 -142 c 0
 -209 -50 -131 -21 -36 8 c 1
 84 579 l 2
 114 722 200 749 266 749 c 0
 313 749 358 723 376 681 c 1
 422 736 487 749 533 749 c 0
 626 749 692 741 709 641 c 0
 710 636 710 632 710 627 c 0
 710 583 671 553 639 553 c 0
 598 553 571 564 571 607 c 0xf280
 571 633 580 658 602 658 c 2
 610 657 l 1
 609 683 599 691 578 691 c 0
 561 691 500 688 476 582 c 2
 457 500 l 1xe7
206 460 m 1
 116 36 l 1
 219 54 l 1
 305 460 l 1
 206 460 l 1
75 -134 m 1
 75 -138 l 2
 75 -152 91 -167 132 -167 c 0
 149 -167 179 -142 191 -83 c 2
 214 30 l 1
 110 8 l 1
 91 -80 l 2
 86 -100 80 -118 75 -134 c 1
334 600 m 0
 335 610 336 618 336 627 c 0
 336 650 318 661 298 661 c 0
 276 661 243 649 230 582 c 2
 214 500 l 1
 313 500 l 1
 331 586 333 593 334 600 c 0
-148 -128 m 0
 -148 -142 -130 -161 -108 -161 c 0
 -88 -161 -61 -142 -49 -83 c 2
 -37 -25 l 1
 -100 -46 -148 -74 -148 -128 c 0
EndSplineSet
Ligature2: "'liga' Standard Ligatures in Latin lookup 4 subtable" f f i
EndChar

StartChar: f_f_l
Encoding: 64260 64260 129
Width: 765
Flags: MW
HStem: -250 85<115 188> 0 91<585.5 715> 460 40<206 314 214 306 457 545> 661 88<288 289.5 234 307> 686 63 730 20G<486 553>
VStem: -208 61<-135 -101 -135 -96> 500 145<71.5 133>
LayerCount: 3
Fore
SplineSet
508 750 m 0xe7
 598 750 666 726 759 678 c 1
 650 160 l 2
 647 149 645 138 645 128 c 0
 645 106 656 91 695 91 c 0
 735 91 787 147 827 179 c 1
 861 179 l 1
 815 133 702 0 624 0 c 0
 547 0 500 34 500 109 c 0
 500 124 502 141 506 160 c 2
 614 670 l 1
 588 681 563 686 550 686 c 0
 528 686 498 674 482 607 c 2
 457 500 l 1
 553 500 l 1
 545 460 l 1
 449 460 l 1
 338 -80 l 2
 308 -223 220 -250 156 -250 c 0
 114 -250 65 -230 38 -196 c 1
 0 -239 -49 -250 -90 -250 c 0
 -151 -250 -208 -207 -208 -142 c 0
 -208 -50 -130 -21 -35 8 c 1
 85 579 l 2
 115 722 201 749 267 749 c 0xeb
 312 749 356 725 375 685 c 1
 413 737 464 750 508 750 c 0xe7
206 460 m 1
 116 37 l 1
 221 54 l 1
 306 460 l 1
 206 460 l 1
123 -165 m 0
 144 -165 179 -142 192 -83 c 2
 216 30 l 1
 110 8 l 1
 92 -80 l 2
 86 -107 78 -131 69 -150 c 1
 82 -162 107 -165 123 -165 c 0
314 500 m 1
 331 579 l 2
 334 593 335 605 335 615 c 0
 335 653 315 661 299 661 c 0xf3
 277 661 245 649 231 582 c 2
 214 500 l 1
 314 500 l 1
-147 -128 m 0
 -147 -142 -129 -161 -107 -161 c 0
 -87 -161 -60 -142 -48 -83 c 2
 -36 -25 l 1
 -99 -46 -147 -74 -147 -128 c 0
EndSplineSet
Ligature2: "'liga' Standard Ligatures in Latin lookup 4 subtable" f f l
EndChar

StartChar: f_f_t
Encoding: 1114158 -1 130
Width: 765
Flags: MW
HStem: -250 85<115 189> 0 91<585.5 715> 460 40<206 313 214 305 459 569 721 745> 661 88<288 289.5 234 309> 686 63 730 20G<486 553>
VStem: -208 61<-135 -101 -135 -96> 500 145<71.5 133>
LayerCount: 3
Fore
SplineSet
508 750 m 0xe7
 598 750 666 726 759 678 c 1
 721 500 l 1
 753 500 l 1
 745 460 l 1
 713 460 l 1
 650 160 l 2
 647 149 645 138 645 128 c 0
 645 106 656 91 695 91 c 0
 735 91 787 147 827 179 c 1
 861 179 l 1
 815 133 702 0 624 0 c 0
 547 0 500 34 500 109 c 0
 500 124 502 141 506 160 c 2
 569 460 l 1
 451 460 l 1
 338 -80 l 2
 308 -223 222 -250 156 -250 c 0
 114 -250 65 -230 38 -196 c 1
 0 -239 -49 -250 -90 -250 c 0
 -151 -250 -208 -207 -208 -142 c 0
 -208 -50 -130 -21 -35 8 c 1
 85 579 l 2
 115 722 201 749 267 749 c 0xeb
 312 749 356 725 375 685 c 1
 413 736 464 750 508 750 c 0xe7
206 460 m 1
 116 36 l 1
 137 39 201 51 221 54 c 1
 305 460 l 1
 206 460 l 1
578 500 m 1
 614 670 l 1
 588 681 563 686 550 686 c 0xeb
 528 686 496 674 482 607 c 2
 459 500 l 1
 578 500 l 1
123 -165 m 0
 144 -165 179 -142 192 -83 c 2
 216 30 l 1
 110 8 l 1
 92 -80 l 2
 86 -107 78 -131 69 -150 c 1
 82 -162 107 -165 123 -165 c 0
313 500 m 1
 335 600 l 2
 336 610 337 619 337 627 c 0
 337 650 319 661 299 661 c 0xf3
 277 661 245 649 231 582 c 2
 214 500 l 1
 313 500 l 1
-147 -128 m 0
 -147 -142 -129 -161 -107 -161 c 0
 -87 -161 -60 -142 -48 -83 c 2
 -36 -25 l 1
 -99 -46 -147 -74 -147 -128 c 0
EndSplineSet
Ligature2: "'liga' Standard Ligatures in Latin lookup 4 subtable" f f t
EndChar

StartChar: f_i
Encoding: 64257 64257 131
Width: 561
Flags: MW
HStem: -250 89<-113.5 -96 -117 -50> 0 91<364 494> 460 40<221 314 213 322> 553 196<279 460> 691 58<329.5 357 279 375>
VStem: -201 55<-135 -101 -135 -96> 279 145<71.5 133> 376 139<604.5 620> 415 100
LayerCount: 3
Fore
SplineSet
444 553 m 0xec80
 403 553 376 564 376 607 c 0xf5
 376 633 388 658 406 658 c 0
 408 658 412 658 415 657 c 1
 414 683 389 691 361 691 c 0
 298 691 250 638 238 582 c 2
 221 500 l 1
 322 500 l 1
 314 460 l 1
 213 460 l 1
 99 -80 l 2
 69 -223 -17 -250 -83 -250 c 0
 -144 -250 -201 -207 -201 -142 c 0
 -201 -50 -123 -21 -28 8 c 1
 92 579 l 2
 122 722 246 749 312 749 c 0
 402 749 515 735 515 627 c 0
 515 582 476 553 444 553 c 0xec80
-146 -128 m 0
 -146 -142 -128 -161 -106 -161 c 0
 -86 -161 -59 -142 -47 -83 c 2
 -35 -25 l 1
 -98 -46 -146 -74 -146 -128 c 0
356 500 m 1
 501 500 l 1
 429 160 l 2
 426 149 424 138 424 128 c 0
 424 106 435 91 474 91 c 0
 514 91 566 147 606 179 c 1
 640 179 l 1
 594 133 481 0 403 0 c 0
 325 0 279 34 279 109 c 0xf6
 279 125 281 141 285 160 c 2
 356 500 l 1
EndSplineSet
Substitution2: "Single Substitution lookup 8 subtable" f_i.fina
Ligature2: "'liga' Standard Ligatures in Latin lookup 4 subtable" f i
Substitution2: "'aalt' Access All Alternates in Latin lookup 0 subtable" f_i.fina
EndChar

StartChar: f_i.fina
Encoding: 1114159 -1 132
Width: 537
Flags: MW
HStem: -250 89<-113.5 -96 -117 -50> -20 20G<344.5 397> 460 40<221 314 213 322> 553 196<279 460> 691 58<329.5 357 279 375>
VStem: -201 55<-135 -101 -135 -96> 278 144<115.5 118> 376 139<604.5 620> 415 100
LayerCount: 3
Fore
SplineSet
-146 -128 m 0xf6
 -146 -142 -128 -161 -106 -161 c 0
 -86 -161 -59 -142 -47 -83 c 2
 -35 -25 l 1
 -98 -46 -146 -74 -146 -128 c 0xf6
499 500 m 1
 427 160 l 2
 424 148 422 137 422 126 c 0
 422 105 430 89 458 89 c 0
 465 89 476 89 484 92 c 1
 456 6 414 0 380 0 c 0
 309 0 278 47 278 110 c 0
 278 126 280 143 284 160 c 2
 356 500 l 1
 499 500 l 1
444 553 m 0
 403 553 376 564 376 607 c 0xf5
 376 633 388 658 406 658 c 0
 408 658 412 658 415 657 c 1
 414 683 389 691 361 691 c 0
 298 691 250 638 238 582 c 2
 221 500 l 1
 322 500 l 1
 314 460 l 1
 213 460 l 1
 99 -80 l 2
 69 -223 -17 -250 -83 -250 c 0
 -144 -250 -201 -207 -201 -142 c 0
 -201 -50 -123 -21 -28 8 c 1
 92 579 l 2
 122 722 246 749 312 749 c 0
 402 749 515 735 515 627 c 0xec80
 515 582 476 553 444 553 c 0
EndSplineSet
EndChar

StartChar: f_i_x
Encoding: 1114160 -1 133
Width: 887
Flags: MW
HStem: -250 89<-113.5 -96 -117 -50> 0 91<364 494> 427 105<776 833.5> 460 40<221 314 213 322> 553 196<279 460> 691 58<329.5 357 279 375>
VStem: -201 55<-135 -101 -135 -96> 279 145<71.5 133> 376 139<604.5 620> 415 100 746 124<411 500>
LayerCount: 3
Fore
SplineSet
444 553 m 0xd660
 403 553 376 564 376 607 c 0xdaa0
 376 633 388 658 406 658 c 0
 408 658 412 658 415 657 c 1
 414 683 389 691 361 691 c 0
 298 691 250 638 238 582 c 2
 221 500 l 1
 322 500 l 1
 314 460 l 1
 213 460 l 1
 99 -80 l 2
 69 -223 -17 -250 -83 -250 c 0
 -144 -250 -201 -207 -201 -142 c 0
 -201 -50 -123 -21 -28 8 c 1
 92 579 l 2
 122 722 246 749 312 749 c 0
 402 749 515 735 515 627 c 0
 515 582 476 553 444 553 c 0xd660
546 500 m 1
 691 500 l 1xdb20
 728 282 l 1
 770 326 808 384 810 429 c 1
 804 428 798 427 793 427 c 0
 759 427 746 452 746 483 c 0
 746 517 777 532 814 532 c 0xeb20
 853 532 870 487 870 442 c 0
 870 380 791 285 737 228 c 1
 750 155 l 2
 757 114 764 91 809 91 c 0
 849 91 901 147 941 179 c 1
 975 179 l 1
 929 133 816 0 738 0 c 0
 659 0 638 19 614 117 c 1
 551 62 458 0 403 0 c 0
 325 0 279 34 279 109 c 0
 279 125 281 141 285 160 c 2
 356 500 l 1
 501 500 l 1
 429 160 l 2
 426 149 424 138 424 128 c 0xdb20
 424 106 435 91 474 91 c 0
 514 91 564 135 603 169 c 1
 546 500 l 1
-146 -128 m 0
 -146 -142 -128 -161 -106 -161 c 0
 -86 -161 -59 -142 -47 -83 c 2
 -35 -25 l 1
 -98 -46 -146 -74 -146 -128 c 0
EndSplineSet
Ligature2: "'liga' Standard Ligatures in Latin lookup 4 subtable" f i x
EndChar

StartChar: f_i_z
Encoding: 1114161 -1 134
Width: 934
Flags: MW
HStem: -250 89<-113.5 -96 -117 -50> 0 40<726 753.5 726 769> 0 151<500 853> 349 151 460 40<221 314 213 322 674.5 701.5> 553 196<279 460> 691 58<329.5 357 279 375>
VStem: -201 55<-135 -101 -135 -96> 278 144<115.5 118> 376 139<604.5 620> 415 100 542 110<391 417.5 385.5 432.5> 775 111<81.5 109 67.5 113.5>
LayerCount: 3
Fore
SplineSet
-146 -128 m 0xd598
 -146 -142 -128 -161 -106 -161 c 0
 -86 -161 -59 -142 -47 -83 c 2
 -35 -25 l 1
 -98 -46 -146 -74 -146 -128 c 0xd598
499 500 m 1
 427 160 l 2
 424 148 422 137 422 126 c 0
 422 105 430 89 458 89 c 0
 465 89 476 89 484 92 c 1
 456 6 414 0 380 0 c 0
 309 0 278 47 278 110 c 0
 278 126 280 143 284 160 c 2
 356 500 l 1
 499 500 l 1
444 553 m 0
 403 553 376 564 376 607 c 0xd558
 376 633 388 658 406 658 c 0
 408 658 412 658 415 657 c 1
 414 683 389 691 361 691 c 0
 298 691 250 638 238 582 c 2
 221 500 l 1
 322 500 l 1
 314 460 l 1
 213 460 l 1
 99 -80 l 2
 69 -223 -17 -250 -83 -250 c 0
 -144 -250 -201 -207 -201 -142 c 0
 -201 -50 -123 -21 -28 8 c 1
 92 579 l 2
 122 722 246 749 312 749 c 0
 402 749 515 735 515 627 c 0xcb38
 515 582 476 553 444 553 c 0
793 62 m 1
 784 62 775 73 775 90 c 0
 775 137 807 151 839 151 c 0xb598
 867 151 886 125 886 93 c 0
 886 42 849 0 769 0 c 2
 500 0 l 1
 763 458 l 1
 740 459 713 460 690 460 c 0xcd98
 659 460 635 456 635 438 c 1
 644 438 652 426 652 409 c 0
 652 362 621 349 589 349 c 0
 561 349 542 375 542 407 c 0
 542 458 579 500 659 500 c 2
 928 500 l 1
 665 42 l 1
 688 41 714 40 738 40 c 0
 769 40 793 44 793 62 c 1
EndSplineSet
Ligature2: "'liga' Standard Ligatures in Latin lookup 4 subtable" f i z
EndChar

StartChar: f_l
Encoding: 64258 64258 135
Width: 579
Flags: MW
HStem: -250 89<-105.5 -88 -109 -42> 0 91<372.5 502> 460 40<229 314 221 322> 686 63<308 325.5>
VStem: -193 55<-135 -101 -135 -96> 287 145<71.5 133>
LayerCount: 3
Fore
SplineSet
-138 -128 m 0
 -138 -142 -120 -161 -98 -161 c 0
 -78 -161 -51 -142 -39 -83 c 2
 -27 -25 l 1
 -90 -46 -138 -74 -138 -128 c 0
547 680 m 1
 437 160 l 2
 434 149 432 138 432 128 c 0
 432 106 443 91 482 91 c 0
 522 91 574 147 614 179 c 1
 648 179 l 1
 602 133 489 0 411 0 c 0
 334 0 287 34 287 109 c 0
 287 124 289 141 293 160 c 2
 401 670 l 1
 375 681 332 686 319 686 c 0
 297 686 265 674 251 607 c 2
 229 500 l 1
 322 500 l 1
 314 460 l 1
 221 460 l 1
 107 -80 l 2
 77 -223 -9 -250 -75 -250 c 0
 -136 -250 -193 -207 -193 -142 c 0
 -193 -50 -115 -21 -20 8 c 1
 100 579 l 2
 130 722 217 749 282 749 c 0
 372 749 457 716 547 680 c 1
EndSplineSet
Substitution2: "Single Substitution lookup 8 subtable" f_l.fina
Ligature2: "'liga' Standard Ligatures in Latin lookup 4 subtable" f l
Substitution2: "'aalt' Access All Alternates in Latin lookup 0 subtable" f_l.fina
EndChar

StartChar: f_l.fina
Encoding: 1114162 -1 136
Width: 568
Flags: MW
HStem: -250 89<-105.5 -88 -109 -42> -20 20G<353.5 406> 460 40<229 314 221 322> 686 63<308 325.5>
VStem: -193 55<-135 -101 -135 -96> 287 144<115.5 118>
LayerCount: 3
Fore
SplineSet
-138 -128 m 0
 -138 -142 -120 -161 -98 -161 c 0
 -78 -161 -51 -142 -39 -83 c 2
 -27 -25 l 1
 -90 -46 -138 -74 -138 -128 c 0
547 680 m 1
 436 160 l 2
 433 148 431 137 431 126 c 0
 431 105 439 89 467 89 c 0
 474 89 485 89 493 92 c 1
 465 6 423 0 389 0 c 0
 318 0 287 47 287 110 c 0
 287 126 289 143 293 160 c 2
 401 670 l 1
 375 681 332 686 319 686 c 0
 297 686 265 674 251 607 c 2
 229 500 l 1
 322 500 l 1
 314 460 l 1
 221 460 l 1
 107 -80 l 2
 77 -223 -9 -250 -75 -250 c 0
 -136 -250 -193 -207 -193 -142 c 0
 -193 -50 -115 -21 -20 8 c 1
 100 579 l 2
 130 722 217 749 282 749 c 0
 372 749 457 716 547 680 c 1
EndSplineSet
EndChar

StartChar: f_l_x
Encoding: 1114163 -1 137
Width: 902
Flags: MW
HStem: -250 89<-105.5 -88 -109 -42> 0 91<372.5 501> 430 105<794 851.5> 460 40<229 314 221 322> 686 63<308 325.5>
VStem: -193 55<-135 -101 -135 -96> 287 145<71.5 133> 764 124<417 503> 828 60
LayerCount: 3
Fore
SplineSet
549 500 m 1xdf
 694 500 l 1
 740 284 l 1
 784 328 826 386 828 432 c 1xde80
 822 431 816 430 811 430 c 0
 777 430 764 455 764 486 c 0
 764 520 795 535 832 535 c 0xef
 871 535 888 493 888 448 c 0
 888 386 806 290 751 233 c 1
 768 155 l 2
 777 114 782 91 827 91 c 0
 867 91 919 147 959 179 c 1
 993 179 l 1
 947 133 834 0 756 0 c 0
 675 0 655 20 630 126 c 1
 565 70 469 0 411 0 c 0
 334 0 287 34 287 109 c 0
 287 124 289 141 293 160 c 2
 401 670 l 1
 375 681 332 686 319 686 c 0
 297 686 265 674 251 607 c 2
 229 500 l 1
 322 500 l 1
 314 460 l 1
 221 460 l 1
 107 -80 l 2
 77 -223 -9 -250 -75 -250 c 0
 -136 -250 -193 -207 -193 -142 c 0
 -193 -50 -115 -21 -20 8 c 1
 100 579 l 2
 130 722 217 749 282 749 c 0
 372 749 457 716 547 680 c 1
 437 160 l 2
 434 149 432 138 432 128 c 0
 432 106 443 91 482 91 c 0
 520 91 579 145 619 178 c 1
 549 500 l 1xdf
-138 -128 m 0
 -138 -142 -120 -161 -98 -161 c 0
 -78 -161 -51 -142 -39 -83 c 2
 -27 -25 l 1
 -90 -46 -138 -74 -138 -128 c 0
EndSplineSet
Ligature2: "'liga' Standard Ligatures in Latin lookup 4 subtable" f l x
EndChar

StartChar: f_l_z
Encoding: 1114164 -1 138
Width: 940
Flags: MW
HStem: -250 89<-105.5 -88 -109 -42> 0 40<736 763.5 736 779> 0 151<510 863> 349 151 460 40<229 314 221 322 684.5 711.5> 686 63<308 325.5>
VStem: -193 55<-135 -101 -135 -96> 287 144<115.5 118> 552 110<391 417.5 385.5 432.5> 785 111<81.5 109 67.5 113.5>
LayerCount: 3
Fore
SplineSet
-138 -128 m 0xcfc0
 -138 -142 -120 -161 -98 -161 c 0
 -78 -161 -51 -142 -39 -83 c 2
 -27 -25 l 1
 -90 -46 -138 -74 -138 -128 c 0xcfc0
547 680 m 1
 436 160 l 2
 433 148 431 137 431 126 c 0
 431 105 439 89 467 89 c 0
 474 89 485 89 493 92 c 1
 465 6 423 0 389 0 c 0
 318 0 287 47 287 110 c 0
 287 126 289 143 293 160 c 2
 401 670 l 1
 375 681 332 686 319 686 c 0
 297 686 265 674 251 607 c 2
 229 500 l 1
 322 500 l 1
 314 460 l 1
 221 460 l 1
 107 -80 l 2
 77 -223 -9 -250 -75 -250 c 0
 -136 -250 -193 -207 -193 -142 c 0
 -193 -50 -115 -21 -20 8 c 1
 100 579 l 2
 130 722 217 749 282 749 c 0
 372 749 457 716 547 680 c 1
803 62 m 1
 794 62 785 73 785 90 c 0
 785 137 817 151 849 151 c 0xb7c0
 877 151 896 125 896 93 c 0
 896 42 859 0 779 0 c 2
 510 0 l 1
 773 458 l 1
 750 459 723 460 700 460 c 0xcfc0
 669 460 645 456 645 438 c 1
 654 438 662 426 662 409 c 0
 662 362 631 349 599 349 c 0xd7c0
 571 349 552 375 552 407 c 0
 552 458 589 500 669 500 c 2
 938 500 l 1
 675 42 l 1
 698 41 724 40 748 40 c 0
 779 40 803 44 803 62 c 1
EndSplineSet
Ligature2: "'liga' Standard Ligatures in Latin lookup 4 subtable" f l z
EndChar

StartChar: f_t
Encoding: 1114165 -1 139
Width: 579
Flags: MW
HStem: -250 89<-105.5 -88 -109 -42> 0 91<358.5 488> 460 40<229 343 221 351 495 570> 686 63<308 325.5>
VStem: -193 55<-135 -101 -135 -96> 273 145<71.5 133>
LayerCount: 3
Fore
SplineSet
487 460 m 1
 423 160 l 2
 420 149 418 138 418 128 c 0
 418 106 429 91 468 91 c 0
 508 91 560 147 600 179 c 1
 634 179 l 1
 588 133 475 0 397 0 c 0
 320 0 273 34 273 109 c 0
 273 124 275 141 279 160 c 2
 343 460 l 1
 221 460 l 1
 107 -80 l 2
 77 -223 -9 -250 -75 -250 c 0
 -136 -250 -193 -207 -193 -142 c 0
 -193 -50 -115 -21 -20 8 c 1
 100 579 l 2
 130 722 217 749 282 749 c 0
 372 749 443 716 533 680 c 1
 495 500 l 1
 579 500 l 1
 570 460 l 1
 487 460 l 1
351 500 m 1
 387 670 l 1
 361 681 332 686 319 686 c 0
 297 686 265 674 251 607 c 2
 229 500 l 1
 351 500 l 1
-138 -128 m 0
 -138 -142 -120 -161 -98 -161 c 0
 -78 -161 -51 -142 -39 -83 c 2
 -27 -25 l 1
 -90 -46 -138 -74 -138 -128 c 0
EndSplineSet
Ligature2: "'liga' Standard Ligatures in Latin lookup 4 subtable" f t
EndChar

StartChar: f_u
Encoding: 1114166 -1 140
Width: 804
Flags: MW
HStem: -250 89<-114.5 -97 -118 -51> 0 91<356 476.5> 448 52<219 336 209 494> 661 88<294 303.5 240 315>
VStem: -202 55<-135 -101 -135 -96> 271 145<71.5 133> 343 48<633 638.5>
LayerCount: 3
Fore
SplineSet
219 500 m 1xfa
 494 500 l 1
 421 160 l 2
 418 149 416 138 416 128 c 0
 416 106 427 91 466 91 c 0
 487 91 513 107 538 127 c 1
 538 137 540 148 543 160 c 2
 615 500 l 1
 760 500 l 1
 687 160 l 2
 684 149 682 138 682 128 c 0
 682 106 693 91 732 91 c 0
 772 91 824 147 864 179 c 1
 898 179 l 1
 852 133 739 0 661 0 c 0
 592 0 548 26 538 84 c 1
 491 40 438 0 395 0 c 0
 317 0 271 34 271 109 c 0xfc
 271 125 273 141 277 160 c 2
 336 448 l 1
 209 448 l 1
 98 -80 l 2
 68 -223 -18 -250 -84 -250 c 0
 -145 -250 -202 -207 -202 -142 c 0
 -202 -50 -124 -21 -29 8 c 1
 91 579 l 2
 121 722 207 749 273 749 c 0
 334 749 391 706 391 641 c 0
 391 625 390 612 388 600 c 1
 341 600 l 1
 342 610 343 618 343 627 c 0
 343 650 325 661 305 661 c 0
 283 661 252 649 237 582 c 2
 219 500 l 1xfa
-147 -128 m 0
 -147 -142 -129 -161 -107 -161 c 0
 -87 -161 -60 -142 -48 -83 c 2
 -36 -25 l 1
 -99 -46 -147 -74 -147 -128 c 0
EndSplineSet
Substitution2: "Single Substitution lookup 8 subtable" f_u.fina
Ligature2: "'liga' Standard Ligatures in Latin lookup 4 subtable" f u
Substitution2: "'aalt' Access All Alternates in Latin lookup 0 subtable" f_u.fina
EndChar

StartChar: f_u.fina
Encoding: 1114167 -1 141
Width: 786
Flags: MW
HStem: -250 89<-114.5 -97 -118 -51> 0 91<356 476.5> 448 52<219 336 209 494> 661 88<294 303.5 240 315>
VStem: -202 55<-135 -101 -135 -96> 271 145<71.5 133> 343 48<633 638.5>
LayerCount: 3
Fore
SplineSet
757 500 m 1xfc
 685 160 l 2
 682 148 680 137 680 126 c 0
 680 105 688 89 716 89 c 0
 723 89 734 89 742 92 c 1
 714 6 672 0 638 0 c 0
 576 0 546 34 538 84 c 1
 491 40 438 0 395 0 c 0
 317 0 271 34 271 109 c 0xfc
 271 125 273 141 277 160 c 2
 336 448 l 1
 209 448 l 1
 98 -80 l 2
 68 -223 -18 -250 -84 -250 c 0
 -145 -250 -202 -207 -202 -142 c 0
 -202 -50 -124 -21 -29 8 c 1
 91 579 l 2
 121 722 207 749 273 749 c 0
 334 749 391 706 391 641 c 0
 391 625 390 612 388 600 c 1
 341 600 l 1
 342 610 343 618 343 627 c 0xfa
 343 650 325 661 305 661 c 0
 283 661 252 649 237 582 c 2
 219 500 l 1
 494 500 l 1
 421 160 l 2
 418 149 416 138 416 128 c 0
 416 106 427 91 466 91 c 0
 487 91 512 107 537 127 c 1
 537 137 539 148 542 160 c 2
 614 500 l 1
 757 500 l 1xfc
-147 -128 m 0
 -147 -142 -129 -161 -107 -161 c 0
 -87 -161 -60 -142 -48 -83 c 2
 -36 -25 l 1
 -99 -46 -147 -74 -147 -128 c 0
EndSplineSet
EndChar

StartChar: f_x
Encoding: 1114168 -1 142
Width: 645
Flags: MW
HStem: -250 89<-118.5 -101 -122 -55> -71 104<276 279.5> 0 33 0 91<453.5 588> 425 52<210 302 200 435> 425 99 661 88<290 299.5 236 311>
VStem: -206 55<-135 -101 -135 -96> 193 126<-21.5 -4.5 -35.5 34> 339 48<633 638.5> 508 124<459.5 461.5 408 492> 572 60
LayerCount: 3
Fore
SplineSet
384 600 m 1xabe0
 337 600 l 1
 338 610 339 619 339 627 c 0
 339 650 321 661 301 661 c 0
 279 661 248 649 233 582 c 2
 210 477 l 1
 435 477 l 1
 482 271 l 1
 527 315 570 375 572 421 c 1xcbd0
 566 420 560 419 555 419 c 0
 520 419 508 444 508 475 c 0
 508 509 540 524 576 524 c 0
 613 524 632 483 632 440 c 0
 632 376 550 279 494 221 c 1
 509 155 l 2
 518 114 523 91 568 91 c 0
 608 91 660 147 700 179 c 1
 734 179 l 1
 688 133 575 0 497 0 c 0x97e0
 410 0 395 24 366 150 c 1
 318 116 274 72 265 32 c 1
 270 33 274 33 278 33 c 0
 312 33 319 7 319 -16 c 0
 319 -55 296 -71 263 -71 c 0xcbe0
 218 -71 193 -43 193 0 c 0
 193 68 283 150 354 203 c 1
 302 425 l 1
 200 425 l 1
 94 -80 l 2
 64 -223 -22 -250 -88 -250 c 0
 -149 -250 -206 -207 -206 -142 c 0
 -206 -50 -128 -21 -33 8 c 1
 87 579 l 2
 117 722 203 749 269 749 c 0
 330 749 387 706 387 641 c 0
 387 625 386 612 384 600 c 1xabe0
-151 -128 m 0
 -151 -142 -133 -161 -111 -161 c 0
 -91 -161 -64 -142 -52 -83 c 2
 -40 -25 l 1
 -103 -46 -151 -74 -151 -128 c 0
EndSplineSet
Ligature2: "'liga' Standard Ligatures in Latin lookup 4 subtable" f x
EndChar

StartChar: f_z
Encoding: 1114169 -1 143
Width: 657
Flags: MW
HStem: -250 89<-114.5 -97 -118 -51> 0 40<451 478.5 451 494> 0 151<225 578> 349 151<300 330.5> 454 46<414 444> 661 88<294.5 303.5 240 315>
VStem: -202 55<-135 -101 -135 -96> 267 110<391 412.5 381.5 414> 343 48<633 638.5> 500 111<81.5 109 67.5 114>
LayerCount: 3
Fore
SplineSet
-147 -128 m 0xd6c0
 -147 -142 -129 -161 -107 -161 c 0
 -87 -161 -60 -142 -48 -83 c 2
 -36 -25 l 1
 -99 -46 -147 -74 -147 -128 c 0xd6c0
518 62 m 1
 509 62 500 73 500 90 c 0
 500 138 532 151 564 151 c 0xb740
 592 151 611 125 611 93 c 0
 611 42 574 0 494 0 c 2
 225 0 l 1
 482 448 l 2
 480 451 457 454 431 454 c 0xcf40
 397 454 360 450 360 438 c 1
 370 438 377 423 377 402 c 0
 377 361 347 349 314 349 c 0
 286 349 267 375 267 407 c 0xd740
 267 421 270 435 276 448 c 1
 210 448 l 1
 98 -80 l 2
 68 -223 -18 -250 -84 -250 c 0
 -145 -250 -202 -207 -202 -142 c 0
 -202 -50 -124 -21 -29 8 c 1
 91 579 l 2
 121 722 207 749 273 749 c 0
 334 749 391 706 391 641 c 0
 391 625 390 612 388 600 c 1
 341 600 l 1
 342 610 343 619 343 627 c 0
 343 650 325 661 305 661 c 0
 284 661 251 649 237 582 c 2
 220 500 l 1
 653 500 l 1
 390 42 l 1
 413 41 439 40 463 40 c 0
 494 40 518 44 518 62 c 1
EndSplineSet
Ligature2: "'liga' Standard Ligatures in Latin lookup 4 subtable" f z
EndChar

StartChar: g
Encoding: 103 103 144
Width: 495
Flags: MW
HStem: -250 78<122.5 140 119 186> -8 96<51 181> 443 56<184.5 240 125 241.5> 480 20G<312 456 456 456>
VStem: -25 123<127 194 127 201> 41 57
LayerCount: 3
Fore
SplineSet
312 500 m 1xd8
 456 500 l 1
 362 57 l 1
 426 90 483 135 516 210 c 1
 512 131 l 1
 499 66 429 29 350 0 c 1
 333 -80 l 2
 303 -223 219 -250 153 -250 c 0
 92 -250 41 -218 41 -153 c 0xd4
 41 -71 114 -38 204 -5 c 1
 214 40 l 1
 184 13 145 -8 99 -8 c 0
 3 -8 -25 73 -25 132 c 0
 -25 270 28 499 222 499 c 0xe8
 258 499 287 479 301 452 c 1
 312 500 l 1xd8
233 443 m 0xe8
 136 443 98 237 98 151 c 0
 98 103 127 88 171 88 c 0
 191 88 212 103 231 123 c 1
 290 400 l 1
 274 430 250 443 233 443 c 0xe8
96 -139 m 0
 96 -153 108 -172 130 -172 c 0
 150 -172 176 -142 188 -83 c 2
 194 -53 l 1
 137 -75 96 -100 96 -139 c 0
EndSplineSet
Substitution2: "Single Substitution lookup 8 subtable" g.fina
Substitution2: "'aalt' Access All Alternates in Latin lookup 0 subtable" g.fina
EndChar

StartChar: g.fina
Encoding: 1114170 -1 145
Width: 471
Flags: MW
HStem: -250 89<122.5 140.5 119 186> -6 83<51 180.5> 443 56<184.5 240 125 241.5> 480 20G<312 457 457 457>
VStem: -25 123<116 183 116 190> 35 63
LayerCount: 3
Fore
SplineSet
99 -6 m 0xd4
 3 -6 -25 62 -25 121 c 0
 -25 259 28 499 222 499 c 0xe8
 258 499 287 478 302 452 c 1
 312 500 l 1
 457 500 l 1
 335 -80 l 2
 305 -223 219 -250 153 -250 c 0
 92 -250 35 -207 35 -142 c 0
 35 -51 109 -36 202 -18 c 1
 214 36 l 1
 184 12 145 -6 99 -6 c 0xd4
233 443 m 0
 136 443 98 226 98 140 c 0
 98 92 127 77 171 77 c 0
 190 77 210 91 229 110 c 1
 291 400 l 1
 275 430 250 443 233 443 c 0
90 -128 m 0
 90 -142 108 -161 130 -161 c 0
 151 -161 176 -142 189 -83 c 2
 196 -50 l 1
 133 -61 90 -74 90 -128 c 0
EndSplineSet
EndChar

StartChar: g_p
Encoding: 1114171 -1 146
Width: 944
Flags: MW
HStem: -250 82<113 134 113 185.5> -8 96<51 181> 443 56<184.5 240 125 241.5> 480 20G<312 457 457 457 552 693 693 693>
VStem: -25 123<127 194 127 201> 37 61 797 115<362 405.5>
LayerCount: 3
Fore
SplineSet
312 500 m 1xda
 457 500 l 1
 358 29 l 1
 392 34 426 39 455 43 c 1
 552 500 l 1
 693 500 l 1xda
 688 478 l 1
 711 490 737 499 764 499 c 0
 869 499 912 461 912 355 c 0
 912 86 766 22 692 1 c 0
 661 -8 623 -13 585 -15 c 1
 543 -214 l 1
 393 -250 l 1
 441 -21 l 1
 412 -23 380 -23 346 -25 c 1
 335 -80 l 2
 306 -223 218 -250 153 -250 c 0
 73 -250 37 -209 37 -144 c 0xe6
 37 -70 112 -28 206 -2 c 1
 215 40 l 1
 184 13 145 -8 99 -8 c 0
 3 -8 -25 73 -25 132 c 0
 -25 270 28 499 222 499 c 0xea
 258 499 287 478 302 452 c 1
 312 500 l 1xda
233 443 m 0xea
 136 443 98 237 98 151 c 0
 98 103 127 88 171 88 c 0
 191 88 212 103 232 124 c 1
 291 400 l 1
 275 430 250 443 233 443 c 0xea
676 93 m 0
 715 111 756 150 783 272 c 0
 793 316 797 349 797 375 c 0
 797 436 772 450 740 450 c 0
 719 450 697 440 677 425 c 1
 603 71 l 1
 633 77 660 87 676 93 c 0
90 -128 m 0
 90 -142 102 -168 124 -168 c 0
 144 -168 177 -142 189 -83 c 2
 197 -44 l 1
 135 -59 90 -84 90 -128 c 0
EndSplineSet
Ligature2: "'liga' Standard Ligatures in Latin lookup 4 subtable" g p
EndChar

StartChar: g_x
Encoding: 1114172 -1 147
Width: 854
Flags: MW
HStem: -250 76<128.5 140 120 186> -20 20G -6 83<51 180.5> -6 97 419 105<757 814.5> 443 56<184.5 240 125 241.5>
VStem: -25 123<116 183 116 190> 47 51 727 124<401 492> 791 60
LayerCount: 3
Fore
SplineSet
312 500 m 1x9680
 457 500 l 1
 360 39 l 1
 441 71 521 109 572 165 c 1
 499 500 l 1
 644 500 l 1
 694 265 l 1
 742 309 789 372 791 421 c 1xa640
 785 420 779 419 774 419 c 0
 740 419 727 444 727 475 c 0
 727 509 758 524 795 524 c 0
 834 524 851 479 851 434 c 0
 851 368 759 267 705 213 c 1
 718 155 l 2
 727 114 732 91 777 91 c 0x9a80
 817 91 869 147 909 179 c 1
 943 179 l 1
 897 133 784 0 706 0 c 0
 630 0 608 17 585 105 c 1
 536 50 441 13 348 -18 c 1
 335 -80 l 2
 305 -223 219 -250 153 -250 c 0
 104 -250 47 -213 47 -160 c 0
 47 -95 114 -56 202 -20 c 1xc980
 214 35 l 1
 184 12 145 -6 99 -6 c 0
 3 -6 -25 62 -25 121 c 0
 -25 259 28 499 222 499 c 0
 258 499 287 478 302 452 c 1
 312 500 l 1x9680
233 443 m 0
 136 443 98 226 98 140 c 0
 98 92 127 77 171 77 c 0
 190 77 211 91 230 110 c 1
 291 400 l 1
 275 430 250 443 233 443 c 0
95 -144 m 0
 95 -165 110 -174 130 -174 c 0
 150 -174 176 -142 189 -83 c 2
 191 -71 l 1
 134 -93 95 -115 95 -144 c 0
EndSplineSet
Ligature2: "'liga' Standard Ligatures in Latin lookup 4 subtable" g x
EndChar

StartChar: g_z
Encoding: 1114173 -1 148
Width: 872
Flags: MW
HStem: -250 89<122.5 140.5 119 186> 0 40<641 673.5 641 699> 0 77 0 151<409 783> 349 150 443 56<184.5 240 125 241.5> 460 39 480 20G<312 457 457 457 606 875 875 875>
VStem: -25 123<116 183 116 190> 35 63 489 110<391 417.5 385.5 432.5> 705 111<81.5 109 67.5 113.5>
LayerCount: 3
Fore
SplineSet
99 -6 m 0xc170
 3 -6 -25 62 -25 121 c 0
 -25 259 28 499 222 499 c 0xc8b0
 258 499 287 478 302 452 c 1
 312 500 l 1
 457 500 l 1
 335 -80 l 2
 305 -223 219 -250 153 -250 c 0
 92 -250 35 -207 35 -142 c 0
 35 -51 109 -36 202 -18 c 1
 214 36 l 1
 184 12 145 -6 99 -6 c 0xc170
723 62 m 1
 714 62 705 73 705 90 c 0
 705 137 737 151 769 151 c 0x94b0
 797 151 816 125 816 93 c 0
 816 42 779 0 699 0 c 2
 409 0 l 1
 710 458 l 1
 687 459 660 460 637 460 c 0xc2b0
 606 460 582 456 582 438 c 1
 591 438 599 426 599 409 c 0
 599 362 568 349 536 349 c 0xc8b0
 508 349 489 375 489 407 c 0
 489 458 526 500 606 500 c 2
 875 500 l 1xc1b0
 574 42 l 1
 597 41 627 40 655 40 c 0
 692 40 723 44 723 62 c 1
233 443 m 0
 136 443 98 226 98 140 c 0
 98 92 127 77 171 77 c 0xa4b0
 190 77 210 91 229 110 c 1
 291 400 l 1
 275 430 250 443 233 443 c 0
90 -128 m 0
 90 -142 108 -161 130 -161 c 0
 151 -161 176 -142 189 -83 c 2
 196 -50 l 1
 133 -61 90 -74 90 -128 c 0
EndSplineSet
Ligature2: "'liga' Standard Ligatures in Latin lookup 4 subtable" g z
EndChar

StartChar: grave
Encoding: 96 96 149
Width: 201
Flags: MW
HStem: 561 189<83 83 83 129 24 158>
LayerCount: 3
Fore
SplineSet
83 561 m 1
 24 750 l 1
 129 750 l 1
 158 561 l 1
 83 561 l 1
EndSplineSet
EndChar

StartChar: h
Encoding: 104 104 150
Width: 515
Flags: MW
HStem: 0 91<332 462> 425 75<236 352> 680 20G
VStem: 247 145<71.5 132.5> 294 146<371 384>
LayerCount: 3
Fore
SplineSet
438 351 m 2xe8
 397 160 l 2
 394 148 392 137 392 128 c 0
 392 106 403 91 442 91 c 0
 482 91 534 147 574 179 c 1
 608 179 l 1
 562 133 449 0 371 0 c 0
 293 0 247 34 247 109 c 0xf0
 247 125 249 141 253 160 c 2
 291 340 l 2
 293 349 294 358 294 366 c 0
 294 402 275 425 248 425 c 0
 224 425 206 418 186 404 c 1
 100 0 l 1
 -44 0 l 1
 101 680 l 1
 249 700 l 1
 195 447 l 1
 236 476 282 500 325 500 c 0
 379 500 440 442 440 375 c 0
 440 367 440 359 438 351 c 2xe8
EndSplineSet
Substitution2: "Single Substitution lookup 8 subtable" h.fina
Substitution2: "'aalt' Access All Alternates in Latin lookup 0 subtable" h.fina
EndChar

StartChar: h.fina
Encoding: 1114174 -1 151
Width: 487
Flags: MW
HStem: 0 21G<-44 100 -44 -44 314.5 367> 425 75<237 354> 680 20G
VStem: 248 142<110.5 118> 294 147<369.5 379>
LayerCount: 3
Fore
SplineSet
454 92 m 1xf0
 426 6 384 0 350 0 c 0
 279 0 248 47 248 110 c 0xf0
 248 126 250 143 254 160 c 2
 292 340 l 2
 293 347 294 355 294 363 c 0
 294 395 280 425 249 425 c 0
 225 425 206 418 186 403 c 1
 100 0 l 1
 -44 0 l 1
 101 680 l 1
 249 700 l 1
 195 446 l 1
 236 476 282 500 326 500 c 0
 382 500 441 439 441 373 c 0xe8
 441 366 441 358 439 351 c 2
 398 160 l 2
 395 147 390 132 390 119 c 0
 390 102 398 89 428 89 c 0
 435 89 446 89 454 92 c 1xf0
EndSplineSet
EndChar

StartChar: hyphen
Encoding: 45 45 152
Width: 290
Flags: MW
HStem: 222 79<37 220 19 237>
LayerCount: 3
Fore
SplineSet
237 301 m 1
 220 222 l 1
 19 222 l 1
 37 301 l 1
 237 301 l 1
EndSplineSet
EndChar

StartChar: i
Encoding: 105 105 153
Width: 269
Flags: MW
HStem: 0 91<72.5 202> 553 159<140 184>
VStem: -14 146<71.5 133.5> 83 159<610 654>
LayerCount: 3
Fore
SplineSet
64 500 m 1xe0
 208 500 l 1
 136 160 l 2
 134 149 132 138 132 129 c 0
 132 107 142 91 182 91 c 0
 222 91 274 147 314 179 c 1
 348 179 l 1
 302 133 189 0 111 0 c 0
 34 0 -14 34 -14 109 c 0
 -14 124 -12 141 -8 160 c 2
 64 500 l 1xe0
83 632 m 0xd0
 83 676 118 712 162 712 c 0
 206 712 242 676 242 632 c 0
 242 588 206 553 162 553 c 0
 118 553 83 588 83 632 c 0xd0
EndSplineSet
Substitution2: "Single Substitution lookup 8 subtable" i.fina
Substitution2: "'aalt' Access All Alternates in Latin lookup 0 subtable" i.fina
EndChar

StartChar: i.fina
Encoding: 1114175 -1 154
Width: 249
Flags: MW
HStem: 0 21G<63.5 116> 553 159<145 189>
VStem: -3 144<115.5 118> 88 159<610 654>
LayerCount: 3
Fore
SplineSet
88 632 m 0xd0
 88 676 123 712 167 712 c 0
 211 712 247 676 247 632 c 0
 247 588 211 553 167 553 c 0
 123 553 88 588 88 632 c 0xd0
218 500 m 1
 146 160 l 2
 143 148 141 137 141 126 c 0
 141 105 149 89 177 89 c 0
 184 89 195 89 203 92 c 1
 175 6 133 0 99 0 c 0
 28 0 -3 47 -3 110 c 0xe0
 -3 126 -1 143 3 160 c 2
 75 500 l 1
 218 500 l 1
EndSplineSet
EndChar

StartChar: i_j
Encoding: 307 307 155
Width: 497
Flags: MW
HStem: -250 89<133.5 151 130 197> -20 20G<-31 112 -31 -31> 553 159<145 189> 694 20G<391 435>
VStem: 46 55<-135 -101 -135 -96> 88 159<610 654> 334 159<612 656>
LayerCount: 3
Fore
SplineSet
323 500 m 1xea
 467 500 l 1
 374 62 l 1
 436 92 493 136 527 210 c 1
 523 131 l 1
 510 68 442 38 364 16 c 1
 344 -80 l 2
 314 -223 230 -250 164 -250 c 0
 103 -250 46 -207 46 -142 c 0
 46 -50 123 -20 218 8 c 1
 323 500 l 1xea
218 500 m 1
 112 0 l 1
 -31 0 l 1
 75 500 l 1
 218 500 l 1
88 632 m 0xe6
 88 676 123 712 167 712 c 0
 211 712 247 676 247 632 c 0
 247 588 211 553 167 553 c 0
 123 553 88 588 88 632 c 0xe6
334 634 m 0
 334 678 369 714 413 714 c 0xda
 457 714 493 678 493 634 c 0
 493 590 457 555 413 555 c 0
 369 555 334 590 334 634 c 0
101 -128 m 0
 101 -142 119 -161 141 -161 c 0
 161 -161 187 -142 199 -83 c 2
 211 -25 l 1
 148 -46 101 -74 101 -128 c 0
EndSplineSet
Substitution2: "Single Substitution lookup 8 subtable" i_j.fina
Ligature2: "'liga' Standard Ligatures in Latin lookup 4 subtable" i j
Substitution2: "'aalt' Access All Alternates in Latin lookup 0 subtable" i_j.fina
EndChar

StartChar: i_j.fina
Encoding: 1114176 -1 156
Width: 482
Flags: MW
HStem: -250 89<133.5 151 130 197> -20 20G<-31 112 -31 -31> 553 159<145 189> 694 20G<396 440>
VStem: 46 55<-135 -101 -135 -95.5> 88 159<610 654> 339 159<612 656>
LayerCount: 3
Fore
SplineSet
219 8 m 1xea
 323 500 l 1
 468 500 l 1
 346 -80 l 2
 316 -223 230 -250 164 -250 c 0
 103 -250 46 -207 46 -142 c 0
 46 -49 124 -20 219 8 c 1xea
218 500 m 1
 112 0 l 1
 -31 0 l 1
 75 500 l 1
 218 500 l 1
88 632 m 0xe6
 88 676 123 712 167 712 c 0
 211 712 247 676 247 632 c 0
 247 588 211 553 167 553 c 0
 123 553 88 588 88 632 c 0xe6
339 634 m 0
 339 678 374 714 418 714 c 0xda
 462 714 498 678 498 634 c 0
 498 590 462 555 418 555 c 0
 374 555 339 590 339 634 c 0
101 -128 m 0
 101 -142 119 -161 141 -161 c 0
 161 -161 188 -142 200 -83 c 2
 212 -24 l 1
 149 -45 101 -74 101 -128 c 0
EndSplineSet
EndChar

StartChar: i_s
Encoding: 1114177 -1 157
Width: 625
Flags: MW
HStem: 0 59<341 369 325.5 433.5> 0 81<79 171.5> 553 159<145 189>
VStem: -6 142<101.5 117 101.5 117> 88 159<610 654> 216 51<128 143 113.5 169.5> 216 153<128 214> 388 125 435 78 435 146<174 174 174 209>
LayerCount: 3
Fore
SplineSet
71 500 m 1xb440
 216 500 l 1
 144 160 l 2
 140 143 136 124 136 110 c 0
 136 93 142 81 162 81 c 0
 181 81 199 101 216 128 c 1
 216 211 252 257 292 260 c 1
 328 325 351 414 368 490 c 1
 513 520 l 1
 513 506 l 2x75
 513 341 580 291 581 174 c 1
 580 153 l 1
 608 178 633 204 645 218 c 1
 671 184 l 1
 643 162 603 127 563 93 c 1
 537 38 480 0 387 0 c 0
 295 0 240 20 222 79 c 1
 189 35 152 0 118 0 c 0
 40 0 -6 34 -6 109 c 0
 -6 125 -4 141 0 160 c 2
 71 500 l 1xb440
369 199 m 0xb3
 369 161 338 135 303 135 c 0
 291 135 279 137 267 143 c 1
 267 84 299 59 352 59 c 0
 386 59 435 101 435 178 c 0xb480
 435 240 390 293 388 418 c 1
 372 369 358 305 336 255 c 1
 360 247 369 229 369 199 c 0xb3
88 632 m 0xa9
 88 676 123 712 167 712 c 0
 211 712 247 676 247 632 c 0
 247 588 211 553 167 553 c 0
 123 553 88 588 88 632 c 0xa9
EndSplineSet
Substitution2: "Single Substitution lookup 8 subtable" i_s.fina
Ligature2: "'liga' Standard Ligatures in Latin lookup 4 subtable" i s
Substitution2: "'aalt' Access All Alternates in Latin lookup 0 subtable" i_s.fina
EndChar

StartChar: i_s.fina
Encoding: 1114178 -1 158
Width: 606
Flags: MW
HStem: 0 59<341 369 325.5 454.5> 0 81<79 171.5> 553 159<145 189>
VStem: -6 142<101.5 117 101.5 117> 88 159<610 654> 216 51<128 143 113.5 169> 216 153<128 214> 388 120 435 73 435 146<139.5 209>
LayerCount: 3
Fore
SplineSet
71 500 m 1xb440
 216 500 l 1
 144 160 l 2
 140 143 136 124 136 110 c 0
 136 93 142 81 162 81 c 0
 181 81 199 101 216 128 c 1
 216 210 252 256 292 259 c 1
 326 324 346 412 363 488 c 1
 508 518 l 1
 508 504 l 2x75
 508 339 581 291 581 174 c 0
 581 81 522 0 387 0 c 0
 295 0 240 20 222 79 c 1
 189 35 152 0 118 0 c 0
 40 0 -6 34 -6 109 c 0
 -6 125 -4 141 0 160 c 2
 71 500 l 1xb440
369 199 m 0xb3
 368 161 338 135 303 135 c 0
 291 135 279 137 267 143 c 1
 267 84 299 59 352 59 c 0
 386 59 435 101 435 178 c 0xb480
 435 240 390 293 388 418 c 1
 372 369 358 305 336 255 c 1
 360 247 369 229 369 199 c 0xb3
88 632 m 0xa9
 88 676 123 712 167 712 c 0
 211 712 247 676 247 632 c 0
 247 588 211 553 167 553 c 0
 123 553 88 588 88 632 c 0xa9
EndSplineSet
EndChar

StartChar: i_s_x
Encoding: 1114179 -1 159
Width: 959
Flags: MW
HStem: 0 59<343.5 372 328.5 436.5> 0 81<79 172> 442 105<845 903> 553 159<145 189>
VStem: -6 142<102 117> 88 159<610 654> 219 51<133 144 114.5 172.5> 219 153<133 214> 391 125 438 78 438 145<153 209> 815 124<482.5 486.5 431 515> 879 60
LayerCount: 3
Fore
SplineSet
581 500 m 1xba30
 726 500 l 1
 777 295 l 1
 827 337 877 395 879 444 c 1xb988
 873 443 867 442 862 442 c 0
 828 442 815 467 815 498 c 0
 815 532 846 547 883 547 c 0
 923 547 939 509 939 464 c 0
 939 398 845 301 790 246 c 1
 813 155 l 2
 823 114 830 91 875 91 c 0
 915 91 967 147 1007 179 c 1
 1041 179 l 1
 995 133 882 0 804 0 c 0
 716 0 691 24 666 155 c 1
 661 174 l 1
 635 152 601 122 566 93 c 1
 540 38 483 0 390 0 c 0
 297 0 242 21 225 82 c 1
 190 37 152 0 118 0 c 0
 40 0 -6 34 -6 109 c 0
 -6 125 -4 141 0 160 c 2
 71 500 l 1
 216 500 l 1
 144 160 l 2
 140 143 136 125 136 111 c 0
 136 93 142 81 162 81 c 0
 182 81 201 103 219 133 c 1
 219 212 255 257 295 260 c 1
 331 325 354 414 371 490 c 1
 516 520 l 1
 516 506 l 2x7990
 516 341 583 291 583 153 c 1
 611 178 636 204 648 218 c 1
 651 213 l 1
 581 500 l 1xba30
372 199 m 0
 372 161 341 135 306 135 c 0
 294 135 282 138 270 144 c 1
 270 85 302 59 355 59 c 0
 389 59 438 101 438 178 c 0xba50
 438 240 393 293 391 418 c 1
 375 369 361 305 339 255 c 1
 363 247 372 229 372 199 c 0
88 632 m 0xb490
 88 676 123 712 167 712 c 0
 211 712 247 676 247 632 c 0
 247 588 211 553 167 553 c 0
 123 553 88 588 88 632 c 0xb490
EndSplineSet
Ligature2: "'liga' Standard Ligatures in Latin lookup 4 subtable" i s x
EndChar

StartChar: i_s_z
Encoding: 1114180 -1 160
Width: 990
Flags: MW
HStem: 0 40<775 802.5 775 818> 0 59<330.5 358 321.5 443.5> 0 81<69 159.5> 0 151<549 902> 460 40<723.5 750.5> 553 159<135 179>
VStem: -16 142<101.5 117 101.5 117> 78 159<610 654> 205 50<128 129.5 105.5 169> 205 153<128 214> 377 120 424 73 424 146<139.5 209> 591 110<391 417.5 385.5 432.5> 824 111<81.5 109 67.5 113.5>
LayerCount: 3
Fore
SplineSet
61 500 m 1x8e8e
 206 500 l 1
 134 160 l 2
 130 143 126 124 126 110 c 0
 126 93 132 81 150 81 c 0
 169 81 187 101 205 128 c 1
 205 210 241 256 281 259 c 1
 315 324 335 412 352 488 c 1
 497 518 l 1
 497 504 l 2x2e66
 497 339 570 291 570 174 c 0
 570 81 511 0 376 0 c 0
 285 0 230 20 212 78 c 1
 178 35 141 0 108 0 c 0
 30 0 -16 34 -16 109 c 0
 -16 125 -14 141 -10 160 c 2
 61 500 l 1x8e8e
842 62 m 1
 833 62 824 73 824 90 c 0
 824 137 856 151 888 151 c 0x1e66
 916 151 935 125 935 93 c 0
 935 42 898 0 818 0 c 2
 549 0 l 1
 812 458 l 1
 789 459 762 460 739 460 c 0
 708 460 684 456 684 438 c 1
 693 438 701 426 701 409 c 0
 701 362 670 349 638 349 c 0
 610 349 591 375 591 407 c 0
 591 458 628 500 708 500 c 2
 977 500 l 1
 714 42 l 1
 737 41 763 40 787 40 c 0x8ea6
 818 40 842 44 842 62 c 1
358 199 m 0
 357 161 327 135 292 135 c 0
 280 135 269 138 257 143 c 1
 256 138 255 132 255 127 c 0
 255 84 302 59 341 59 c 0
 375 59 424 101 424 178 c 0x4e96
 424 240 379 293 377 418 c 1
 361 369 347 305 325 255 c 1
 349 247 358 229 358 199 c 0
78 632 m 0x8d26
 78 676 113 712 157 712 c 0
 201 712 237 676 237 632 c 0
 237 588 201 553 157 553 c 0
 113 553 78 588 78 632 c 0x8d26
EndSplineSet
Ligature2: "'liga' Standard Ligatures in Latin lookup 4 subtable" i s z
EndChar

StartChar: i_x
Encoding: 1114181 -1 161
Width: 611
Flags: MW
HStem: 0 79<82 181.5> 0 91<426.5 557> 459 105<524.5 577.5> 553 159<145 189>
VStem: -6 144<106 117.5> 88 159<610 654> 495 118<499.5 510.5 462 532>
LayerCount: 3
Fore
SplineSet
259 500 m 1xaa
 404 500 l 1
 450 283 l 1
 507 347 550 413 559 461 c 1
 553 460 547 459 542 459 c 0
 507 459 495 484 495 515 c 0
 495 549 527 564 563 564 c 0
 592 564 613 535 613 486 c 0
 613 438 566 350 461 234 c 1
 478 155 l 2
 487 114 492 91 537 91 c 0x66
 577 91 629 147 669 179 c 1
 703 179 l 1
 657 133 544 0 466 0 c 0
 387 0 366 19 342 117 c 1
 263 50 182 0 121 0 c 0
 43 0 -6 34 -6 110 c 0
 -6 125 -4 142 0 160 c 2
 71 500 l 1
 216 500 l 1
 144 160 l 2
 142 151 138 132 138 116 c 0
 138 96 143 79 161 79 c 0
 202 79 266 115 331 168 c 1
 259 500 l 1xaa
88 632 m 0
 88 676 123 712 167 712 c 0
 211 712 247 676 247 632 c 0
 247 588 211 553 167 553 c 0x96
 123 553 88 588 88 632 c 0
EndSplineSet
Ligature2: "'liga' Standard Ligatures in Latin lookup 4 subtable" i x
EndChar

StartChar: i_z
Encoding: 1114182 -1 162
Width: 648
Flags: MW
HStem: 0 40<421 448.5 421 464> 0 151<195 548> 349 151<58 300> 460 40<369.5 396.5> 553 159<128 172>
VStem: -20 144<115.5 118> 71 159<610 654> 237 110<391 417.5 385.5 432.5> 470 111<81.5 109 67.5 113.5>
LayerCount: 3
Fore
SplineSet
71 632 m 0xab80
 71 676 106 712 150 712 c 0
 194 712 230 676 230 632 c 0
 230 588 194 553 150 553 c 0
 106 553 71 588 71 632 c 0xab80
201 500 m 1
 129 160 l 2
 126 148 124 137 124 126 c 0
 124 105 132 89 160 89 c 0
 167 89 178 89 186 92 c 1
 158 6 116 0 82 0 c 0
 11 0 -20 47 -20 110 c 0xad80
 -20 126 -18 143 -14 160 c 2
 58 500 l 1
 201 500 l 1
488 62 m 1
 479 62 470 73 470 90 c 0
 470 137 502 151 534 151 c 0x6d80
 562 151 581 125 581 93 c 0
 581 42 544 0 464 0 c 2
 195 0 l 1
 458 458 l 1
 435 459 408 460 385 460 c 0x9d80
 354 460 330 456 330 438 c 1
 339 438 347 426 347 409 c 0
 347 362 316 349 284 349 c 0
 256 349 237 375 237 407 c 0
 237 458 274 500 354 500 c 2
 623 500 l 1
 360 42 l 1
 383 41 409 40 433 40 c 0
 464 40 488 44 488 62 c 1
EndSplineSet
Ligature2: "'liga' Standard Ligatures in Latin lookup 4 subtable" i z
EndChar

StartChar: iacute
Encoding: 237 237 163
Width: 255
Flags: MW
HStem: 0 91<79 209> 730 20G<206 311 311 311>
VStem: -6 145<71.5 133>
LayerCount: 3
Fore
SplineSet
71 500 m 1
 216 500 l 1
 144 160 l 2
 141 149 139 138 139 128 c 0
 139 106 150 91 189 91 c 0
 229 91 281 147 321 179 c 1
 355 179 l 1
 309 133 196 0 118 0 c 0
 40 0 -6 34 -6 109 c 0
 -6 125 -4 141 0 160 c 2
 71 500 l 1
115 561 m 1
 206 750 l 1
 311 750 l 1
 190 561 l 1
 115 561 l 1
EndSplineSet
Substitution2: "Single Substitution lookup 8 subtable" iacute.fina
Substitution2: "'aalt' Access All Alternates in Latin lookup 0 subtable" iacute.fina
EndChar

StartChar: iacute.fina
Encoding: 1114183 -1 164
Width: 252
Flags: MW
HStem: 0 21G<63.5 116> 730 20G<206 311 311 311>
VStem: -3 144<115.5 118>
LayerCount: 3
Fore
SplineSet
218 500 m 1
 146 160 l 2
 143 148 141 137 141 126 c 0
 141 105 149 89 177 89 c 0
 184 89 195 89 203 92 c 1
 175 6 133 0 99 0 c 0
 28 0 -3 47 -3 110 c 0
 -3 126 -1 143 3 160 c 2
 75 500 l 1
 218 500 l 1
115 561 m 1
 206 750 l 1
 311 750 l 1
 190 561 l 1
 115 561 l 1
EndSplineSet
EndChar

StartChar: iacute_s
Encoding: 1114184 -1 165
Width: 625
Flags: MW
HStem: 0 59<341 369 325.5 433.5> 0 81<79 169.5> 730 20G<204 309 309 309>
VStem: -6 139<98.5 113.5 98.5 117> 216 51<130 143 113.5 170.5> 216 153<130 214> 388 125 435 78 435 146<174 174 174 209>
LayerCount: 3
Fore
SplineSet
71 500 m 1xb880
 216 500 l 1
 144 160 l 2
 140 141 133 121 133 106 c 0
 133 91 140 81 160 81 c 0
 179 81 198 102 216 130 c 1
 216 211 252 257 292 260 c 1
 328 325 351 414 368 490 c 1
 513 520 l 1
 513 506 l 2x7a
 513 341 580 291 581 174 c 1
 580 153 l 1
 608 178 633 204 645 218 c 1
 671 184 l 1
 643 162 603 127 563 93 c 1
 537 38 480 0 387 0 c 0
 295 0 240 20 222 79 c 1
 189 35 152 0 118 0 c 0
 40 0 -6 34 -6 109 c 0
 -6 125 -4 141 0 160 c 2
 71 500 l 1xb880
369 199 m 0xb6
 369 161 338 135 303 135 c 0
 291 135 279 137 267 143 c 1
 267 84 299 59 352 59 c 0
 386 59 435 101 435 178 c 0xb9
 435 240 390 293 388 418 c 1
 372 369 358 305 336 255 c 1
 360 247 369 229 369 199 c 0xb6
113 561 m 1
 204 750 l 1
 309 750 l 1
 188 561 l 1
 113 561 l 1
EndSplineSet
Substitution2: "Single Substitution lookup 8 subtable" iacute_s.fina
Ligature2: "'liga' Standard Ligatures in Latin lookup 4 subtable" iacute s
Substitution2: "'aalt' Access All Alternates in Latin lookup 0 subtable" iacute_s.fina
EndChar

StartChar: iacute_s.fina
Encoding: 1114185 -1 166
Width: 600
Flags: MW
HStem: 0 59<341 369 325.5 454.5> 0 81<79 169.5> 730 20G<206 311 311 311>
VStem: -6 139<98.5 113.5 98.5 117> 216 51<130 143 113.5 170> 216 153<130 214> 388 120 435 73 435 146<139.5 209>
LayerCount: 3
Fore
SplineSet
71 500 m 1xb880
 216 500 l 1
 144 160 l 2
 140 141 133 121 133 106 c 0
 133 91 140 81 160 81 c 0
 179 81 198 102 216 130 c 1
 216 210 252 256 292 259 c 1
 326 324 346 412 363 488 c 1
 508 518 l 1
 508 504 l 2x7a
 508 339 581 291 581 174 c 0
 581 81 522 0 387 0 c 0
 295 0 240 20 222 79 c 1
 189 35 152 0 118 0 c 0
 40 0 -6 34 -6 109 c 0
 -6 125 -4 141 0 160 c 2
 71 500 l 1xb880
369 199 m 0xb6
 368 161 338 135 303 135 c 0
 291 135 279 137 267 143 c 1
 267 84 299 59 352 59 c 0
 386 59 435 101 435 178 c 0xb9
 435 240 390 293 388 418 c 1
 372 369 358 305 336 255 c 1
 360 247 369 229 369 199 c 0xb6
115 561 m 1
 206 750 l 1
 311 750 l 1
 190 561 l 1
 115 561 l 1
EndSplineSet
EndChar

StartChar: iacute_s_x
Encoding: 1114186 -1 167
Width: 959
Flags: MW
HStem: 0 59<343.5 372 328.5 436.5> 0 81<79 170> 442 105<845 902.5> 730 20G<206 311 311 311>
VStem: -6 139<98.5 113.5 98.5 117> 219 51 219 153 391 125 438 78 438 146<170.5 209> 815 124<424.5 515> 879 60
LayerCount: 3
Fore
SplineSet
581 500 m 1xbc60
 726 500 l 1
 777 295 l 1
 827 337 877 395 879 444 c 1xbb10
 873 443 867 442 862 442 c 0
 828 442 815 467 815 498 c 0
 815 532 846 547 883 547 c 0
 922 547 939 502 939 457 c 0
 939 392 845 298 790 246 c 1
 813 155 l 2
 823 114 830 91 875 91 c 0
 915 91 967 147 1007 179 c 1
 1041 179 l 1
 995 133 882 0 804 0 c 0
 716 0 691 24 666 155 c 1
 661 174 l 1
 635 152 601 122 566 93 c 1
 540 38 483 0 390 0 c 0
 297 0 242 21 225 82 c 1
 190 37 152 0 118 0 c 0
 40 0 -6 34 -6 109 c 0
 -6 125 -4 141 0 160 c 2
 71 500 l 1
 216 500 l 1
 144 160 l 2
 140 141 133 121 133 106 c 0
 133 91 140 81 160 81 c 0
 180 81 200 104 219 135 c 1
 220 212 256 257 295 260 c 1
 331 325 354 414 371 490 c 1
 516 520 l 1
 516 506 l 2x7b20
 516 341 584 291 584 174 c 0
 584 167 584 160 583 153 c 1
 611 178 636 204 648 218 c 1
 581 500 l 1xbc60
372 199 m 0
 372 161 341 135 306 135 c 0
 294 135 282 138 270 144 c 1
 270 85 302 59 355 59 c 0
 389 59 438 101 438 178 c 0xbca0
 438 240 393 293 391 418 c 1
 375 369 361 305 339 255 c 1
 363 247 372 229 372 199 c 0
115 561 m 1
 206 750 l 1
 311 750 l 1
 190 561 l 1
 115 561 l 1
EndSplineSet
Ligature2: "'liga' Standard Ligatures in Latin lookup 4 subtable" iacute s x
EndChar

StartChar: iacute_s_z
Encoding: 1114187 -1 168
Width: 989
Flags: MW
HStem: 0 40<771 798.5 771 814> 0 59<326.5 354 317.5 439.5> 0 81<65 155.5> 0 151<545 898> 349 151 460 40<719.5 746.5> 730 20G<192 297 297 297>
VStem: -20 140<98.5 113.5 98.5 117> 201 50<128 129.5 105.5 169> 201 153<128 214> 373 120 420 73 420 146<139.5 209> 587 110<391 417.5 385.5 432.5> 820 111<81.5 109 67.5 113.5>
LayerCount: 3
Fore
SplineSet
57 500 m 1x8b8e
 202 500 l 1
 130 160 l 2
 126 141 120 121 120 106 c 0
 120 91 126 81 146 81 c 0
 165 81 183 101 201 128 c 1
 201 210 237 256 277 259 c 1
 311 324 331 412 348 488 c 1
 493 518 l 1
 493 504 l 2x2b66
 493 339 566 291 566 174 c 0
 566 81 507 0 372 0 c 0
 281 0 226 20 208 78 c 1
 174 35 137 0 104 0 c 0
 26 0 -20 34 -20 109 c 0
 -20 125 -18 141 -14 160 c 2
 57 500 l 1x8b8e
838 62 m 1
 829 62 820 73 820 90 c 0
 820 137 852 151 884 151 c 0x1b66
 912 151 931 125 931 93 c 0
 931 42 894 0 814 0 c 2
 545 0 l 1
 808 458 l 1
 785 459 758 460 735 460 c 0x87a6
 704 460 680 456 680 438 c 1
 689 438 697 426 697 409 c 0
 697 362 666 349 634 349 c 0
 606 349 587 375 587 407 c 0
 587 458 624 500 704 500 c 2
 973 500 l 1
 710 42 l 1
 733 41 759 40 783 40 c 0x8ba6
 814 40 838 44 838 62 c 1
354 199 m 0
 353 161 323 135 288 135 c 0
 276 135 265 138 253 143 c 1
 252 138 251 132 251 127 c 0
 251 84 298 59 337 59 c 0
 371 59 420 101 420 178 c 0x4b96
 420 240 375 293 373 418 c 1
 357 369 343 305 321 255 c 1
 345 247 354 229 354 199 c 0
101 561 m 1
 192 750 l 1
 297 750 l 1
 176 561 l 1
 101 561 l 1
EndSplineSet
Ligature2: "'liga' Standard Ligatures in Latin lookup 4 subtable" iacute s z
EndChar

StartChar: iacute_x
Encoding: 1114188 -1 169
Width: 611
Flags: MW
HStem: 0 79<82 181.5> 0 91<426.5 557> 459 105<524.5 574> 730 20G<213 318 318 318>
VStem: -6 145<109 117.5> 495 118<499.5 518.5 466 532>
LayerCount: 3
Fore
SplineSet
259 500 m 1xbc
 404 500 l 1
 450 283 l 1
 507 347 550 413 559 461 c 1
 553 460 547 459 542 459 c 0
 507 459 495 484 495 515 c 0
 495 549 527 564 563 564 c 0
 585 564 613 543 613 494 c 0
 613 438 571 356 461 234 c 1
 478 155 l 2
 487 114 492 91 537 91 c 0x7c
 577 91 629 147 669 179 c 1
 703 179 l 1
 657 133 544 0 466 0 c 0
 387 0 366 19 342 117 c 1
 263 50 182 0 121 0 c 0
 43 0 -6 34 -6 110 c 0
 -6 125 -4 142 0 160 c 2
 71 500 l 1
 216 500 l 1
 144 160 l 2
 141 149 139 134 139 120 c 0
 139 98 145 79 161 79 c 0
 202 79 266 115 331 168 c 1
 259 500 l 1xbc
122 561 m 1
 213 750 l 1
 318 750 l 1
 197 561 l 1
 122 561 l 1
EndSplineSet
Ligature2: "'liga' Standard Ligatures in Latin lookup 4 subtable" iacute x
EndChar

StartChar: iacute_z
Encoding: 1114189 -1 170
Width: 652
Flags: MW
HStem: 0 40<428 455.5 428 471> 0 151<202 555> 349 151<61 307> 460 40<376.5 403.5> 730 20G<192 297 297 297>
VStem: -17 144<115.5 118> 244 110<391 417.5 385.5 432.5> 477 111<81.5 109 67.5 113.5>
LayerCount: 3
Fore
SplineSet
495 62 m 1xaf
 486 62 477 73 477 90 c 0
 477 137 509 151 541 151 c 0x6f
 569 151 588 125 588 93 c 0
 588 42 551 0 471 0 c 2
 202 0 l 1
 465 458 l 1
 442 459 415 460 392 460 c 0x9f
 361 460 337 456 337 438 c 1
 346 438 354 426 354 409 c 0
 354 362 323 349 291 349 c 0
 263 349 244 375 244 407 c 0
 244 458 281 500 361 500 c 2
 630 500 l 1
 367 42 l 1
 390 41 416 40 440 40 c 0
 471 40 495 44 495 62 c 1xaf
204 500 m 1
 132 160 l 2
 129 148 127 137 127 126 c 0
 127 105 135 89 163 89 c 0
 170 89 181 89 189 92 c 1
 161 6 119 0 85 0 c 0
 14 0 -17 47 -17 110 c 0
 -17 126 -15 143 -11 160 c 2
 61 500 l 1
 204 500 l 1
101 561 m 1
 192 750 l 1
 297 750 l 1
 176 561 l 1
 101 561 l 1
EndSplineSet
Ligature2: "'liga' Standard Ligatures in Latin lookup 4 subtable" iacute z
EndChar

StartChar: icircumflex
Encoding: 238 238 171
Width: 269
Flags: MW
HStem: 0 91<79 209> 730 20G<205 226 226 226>
VStem: -6 145<71.5 133>
LayerCount: 3
Fore
SplineSet
71 500 m 1
 216 500 l 1
 144 160 l 2
 141 149 139 138 139 128 c 0
 139 106 150 91 189 91 c 0
 229 91 281 147 321 179 c 1
 355 179 l 1
 309 133 196 0 118 0 c 0
 40 0 -6 34 -6 109 c 0
 -6 125 -4 141 0 160 c 2
 71 500 l 1
286 561 m 1
 254 561 l 1
 194 641 l 1
 37 561 l 1
 -7 561 l 1
 205 750 l 1
 226 750 l 1
 286 561 l 1
EndSplineSet
EndChar

StartChar: idieresis
Encoding: 239 239 172
Width: 269
Flags: MW
HStem: 0 91<79 209> 573 122<64 97.5 244 277.5>
VStem: -6 148 20 122<617 650.5> 200 122<617 650.5>
LayerCount: 3
Fore
SplineSet
71 500 m 1xe8
 216 500 l 1
 144 160 l 2
 141 149 139 138 139 128 c 0
 139 106 150 91 189 91 c 0
 229 91 281 147 321 179 c 1
 355 179 l 1
 309 133 196 0 118 0 c 0
 40 0 -6 34 -6 109 c 0
 -6 125 -4 141 0 160 c 2
 71 500 l 1xe8
20 634 m 0xd8
 20 667 47 695 81 695 c 0
 114 695 142 667 142 634 c 0
 142 600 114 573 81 573 c 0
 47 573 20 600 20 634 c 0xd8
200 634 m 0
 200 667 227 695 261 695 c 0
 294 695 322 667 322 634 c 0
 322 600 294 573 261 573 c 0
 227 573 200 600 200 634 c 0
EndSplineSet
EndChar

StartChar: igrave
Encoding: 236 236 173
Width: 269
Flags: MW
HStem: 0 91<79 209> 561 189<126 126 126 172 67 201>
VStem: -6 145<71.5 133>
LayerCount: 3
Fore
SplineSet
71 500 m 1
 216 500 l 1
 144 160 l 2
 141 149 139 138 139 128 c 0
 139 106 150 91 189 91 c 0
 229 91 281 147 321 179 c 1
 355 179 l 1
 309 133 196 0 118 0 c 0
 40 0 -6 34 -6 109 c 0
 -6 125 -4 141 0 160 c 2
 71 500 l 1
126 561 m 1
 67 750 l 1
 172 750 l 1
 201 561 l 1
 126 561 l 1
EndSplineSet
EndChar

StartChar: j
Encoding: 106 106 174
Width: 221
Flags: MW
HStem: -250 89<-135.5 -118 -139 -72> 555 159<122 166>
VStem: -223 55<-135 -101 -135 -96> 65 159<612 656>
LayerCount: 3
Fore
SplineSet
54 500 m 1
 198 500 l 1
 105 62 l 1
 167 92 224 136 258 210 c 1
 254 131 l 1
 241 68 173 38 95 16 c 1
 75 -80 l 2
 45 -223 -39 -250 -105 -250 c 0
 -166 -250 -223 -207 -223 -142 c 0
 -223 -50 -145 -20 -51 8 c 1
 54 500 l 1
65 634 m 0
 65 678 100 714 144 714 c 0
 188 714 224 678 224 634 c 0
 224 590 188 555 144 555 c 0
 100 555 65 590 65 634 c 0
-168 -128 m 0
 -168 -142 -150 -161 -128 -161 c 0
 -108 -161 -82 -142 -70 -83 c 2
 -58 -25 l 1
 -120 -46 -168 -74 -168 -128 c 0
EndSplineSet
Substitution2: "Single Substitution lookup 8 subtable" j.fina
Substitution2: "'aalt' Access All Alternates in Latin lookup 0 subtable" j.fina
EndChar

StartChar: j.fina
Encoding: 1114190 -1 175
Width: 237
Flags: MW
HStem: -250 89<-135.5 -117.5 -139 -72> 555 159<127 171>
VStem: -223 55<-135 -101 -135 -95.5> 70 159<612 656>
LayerCount: 3
Fore
SplineSet
-49 8 m 1
 54 500 l 1
 199 500 l 1
 77 -80 l 2
 47 -223 -39 -250 -105 -250 c 0
 -166 -250 -223 -207 -223 -142 c 0
 -223 -49 -145 -20 -49 8 c 1
70 634 m 0
 70 678 105 714 149 714 c 0
 193 714 229 678 229 634 c 0
 229 590 193 555 149 555 c 0
 105 555 70 590 70 634 c 0
-168 -128 m 0
 -168 -142 -150 -161 -128 -161 c 0
 -107 -161 -82 -142 -69 -83 c 2
 -56 -24 l 1
 -120 -45 -168 -74 -168 -128 c 0
EndSplineSet
EndChar

StartChar: j_x
Encoding: 1114191 -1 176
Width: 602
Flags: MW
HStem: -250 89<-135.5 -117.5 -139 -72> 0 91<416.5 545> 419 105<503.5 562.5> 555 159<127 171>
VStem: -223 55<-135 -104.5 -135 -102> 70 159<612 656> 475 124<401 492> 539 60
LayerCount: 3
Fore
SplineSet
247 500 m 1xfe
 392 500 l 1
 442 265 l 1
 490 309 537 372 539 421 c 1xfd
 532 420 526 419 520 419 c 0
 487 419 475 441 475 475 c 0
 475 509 506 524 543 524 c 0
 582 524 599 479 599 434 c 0
 599 368 507 267 453 213 c 1
 466 155 l 2
 475 114 480 91 525 91 c 0
 565 91 617 147 657 179 c 1
 691 179 l 1
 645 133 532 0 454 0 c 0
 379 0 356 17 333 104 c 1
 288 58 192 34 96 11 c 1
 77 -80 l 2
 47 -223 -39 -250 -105 -250 c 0
 -166 -250 -223 -207 -223 -142 c 0
 -223 -62 -148 -27 -51 2 c 1
 54 500 l 1
 199 500 l 1
 103 46 l 1
 186 72 266 105 320 165 c 1
 247 500 l 1xfe
70 634 m 0
 70 678 105 714 149 714 c 0
 193 714 229 678 229 634 c 0
 229 590 193 555 149 555 c 0
 105 555 70 590 70 634 c 0
-168 -128 m 0
 -168 -142 -150 -161 -128 -161 c 0
 -107 -161 -82 -142 -69 -83 c 2
 -57 -29 l 1
 -122 -52 -168 -81 -168 -128 c 0
EndSplineSet
Ligature2: "'liga' Standard Ligatures in Latin lookup 4 subtable" j x
EndChar

StartChar: j_z
Encoding: 1114192 -1 177
Width: 631
Flags: MW
HStem: -250 89<-118.5 -100.5 -122 -55> 0 40<416 443.5 416 459> 0 151<190 543> 349 151<71 295> 460 40<364.5 391.5> 555 159<144 188>
VStem: -206 55<-135 -101 -135 -95.5> 87 159<612 656> 232 110<391 417.5 385.5 432.5> 465 111<81.5 109 67.5 113.5>
LayerCount: 3
Fore
SplineSet
-32 8 m 1xd6c0
 71 500 l 1
 216 500 l 1
 94 -80 l 2
 64 -223 -22 -250 -88 -250 c 0
 -149 -250 -206 -207 -206 -142 c 0
 -206 -49 -128 -20 -32 8 c 1xd6c0
483 62 m 1
 474 62 465 73 465 90 c 0
 465 137 497 151 529 151 c 0xb740
 557 151 576 125 576 93 c 0
 576 42 539 0 459 0 c 2
 190 0 l 1
 453 458 l 1
 430 459 403 460 380 460 c 0xcf40
 349 460 325 456 325 438 c 1
 334 438 342 426 342 409 c 0
 342 362 311 349 279 349 c 0
 251 349 232 375 232 407 c 0
 232 458 269 500 349 500 c 2
 618 500 l 1
 355 42 l 1
 378 41 404 40 428 40 c 0
 459 40 483 44 483 62 c 1
87 634 m 0
 87 678 122 714 166 714 c 0
 210 714 246 678 246 634 c 0
 246 590 210 555 166 555 c 0
 122 555 87 590 87 634 c 0
-151 -128 m 0
 -151 -142 -133 -161 -111 -161 c 0
 -90 -161 -65 -142 -52 -83 c 2
 -39 -24 l 1
 -103 -45 -151 -74 -151 -128 c 0
EndSplineSet
Ligature2: "'liga' Standard Ligatures in Latin lookup 4 subtable" j z
EndChar

StartChar: k
Encoding: 107 107 178
Width: 489
Flags: MW
HStem: 0 91<335.5 465> 291 75<211.5 328> 680 20G
VStem: 249 146<70.5 133> 270 147<238 250>
LayerCount: 3
Fore
SplineSet
370 500 m 2xe8
 478 500 l 1
 275 363 l 2
 284 365 292 366 301 366 c 0
 355 366 417 308 417 242 c 0xe8
 417 234 416 225 414 217 c 2
 400 160 l 2
 397 149 395 138 395 128 c 0
 395 106 406 91 445 91 c 0
 485 91 520 147 560 179 c 1
 594 179 l 1
 548 133 452 0 374 0 c 0
 297 0 249 34 249 107 c 0xf0
 249 123 251 141 256 160 c 2
 267 206 l 2
 269 215 270 224 270 232 c 0
 270 268 251 291 224 291 c 0
 199 291 181 283 160 269 c 1
 103 0 l 1
 -41 0 l 1
 104 680 l 1
 252 700 l 1
 177 350 l 1
 252 410 370 501 370 500 c 2xe8
EndSplineSet
Substitution2: "Single Substitution lookup 8 subtable" k.fina
Substitution2: "'salt' Stylistic Alternatives in Latin lookup 6 subtable" k.salt
AlternateSubs2: "'aalt' Access All Alternates in Latin lookup 1 subtable" k.fina k.salt
EndChar

StartChar: k.fina
Encoding: 1114193 -1 179
Width: 485
Flags: MW
HStem: 0 21G<-41 103 -41 -41 316.5 369> 292 75<211 327.5> 680 20G
VStem: 250 142<109.5 118> 268 148<237.5 246>
LayerCount: 3
Fore
SplineSet
368 500 m 2xe8
 476 500 l 1
 277 365 l 2
 285 366 292 367 300 367 c 0
 355 367 416 307 416 241 c 0xe8
 416 234 415 226 413 218 c 2
 400 160 l 2
 397 146 392 131 392 118 c 0
 392 101 400 89 430 89 c 0
 437 89 448 89 456 92 c 1
 428 6 386 0 352 0 c 0
 281 0 250 47 250 110 c 0xf0
 250 126 252 143 256 160 c 2
 266 207 l 2
 267 214 268 222 268 230 c 0
 268 262 254 292 223 292 c 0
 199 292 181 285 161 271 c 1
 103 0 l 1
 -41 0 l 1
 104 680 l 1
 252 700 l 1
 178 351 l 1
 252 410 368 501 368 500 c 2xe8
EndSplineSet
EndChar

StartChar: k.salt
Encoding: 1114194 -1 180
Width: 489
Flags: MW
HStem: 0 91<335.5 465> 291 75<211.5 328> 396 110<382 398> 409 97<325 424> 680 20G
VStem: 249 146<70.5 133> 270 147<238 250>
LayerCount: 3
Fore
SplineSet
368 401 m 0xea
 359 407 350 409 340 409 c 0
 310 409 275 385 221 343 c 1
 247 357 275 366 301 366 c 0
 355 366 417 308 417 242 c 0xda
 417 234 416 225 414 217 c 2
 400 160 l 2
 397 149 395 138 395 128 c 0
 395 106 406 91 445 91 c 0
 485 91 520 147 560 179 c 1
 594 179 l 1
 548 133 452 0 374 0 c 0
 297 0 249 34 249 107 c 0xec
 249 123 251 141 256 160 c 2
 267 206 l 2
 269 215 270 224 270 232 c 0
 270 268 251 291 224 291 c 0
 199 291 181 283 160 269 c 1
 103 0 l 1
 -41 0 l 1
 104 680 l 1
 252 700 l 1
 180 361 l 1
 341 490 354 506 410 506 c 0
 438 506 449 471 449 456 c 0
 449 424 412 396 384 396 c 0
 378 396 373 398 368 401 c 0xea
EndSplineSet
EndChar

StartChar: l
Encoding: 108 108 181
Width: 286
Flags: MW
HStem: 0 91<79.5 209> 680 20G
VStem: -6 145<71.5 132>
LayerCount: 3
Fore
SplineSet
111 680 m 1
 259 700 l 1
 144 160 l 2
 141 145 139 136 139 128 c 0
 139 106 150 91 189 91 c 0
 229 91 281 147 321 179 c 1
 355 179 l 1
 309 133 196 0 118 0 c 0
 41 0 -6 34 -6 109 c 0
 -6 124 -4 141 0 160 c 2
 111 680 l 1
EndSplineSet
Substitution2: "Single Substitution lookup 8 subtable" l.fina
Substitution2: "'aalt' Access All Alternates in Latin lookup 0 subtable" l.fina
EndChar

StartChar: l.fina
Encoding: 1114195 -1 182
Width: 276
Flags: MW
HStem: 0 21G<61.5 114> 680 20G
VStem: -5 144<115.5 118>
LayerCount: 3
Fore
SplineSet
259 700 m 1
 144 160 l 2
 141 148 139 137 139 126 c 0
 139 105 147 89 175 89 c 0
 182 89 193 89 201 92 c 1
 173 6 131 0 97 0 c 0
 26 0 -5 47 -5 110 c 0
 -5 126 -3 143 1 160 c 2
 111 680 l 1
 259 700 l 1
EndSplineSet
EndChar

StartChar: l_x
Encoding: 1114196 -1 183
Width: 651
Flags: MW
HStem: 0 91<79.5 206.5> 430 105<526 583.5> 680 20G
VStem: -6 145<71.5 133> 496 124<470.5 471.5 418 503> 560 60
LayerCount: 3
Fore
SplineSet
111 680 m 1xf8
 259 700 l 1
 144 160 l 2
 141 149 139 138 139 128 c 0
 139 106 150 91 189 91 c 0
 224 91 298 138 351 176 c 1
 281 500 l 1
 426 500 l 1
 472 284 l 1
 516 328 558 386 560 432 c 1xf4
 554 431 548 430 543 430 c 0
 509 430 496 455 496 486 c 0
 496 520 527 535 564 535 c 0
 603 535 620 494 620 449 c 0
 620 387 538 290 483 233 c 1
 500 155 l 2
 509 114 514 91 559 91 c 0
 599 91 651 147 691 179 c 1
 725 179 l 1
 679 133 566 0 488 0 c 0
 407 0 387 20 362 125 c 1
 290 69 185 0 118 0 c 0
 41 0 -6 34 -6 109 c 0
 -6 124 -4 141 0 160 c 2
 111 680 l 1xf8
EndSplineSet
Ligature2: "'liga' Standard Ligatures in Latin lookup 4 subtable" l x
EndChar

StartChar: l_z
Encoding: 1114197 -1 184
Width: 628
Flags: MW
HStem: 0 40<433 460.5 433 476> 0 151<207 560> 349 151<282 635> 460 40<381.5 408.5> 680 20G
VStem: -5 144<115.5 118> 249 110<391 417.5 385.5 432.5> 482 111<81.5 109 67.5 113.5>
LayerCount: 3
Fore
SplineSet
259 700 m 1xaf
 144 160 l 2
 141 148 139 137 139 126 c 0
 139 105 147 89 175 89 c 0
 182 89 193 89 201 92 c 1
 173 6 131 0 97 0 c 0
 26 0 -5 47 -5 110 c 0
 -5 126 -3 143 1 160 c 2
 111 680 l 1
 259 700 l 1xaf
500 62 m 1
 491 62 482 73 482 90 c 0
 482 137 514 151 546 151 c 0x6f
 574 151 593 125 593 93 c 0
 593 42 556 0 476 0 c 2
 207 0 l 1
 470 458 l 1
 447 459 420 460 397 460 c 0x9f
 366 460 342 456 342 438 c 1
 351 438 359 426 359 409 c 0
 359 362 328 349 296 349 c 0
 268 349 249 375 249 407 c 0
 249 458 286 500 366 500 c 2
 635 500 l 1
 372 42 l 1
 395 41 421 40 445 40 c 0
 476 40 500 44 500 62 c 1
EndSplineSet
Ligature2: "'liga' Standard Ligatures in Latin lookup 4 subtable" l z
EndChar

StartChar: m
Encoding: 109 109 185
Width: 744
Flags: MW
HStem: 0 82<577 698> 425 75<63 261.5>
VStem: 492 145<111.5 117> 539 146<370 384>
LayerCount: 3
Fore
SplineSet
683 351 m 2xd0
 642 160 l 2
 639 148 637 135 637 123 c 0
 637 100 646 82 678 82 c 0
 718 82 760 141 783 184 c 1
 830 184 l 1
 784 130 694 0 616 0 c 0
 538 0 492 34 492 109 c 0xe0
 492 125 494 141 498 160 c 2
 536 340 l 2
 538 349 539 358 539 366 c 0
 539 402 520 425 493 425 c 0
 471 425 454 419 435 407 c 1
 438 395 440 384 440 372 c 0
 440 365 439 358 438 351 c 2
 364 0 l 1
 219 0 l 1
 291 340 l 2
 293 349 294 358 294 366 c 0
 294 402 275 425 248 425 c 0
 224 425 207 418 187 404 c 1
 101 0 l 1
 -43 0 l 1
 63 500 l 1
 207 500 l 1
 196 447 l 1
 236 476 282 500 325 500 c 0
 362 500 402 473 424 434 c 1
 468 469 521 500 570 500 c 0
 625 500 685 442 685 374 c 0
 685 366 684 359 683 351 c 2xd0
EndSplineSet
Substitution2: "Single Substitution lookup 8 subtable" m.fina
Substitution2: "'aalt' Access All Alternates in Latin lookup 0 subtable" m.fina
EndChar

StartChar: m.fina
Encoding: 1114198 -1 186
Width: 704
Flags: MW
HStem: 0 21G<-43 101 -43 -43 219 364 219 219 559.5 609> 425 75<63 261.5>
VStem: 490 143<111.5 117> 537 146<370 384>
LayerCount: 3
Fore
SplineSet
696 92 m 1xe0
 668 6 626 0 592 0 c 0
 527 0 490 34 490 109 c 0xe0
 490 125 492 141 496 160 c 2
 534 340 l 2
 536 349 537 358 537 366 c 0
 537 402 518 425 491 425 c 0
 469 425 453 419 435 408 c 1
 438 396 440 384 440 372 c 0
 440 365 439 358 438 351 c 2
 364 0 l 1
 219 0 l 1
 291 340 l 2
 293 349 294 358 294 366 c 0
 294 402 275 425 248 425 c 0
 224 425 207 418 187 404 c 1
 101 0 l 1
 -43 0 l 1
 63 500 l 1
 207 500 l 1
 196 447 l 1
 236 476 282 500 325 500 c 0
 362 500 401 474 423 436 c 1
 468 470 519 500 568 500 c 0
 623 500 683 442 683 374 c 0xd0
 683 366 682 359 681 351 c 0
 676 318 633 142 633 120 c 0
 633 103 641 89 670 89 c 0
 677 89 688 89 696 92 c 1xe0
EndSplineSet
EndChar

StartChar: m_x
Encoding: 1114199 -1 187
Width: 1109
Flags: MW
HStem: 0 91<904.5 1034> 425 75<63 261.5> 425 99
VStem: 492 145<111.5 117> 539 146<371 384> 982 124<398 492> 1046 60
LayerCount: 3
Fore
SplineSet
683 351 m 2xcc
 642 160 l 2
 639 148 637 135 637 123 c 0
 637 100 646 82 678 82 c 0
 703 82 761 119 810 158 c 1
 736 500 l 1
 881 500 l 1
 934 251 l 1
 987 296 1044 367 1046 421 c 1xd2
 1040 420 1034 419 1029 419 c 0
 995 419 982 444 982 475 c 0
 982 509 1013 524 1050 524 c 0
 1089 524 1106 479 1106 434 c 0
 1106 362 996 248 946 198 c 1
 955 155 l 2
 963 114 968 91 1014 91 c 0
 1054 91 1106 147 1146 179 c 1
 1180 179 l 1
 1134 133 1021 0 943 0 c 0
 866 0 844 18 821 111 c 1
 753 56 666 0 616 0 c 0
 538 0 492 34 492 109 c 0xb4
 492 125 494 141 498 160 c 2
 536 340 l 2
 538 349 539 358 539 366 c 0
 539 402 520 425 493 425 c 0
 471 425 454 419 435 407 c 1
 438 395 440 384 440 372 c 0
 440 365 439 358 438 351 c 2
 364 0 l 1
 219 0 l 1
 291 340 l 2
 293 349 294 358 294 366 c 0
 294 402 275 425 248 425 c 0
 224 425 207 418 187 404 c 1
 101 0 l 1
 -43 0 l 1
 63 500 l 1
 207 500 l 1
 196 447 l 1
 236 476 282 500 325 500 c 0
 362 500 402 473 424 434 c 1
 468 469 521 500 570 500 c 0
 624 500 685 442 685 375 c 0
 685 367 685 359 683 351 c 2xcc
EndSplineSet
Ligature2: "'liga' Standard Ligatures in Latin lookup 4 subtable" m x
EndChar

StartChar: m_z
Encoding: 1114200 -1 188
Width: 1134
Flags: MW
HStem: 0 40<923 950.5 923 966> 0 151<697 1050> 349 151 425 75<63 261.5> 460 40<871.5 898.5>
VStem: 490 143<111.5 117> 537 146<370 384> 739 110<391 417.5 385.5 432.5> 972 111<81.5 109 67.5 113.5>
LayerCount: 3
Fore
SplineSet
696 92 m 1xa580
 668 6 626 0 592 0 c 0
 527 0 490 34 490 109 c 0xa580
 490 125 492 141 496 160 c 2
 534 340 l 2
 536 349 537 358 537 366 c 0
 537 402 518 425 491 425 c 0
 469 425 453 419 435 408 c 1
 438 396 440 384 440 372 c 0
 440 365 439 358 438 351 c 2
 364 0 l 1
 219 0 l 1
 291 340 l 2
 293 349 294 358 294 366 c 0
 294 402 275 425 248 425 c 0x9380
 224 425 207 418 187 404 c 1
 101 0 l 1
 -43 0 l 1
 63 500 l 1
 207 500 l 1
 196 447 l 1
 236 476 282 500 325 500 c 0
 362 500 401 474 423 436 c 1
 468 470 519 500 568 500 c 0
 623 500 683 442 683 374 c 0xa380
 683 366 682 359 681 351 c 0
 676 318 633 142 633 120 c 0
 633 103 641 89 670 89 c 0
 677 89 688 89 696 92 c 1xa580
990 62 m 1
 981 62 972 73 972 90 c 0
 972 137 1004 151 1036 151 c 0x6580
 1064 151 1083 125 1083 93 c 0
 1083 42 1046 0 966 0 c 2
 697 0 l 1
 960 458 l 1
 937 459 910 460 887 460 c 0x8d80
 856 460 832 456 832 438 c 1
 841 438 849 426 849 409 c 0
 849 362 818 349 786 349 c 0
 758 349 739 375 739 407 c 0
 739 458 776 500 856 500 c 2
 1125 500 l 1
 862 42 l 1
 885 41 911 40 935 40 c 0
 966 40 990 44 990 62 c 1
EndSplineSet
Ligature2: "'liga' Standard Ligatures in Latin lookup 4 subtable" m z
EndChar

StartChar: n
Encoding: 110 110 189
Width: 503
Flags: MW
HStem: 0 91<340 470> 425 75<70 269.5>
VStem: 255 145<71.5 133> 302 146<371 384>
LayerCount: 3
Fore
SplineSet
446 351 m 2xd0
 405 160 l 2
 402 149 400 138 400 128 c 0
 400 106 411 91 450 91 c 0
 490 91 505 122 545 154 c 1
 579 154 l 1
 533 108 457 0 379 0 c 0
 301 0 255 34 255 109 c 0xe0
 255 125 257 141 261 160 c 2
 299 340 l 2
 301 349 302 358 302 366 c 0
 302 402 283 425 256 425 c 0
 232 425 214 418 193 404 c 1
 108 0 l 1
 -36 0 l 1
 70 500 l 1
 214 500 l 1
 202 446 l 1
 243 476 289 500 333 500 c 0
 387 500 448 442 448 375 c 0
 448 367 448 359 446 351 c 2xd0
EndSplineSet
Substitution2: "Single Substitution lookup 8 subtable" n.fina
Substitution2: "'aalt' Access All Alternates in Latin lookup 0 subtable" n.fina
EndChar

StartChar: n.fina
Encoding: 1114201 -1 190
Width: 484
Flags: MW
HStem: 0 21G<-36 108 -36 -36 324.5 374> 425 75<70 269.5>
VStem: 255 143<111.5 117> 302 146<370 384>
LayerCount: 3
Fore
SplineSet
461 92 m 1xe0
 433 6 391 0 357 0 c 0
 292 0 255 34 255 109 c 0xe0
 255 125 257 141 261 160 c 2
 299 340 l 2
 301 349 302 358 302 366 c 0
 302 402 283 425 256 425 c 0
 232 425 214 418 193 404 c 1
 108 0 l 1
 -36 0 l 1
 70 500 l 1
 214 500 l 1
 202 446 l 1
 243 476 289 500 333 500 c 0
 388 500 448 442 448 374 c 0xd0
 448 366 447 359 446 351 c 0
 441 318 398 142 398 120 c 0
 398 103 406 89 435 89 c 0
 442 89 453 89 461 92 c 1xe0
EndSplineSet
EndChar

StartChar: n_z
Encoding: 1114202 -1 191
Width: 872
Flags: MW
HStem: 0 40<673 700.5 673 716> 0 151<447 800> 349 151 425 75<70 269.5> 460 40<621.5 648.5>
VStem: 255 143<111.5 117> 302 146<370 384> 489 110<391 417.5 385.5 432.5> 722 111<81.5 109 67.5 113.5>
LayerCount: 3
Fore
SplineSet
461 92 m 1xa580
 433 6 391 0 357 0 c 0
 292 0 255 34 255 109 c 0xa580
 255 125 257 141 261 160 c 2
 299 340 l 2
 301 349 302 358 302 366 c 0
 302 402 283 425 256 425 c 0x9380
 232 425 214 418 193 404 c 1
 108 0 l 1
 -36 0 l 1
 70 500 l 1
 214 500 l 1
 202 446 l 1
 243 476 289 500 333 500 c 0
 388 500 448 442 448 374 c 0xa380
 448 366 447 359 446 351 c 0
 441 318 398 142 398 120 c 0
 398 103 406 89 435 89 c 0
 442 89 453 89 461 92 c 1xa580
740 62 m 1
 731 62 722 73 722 90 c 0
 722 137 754 151 786 151 c 0x6580
 814 151 833 125 833 93 c 0
 833 42 796 0 716 0 c 2
 447 0 l 1
 710 458 l 1
 687 459 660 460 637 460 c 0x8d80
 606 460 582 456 582 438 c 1
 591 438 599 426 599 409 c 0
 599 362 568 349 536 349 c 0
 508 349 489 375 489 407 c 0
 489 458 526 500 606 500 c 2
 875 500 l 1
 612 42 l 1
 635 41 661 40 685 40 c 0
 716 40 740 44 740 62 c 1
EndSplineSet
Ligature2: "'liga' Standard Ligatures in Latin lookup 4 subtable" n z
EndChar

StartChar: ntilde
Encoding: 241 241 192
Width: 503
Flags: MW
HStem: 0 91<340 470> 425 75<70 269.5> 569 78<292 429.5> 606 74<144 288.5>
VStem: 255 145<71.5 133> 302 146<371 384>
LayerCount: 3
Fore
SplineSet
446 351 m 2xe4
 405 160 l 2
 402 149 400 138 400 128 c 0
 400 106 411 91 450 91 c 0
 490 91 505 122 545 154 c 1
 579 154 l 1
 533 108 457 0 379 0 c 0
 301 0 255 34 255 109 c 0xe8
 255 125 257 141 261 160 c 2
 299 340 l 2
 301 349 302 358 302 366 c 0
 302 402 283 425 256 425 c 0
 232 425 214 418 193 404 c 1
 108 0 l 1
 -36 0 l 1
 70 500 l 1
 214 500 l 1
 202 446 l 1
 243 476 289 500 333 500 c 0
 387 500 448 442 448 375 c 0
 448 367 448 359 446 351 c 2xe4
480 670 m 1
 486 669 l 1
 475 622 401 569 325 569 c 0xe8
 259 569 212 606 157 606 c 0
 131 606 109 597 91 580 c 1
 85 582 l 1
 117 646 176 680 252 680 c 0xd8
 325 680 359 647 417 647 c 0
 442 647 466 655 480 670 c 1
EndSplineSet
EndChar

StartChar: o
Encoding: 111 111 193
Width: 418
Flags: MW
HStem: -6 97<173.5 196> 284 226<285.5 300> 451 59<213 274>
VStem: -7 133<137 207 137 281> 258 119
LayerCount: 3
Fore
SplineSet
256 510 m 0xb8
 351 510 375 436 377 363 c 1
 383 357 392 354 406 354 c 0
 453 354 474 388 511 403 c 1
 515 382 l 1
 484 343 432 310 374 294 c 1
 355 93 246 -6 146 -6 c 0
 39 -6 -7 39 -7 158 c 0
 -7 404 118 510 256 510 c 0xb8
193 91 m 0
 254 91 288 187 300 284 c 1xd8
 271 284 258 305 258 329 c 0
 258 358 275 389 302 399 c 1
 299 432 288 451 260 451 c 0
 166 451 126 247 126 167 c 0
 126 107 154 91 193 91 c 0
EndSplineSet
Substitution2: "Single Substitution lookup 8 subtable" o.fina
Substitution2: "'aalt' Access All Alternates in Latin lookup 0 subtable" o.fina
EndChar

StartChar: o.fina
Encoding: 1114203 -1 194
Width: 430
Flags: MW
HStem: -7 98<176 197> 451 59<211 271.5>
VStem: -7 133<137 207 137 280> 272 78 272 101<321.5 391.5>
LayerCount: 3
Fore
SplineSet
372 372 m 1xe8
 398 388 407 406 430 431 c 1
 440 411 l 1
 430 376 413 329 373 305 c 1xe8
 362 98 244 -7 150 -7 c 0
 43 -7 -7 39 -7 158 c 0
 -7 402 119 510 256 510 c 0
 304 510 350 491 350 465 c 0xf0
 350 436 326 424 305 417 c 1
 297 438 283 451 260 451 c 0
 162 451 126 247 126 167 c 0
 126 107 156 91 196 91 c 0
 255 91 290 199 300 291 c 1
 280 295 272 311 272 332 c 0
 272 367 307 408 339 408 c 0
 358 408 373 402 373 381 c 0
 373 378 373 375 372 372 c 1xe8
EndSplineSet
EndChar

StartChar: o_s
Encoding: 1114204 -1 195
Width: 763
Flags: MW
HStem: -20 20G<467.5 567.5> -6 80 -6 97<173.5 195> 113 130<468 489.5> 113 248<392 489.5> 284 226<285.5 300> 451 59<213 274> 504 20G<656 656>
VStem: -7 133<137 207 137 281> 258 119 385 44<105 122 105 169> 385 157<159 169> 555 101 590 132<173.5 208.5>
LayerCount: 3
Fore
SplineSet
256 510 m 0x54e8
 350 510 375 437 377 365 c 1
 382 362 388 361 396 361 c 0
 477 361 511 449 547 502 c 1
 656 524 l 1x49e8
 656 343 722 296 722 176 c 0
 722 171 722 166 721 162 c 1
 745 184 767 206 777 218 c 1
 803 184 l 1
 778 164 742 133 706 102 c 1
 678 43 616 0 519 0 c 0
 416 0 385 59 385 136 c 0
 385 202 441 243 495 243 c 0
 530 243 542 215 542 172 c 0x91d4
 542 146 505 113 474 113 c 0
 458 113 442 120 432 138 c 1
 430 131 429 125 429 119 c 0
 429 91 452 74 505 74 c 0
 562 74 590 97 590 179 c 0x54e4
 590 238 557 298 555 418 c 1
 477 336 459 298 373 281 c 1
 351 88 244 -6 146 -6 c 0
 39 -6 -7 39 -7 158 c 0
 -7 404 118 510 256 510 c 0x54e8
193 91 m 0
 254 91 288 187 300 284 c 1x34e8
 271 284 258 305 258 329 c 0
 258 358 275 389 302 399 c 1
 299 432 288 451 260 451 c 0
 166 451 126 247 126 167 c 0
 126 107 154 91 193 91 c 0
EndSplineSet
Substitution2: "Single Substitution lookup 8 subtable" o_s.fina
Ligature2: "'liga' Standard Ligatures in Latin lookup 4 subtable" o s
Substitution2: "'aalt' Access All Alternates in Latin lookup 0 subtable" o_s.fina
EndChar

StartChar: o_s.fina
Encoding: 1114205 -1 196
Width: 734
Flags: MW
HStem: -20 20G<467.5 586.5> -6 70 -6 97<173.5 195> 113 130<468 489.5> 113 248<392 489.5> 284 226<285.5 300> 451 59<213 274> 504 20G<656 656>
VStem: -7 133<137 207 137 281> 258 119 385 43<102 120.5 102 169> 385 157<159 169> 555 101 590 132<138 208.5>
LayerCount: 3
Fore
SplineSet
256 510 m 0x54e8
 350 510 375 437 377 365 c 1
 382 362 388 361 396 361 c 0
 477 361 511 449 547 502 c 1
 656 524 l 1x49e8
 656 343 722 296 722 176 c 0
 722 83 654 0 519 0 c 0
 416 0 385 59 385 136 c 0
 385 202 441 243 495 243 c 0
 530 243 542 215 542 172 c 0x91d4
 542 146 505 113 474 113 c 0
 458 113 442 120 432 138 c 1
 430 131 428 124 428 117 c 0
 428 87 451 64 503 64 c 0
 560 64 590 97 590 179 c 0x54e4
 590 238 557 298 555 418 c 1
 477 336 459 298 373 281 c 1
 351 88 244 -6 146 -6 c 0
 39 -6 -7 39 -7 158 c 0
 -7 404 118 510 256 510 c 0x54e8
193 91 m 0
 254 91 288 187 300 284 c 1x34e8
 271 284 258 305 258 329 c 0
 258 358 275 389 302 399 c 1
 299 432 288 451 260 451 c 0
 166 451 126 247 126 167 c 0
 126 107 154 91 193 91 c 0
EndSplineSet
EndChar

StartChar: o_s_x
Encoding: 1114206 -1 197
Width: 1094
Flags: MW
HStem: -20 20G<467.5 592 919 1002> -6 65 -6 97<173.5 195> 113 130<468 489.5> 113 248<392 489.5> 284 226<285.5 300> 451 59<213 274> 451 96
VStem: -7 133<137 207 137 281> 258 119 385 43<100.5 119.5 100.5 169> 385 157<159 169> 555 101 590 132<169.5 208.5> 974 124<424.5 515> 1038 60
LayerCount: 3
Fore
SplineSet
256 510 m 0x54ea
 350 510 375 437 377 365 c 1
 382 362 388 361 396 361 c 0
 477 361 511 449 547 502 c 1
 656 524 l 1x4aea
 656 343 722 296 722 176 c 0
 722 163 721 149 718 137 c 1
 751 162 788 192 810 213 c 1
 740 500 l 1
 885 500 l 1
 936 295 l 1
 986 337 1036 395 1038 444 c 1x54e5
 1031 443 1026 442 1020 442 c 0
 987 442 974 468 974 498 c 0
 974 532 1005 547 1042 547 c 0
 1081 547 1098 502 1098 457 c 0
 1098 392 1004 298 949 246 c 1
 972 155 l 2
 982 114 989 91 1034 91 c 0x31ea
 1074 91 1126 147 1166 179 c 1
 1200 179 l 1
 1154 133 1041 0 963 0 c 0
 875 0 850 24 825 155 c 1
 821 171 l 1
 713 109 665 0 519 0 c 0
 416 0 385 59 385 136 c 0
 385 202 441 243 495 243 c 0
 530 243 542 215 542 172 c 0x94da
 542 146 505 113 474 113 c 0
 458 113 442 120 432 138 c 1
 430 131 428 123 428 116 c 0
 428 85 451 59 503 59 c 0
 560 59 590 97 590 179 c 0x54e6
 590 238 557 298 555 418 c 1
 477 336 459 298 373 281 c 1
 351 88 244 -6 146 -6 c 0
 39 -6 -7 39 -7 158 c 0
 -7 404 118 510 256 510 c 0x54ea
193 91 m 0
 254 91 288 187 300 284 c 1x34ea
 271 284 258 305 258 329 c 0
 258 358 275 389 302 399 c 1
 299 432 288 451 260 451 c 0
 166 451 126 247 126 167 c 0
 126 107 154 91 193 91 c 0
EndSplineSet
Ligature2: "'liga' Standard Ligatures in Latin lookup 4 subtable" o s x
EndChar

StartChar: o_s_z
Encoding: 1114207 -1 198
Width: 1141
Flags: MW
HStem: -20 20G<467.5 586.5 706 706 706 975> -6 46 -6 68 -6 97<173.5 195> -6 157 113 130<468 489.5> 113 248<392 489.5> 284 226<285.5 300> 349 161 451 59<213 274> 504 20G<656 656>
VStem: -7 133<137 207 137 281> 258 119 385 44<102 120.5 102 169> 385 157<159 169> 555 101 590 132<138 208.5> 748 110<391 417.5 385.5 432.5> 981 111<81.5 109 67.5 113.5>
LayerCount: 3
Fore
SplineSet
256 510 m 0x251d60
 350 510 375 437 377 365 c 1
 382 362 388 361 396 361 c 0
 477 361 511 449 547 502 c 1
 656 524 l 1x423d60
 656 343 722 296 722 176 c 0
 722 83 654 0 519 0 c 0
 416 0 385 59 385 136 c 0
 385 202 441 243 495 243 c 0
 530 243 542 215 542 172 c 0x843ae0
 542 146 505 113 474 113 c 0
 458 113 442 120 432 138 c 1
 430 131 429 124 429 117 c 0
 429 87 451 62 504 62 c 0
 561 62 590 97 590 179 c 0x251ce0
 590 238 557 298 555 418 c 1
 477 336 459 298 373 281 c 1
 351 88 244 -6 146 -6 c 0
 39 -6 -7 39 -7 158 c 0
 -7 404 118 510 256 510 c 0x251d60
999 62 m 1
 990 62 981 73 981 90 c 0
 981 137 1013 151 1045 151 c 0x091d60
 1073 151 1092 125 1092 93 c 0
 1092 42 1055 0 975 0 c 2
 706 0 l 1x851d60
 969 458 l 1
 946 459 919 460 896 460 c 0
 865 460 841 456 841 438 c 1
 850 438 858 426 858 409 c 0
 858 362 827 349 795 349 c 0
 767 349 748 375 748 407 c 0
 748 458 785 500 865 500 c 2
 1134 500 l 1
 871 42 l 1
 894 41 920 40 944 40 c 0x449d60
 975 40 999 44 999 62 c 1
193 91 m 0x145d60
 254 91 288 187 300 284 c 1x151d60
 271 284 258 305 258 329 c 0
 258 358 275 389 302 399 c 1
 299 432 288 451 260 451 c 0
 166 451 126 247 126 167 c 0
 126 107 154 91 193 91 c 0x145d60
EndSplineSet
Ligature2: "'liga' Standard Ligatures in Latin lookup 4 subtable" o s z
EndChar

StartChar: o_x
Encoding: 1114208 -1 199
Width: 805
Flags: MW
HStem: -65 104<423 426.5> -20 20G<602 685> -6 45 -6 97<173.5 197.5> 283 227<279 293 293 300> 433 105<703.5 760.5> 451 59<213 273.5>
VStem: -7 133<137 207 137 281> 252 123 298 77 344 31 344 122<-15.5 1.5 -29.5 40> 674 124<473.5 475.5 420 506> 738 60
LayerCount: 3
Fore
SplineSet
439 500 m 1x2328
 584 500 l 1
 632 274 l 1
 683 318 736 383 738 435 c 1x1344
 732 434 726 433 721 433 c 0
 686 433 674 458 674 489 c 0
 674 523 706 538 742 538 c 0
 779 538 798 497 798 454 c 0
 798 386 699 261 642 227 c 1
 658 155 l 2
 667 114 672 91 717 91 c 0x1588
 757 91 809 147 849 179 c 1
 883 179 l 1
 837 133 724 0 646 0 c 0x4988
 558 0 542 24 514 155 c 1
 461 125 412 79 412 38 c 1
 417 39 421 39 425 39 c 0
 459 39 466 13 466 -10 c 0
 466 -49 443 -65 410 -65 c 0x8918
 365 -65 344 -37 344 6 c 0
 344 74 432 162 503 206 c 1
 464 386 l 1
 441 358 411 331 375 312 c 1
 362 98 249 -6 146 -6 c 0
 39 -6 -7 39 -7 158 c 0
 -7 404 118 510 256 510 c 0
 346 510 372 444 376 375 c 1
 415 375 436 400 456 423 c 1
 439 500 l 1x2328
193 91 m 0
 253 91 288 186 300 283 c 1
 293 283 l 2
 265 283 252 309 252 338 c 0x1988
 252 367 268 398 298 405 c 1
 297 434 287 451 260 451 c 0
 166 451 126 247 126 167 c 0
 126 107 154 91 193 91 c 0
EndSplineSet
Ligature2: "'liga' Standard Ligatures in Latin lookup 4 subtable" o x
EndChar

StartChar: oacute
Encoding: 243 243 200
Width: 433
Flags: MW
HStem: -6 97<178.5 201> 284 226<290.5 305> 451 59<218 279> 730 20G<307 412 412 412>
VStem: -2 133<137 207 137 281> 263 119
LayerCount: 3
Fore
SplineSet
261 510 m 0xbc
 356 510 380 436 382 363 c 1
 388 357 397 354 411 354 c 0
 458 354 479 388 516 403 c 1
 520 382 l 1
 489 343 437 310 379 294 c 1
 360 93 251 -6 151 -6 c 0
 44 -6 -2 39 -2 158 c 0
 -2 404 123 510 261 510 c 0xbc
198 91 m 0
 259 91 293 187 305 284 c 1xdc
 276 284 263 305 263 329 c 0
 263 358 280 389 307 399 c 1
 304 432 293 451 265 451 c 0
 171 451 131 247 131 167 c 0
 131 107 159 91 198 91 c 0
216 561 m 1
 307 750 l 1
 412 750 l 1
 291 561 l 1
 216 561 l 1
EndSplineSet
Substitution2: "Single Substitution lookup 8 subtable" oacute.fina
Substitution2: "'aalt' Access All Alternates in Latin lookup 0 subtable" oacute.fina
EndChar

StartChar: oacute.fina
Encoding: 1114209 -1 201
Width: 444
Flags: MW
HStem: -7 98<181 202> 451 59<216 276.5> 730 20G<335 440 440 440>
VStem: -2 133<137 207 137 280> 277 78 277 101<321.5 391.5>
LayerCount: 3
Fore
SplineSet
377 372 m 1xf4
 403 388 412 406 435 431 c 1
 445 411 l 1
 435 376 418 329 378 305 c 1xf4
 367 98 249 -7 155 -7 c 0
 48 -7 -2 39 -2 158 c 0
 -2 402 124 510 261 510 c 0
 309 510 355 491 355 465 c 0xf8
 355 436 331 424 310 417 c 1
 302 438 288 451 265 451 c 0
 167 451 131 247 131 167 c 0
 131 107 161 91 201 91 c 0
 260 91 295 199 305 291 c 1
 285 295 277 311 277 332 c 0
 277 367 312 408 344 408 c 0
 363 408 378 402 378 381 c 0
 378 378 378 375 377 372 c 1xf4
244 561 m 1
 335 750 l 1
 440 750 l 1
 319 561 l 1
 244 561 l 1
EndSplineSet
EndChar

StartChar: oacute_s
Encoding: 1114210 -1 202
Width: 769
Flags: MW
HStem: -20 20G<467.5 567.5> -6 69 -6 97<173.5 195> 113 130<468 489.5> 113 248<392 489.5> 284 226<285.5 300> 451 59<213 274> 730 20G<325 430 430 430>
VStem: -7 133<137 207 137 281> 258 119 385 47<115 138 115 169> 385 157<159 169> 555 101 590 132<173.5 208.5>
LayerCount: 3
Fore
SplineSet
256 510 m 0x55e8
 350 510 375 437 377 365 c 1
 382 362 388 361 396 361 c 0
 477 361 511 449 547 502 c 1
 656 524 l 1x4be8
 656 343 722 296 722 176 c 0
 722 171 722 166 721 162 c 1
 745 184 767 206 777 218 c 1
 803 184 l 1
 778 164 742 133 706 102 c 1
 678 43 616 0 519 0 c 0
 416 0 385 59 385 136 c 0
 385 202 441 243 495 243 c 0
 530 243 542 215 542 172 c 0x95d4
 542 146 505 113 474 113 c 0
 458 113 442 120 432 138 c 1
 432 92 442 63 506 63 c 0
 563 63 590 97 590 179 c 0x55e4
 590 238 557 298 555 418 c 1
 477 336 459 298 373 281 c 1
 351 88 244 -6 146 -6 c 0
 39 -6 -7 39 -7 158 c 0
 -7 404 118 510 256 510 c 0x55e8
193 91 m 0
 254 91 288 187 300 284 c 1x35e8
 271 284 258 305 258 329 c 0
 258 358 275 389 302 399 c 1
 299 432 288 451 260 451 c 0
 166 451 126 247 126 167 c 0
 126 107 154 91 193 91 c 0
234 561 m 1
 325 750 l 1
 430 750 l 1
 309 561 l 1
 234 561 l 1
EndSplineSet
Substitution2: "Single Substitution lookup 8 subtable" oacute_s.fina
Ligature2: "'liga' Standard Ligatures in Latin lookup 4 subtable" oacute s
Substitution2: "'aalt' Access All Alternates in Latin lookup 0 subtable" oacute_s.fina
EndChar

StartChar: oacute_s.fina
Encoding: 1114211 -1 203
Width: 736
Flags: MW
HStem: -20 20G<467.5 586.5> -6 66 -6 97<173.5 195> 113 130<468 489.5> 113 248<392 489.5> 284 226<285.5 300> 451 59<213 274> 730 20G<327 432 432 432>
VStem: -7 133<137 207 137 281> 258 119 385 47<118.5 138 118.5 169> 385 157<159 169> 555 101 590 132<138 208.5>
LayerCount: 3
Fore
SplineSet
256 510 m 0x55e8
 350 510 375 437 377 365 c 1
 382 362 388 361 396 361 c 0
 477 361 511 449 547 502 c 1
 656 524 l 1x4be8
 656 343 722 296 722 176 c 0
 722 83 654 0 519 0 c 0
 416 0 385 59 385 136 c 0
 385 202 441 243 495 243 c 0
 530 243 542 215 542 172 c 0x95d4
 542 146 505 113 474 113 c 0
 458 113 442 120 432 138 c 1
 432 99 441 60 505 60 c 0
 562 60 590 97 590 179 c 0x55e4
 590 238 557 298 555 418 c 1
 477 336 459 298 373 281 c 1
 351 88 244 -6 146 -6 c 0
 39 -6 -7 39 -7 158 c 0
 -7 404 118 510 256 510 c 0x55e8
193 91 m 0
 254 91 288 187 300 284 c 1x35e8
 271 284 258 305 258 329 c 0
 258 358 275 389 302 399 c 1
 299 432 288 451 260 451 c 0
 166 451 126 247 126 167 c 0
 126 107 154 91 193 91 c 0
236 561 m 1
 327 750 l 1
 432 750 l 1
 311 561 l 1
 236 561 l 1
EndSplineSet
EndChar

StartChar: oacute_s_x
Encoding: 1114212 -1 204
Width: 1094
Flags: MW
HStem: -20 20G<467.5 592 919 1002> -6 65 -6 97<173.5 195> 113 130<468 489.5> 113 248<392 489.5> 284 226<285.5 300> 451 59<213 274> 451 96 730 20G<318 423 423 423>
VStem: -7 133<137 207 137 281> 258 119 385 43<100.5 119.5 100.5 169> 385 157<159 169> 555 101 590 132<169.5 208.5> 974 124<482.5 484.5 429.5 515> 1038 60
LayerCount: 3
Fore
SplineSet
256 510 m 0x54f5
 350 510 375 437 377 365 c 1
 382 362 388 361 396 361 c 0
 477 361 511 449 547 502 c 1
 656 524 l 1x4af5
 656 343 722 296 722 176 c 0
 722 163 721 149 718 137 c 1
 751 162 788 192 810 213 c 1
 740 500 l 1
 885 500 l 1
 939 285 l 1
 987 330 1036 394 1038 444 c 1x54f280
 1032 443 1026 442 1021 442 c 0
 986 442 974 467 974 498 c 0
 974 532 1006 547 1042 547 c 0
 1079 547 1098 506 1098 463 c 0
 1098 396 1007 292 951 235 c 1
 972 155 l 2
 983 114 988 91 1034 91 c 0x31f5
 1074 91 1126 147 1166 179 c 1
 1200 179 l 1
 1154 133 1041 0 963 0 c 0
 875 0 850 24 825 155 c 1
 821 171 l 1
 713 109 665 0 519 0 c 0
 416 0 385 59 385 136 c 0
 385 202 441 243 495 243 c 0
 530 243 542 215 542 172 c 0x94ed
 542 146 505 113 474 113 c 0
 458 113 442 120 432 138 c 1
 429 130 428 123 428 116 c 0
 428 85 451 59 503 59 c 0
 560 59 590 97 590 179 c 0x54f3
 590 238 557 298 555 418 c 1
 477 336 459 298 373 281 c 1
 351 88 244 -6 146 -6 c 0
 39 -6 -7 39 -7 158 c 0
 -7 404 118 510 256 510 c 0x54f5
193 91 m 0
 254 91 288 187 300 284 c 1x34f5
 271 284 258 305 258 329 c 0
 258 358 275 389 302 399 c 1
 299 432 288 451 260 451 c 0
 166 451 126 247 126 167 c 0
 126 107 154 91 193 91 c 0
227 561 m 1
 318 750 l 1
 423 750 l 1
 302 561 l 1
 227 561 l 1
EndSplineSet
Ligature2: "'liga' Standard Ligatures in Latin lookup 4 subtable" oacute s x
EndChar

StartChar: oacute_s_z
Encoding: 1114213 -1 205
Width: 1148
Flags: MW
HStem: -20 20G<467.5 586.5 706 706 706 975> -6 46 -6 69 -6 97<173.5 195> -6 157 115 128<468 488.5> 115 246<392 488.5> 284 226<285.5 300> 349 161 451 59<213 274> 730 20G<327 432 432 432>
VStem: -7 133<137 207 137 281> 258 119 385 43<100 119.5 100 181.5> 385 156<157.5 181.5> 555 101 589 133<130.5 199.5> 748 110<391 417.5 385.5 432.5> 981 111<81.5 109 67.5 113.5>
LayerCount: 3
Fore
SplineSet
256 510 m 0x253d60
 350 510 375 437 377 365 c 1
 382 362 388 361 396 361 c 0
 477 361 511 449 547 502 c 1
 656 524 l 1x427d60
 656 347 722 296 722 176 c 0
 722 83 654 0 519 0 c 0
 416 0 385 57 385 143 c 0
 385 220 441 243 495 243 c 0
 530 243 541 214 541 171 c 0x853ae0
 541 144 505 115 472 115 c 0
 457 115 442 121 432 138 c 1
 430 131 428 123 428 116 c 0
 428 84 452 63 504 63 c 0
 558 63 589 93 589 168 c 0x253ce0
 589 231 557 291 555 418 c 1
 477 336 459 298 373 281 c 1
 351 88 244 -6 146 -6 c 0
 39 -6 -7 39 -7 158 c 0
 -7 404 118 510 256 510 c 0x253d60
999 62 m 1
 990 62 981 73 981 90 c 0
 981 137 1013 151 1045 151 c 0x093d60
 1073 151 1092 125 1092 93 c 0
 1092 42 1055 0 975 0 c 2
 706 0 l 1x853d60
 969 458 l 1
 946 459 919 460 896 460 c 0
 865 460 841 456 841 438 c 1
 850 438 858 426 858 409 c 0
 858 362 827 349 795 349 c 0
 767 349 748 375 748 407 c 0
 748 458 785 500 865 500 c 2
 1134 500 l 1
 871 42 l 1
 894 41 920 40 944 40 c 0
 975 40 999 44 999 62 c 1
193 91 m 0x147d60
 254 91 288 187 300 284 c 1x153d60
 271 284 258 305 258 329 c 0
 258 358 275 389 302 399 c 1
 299 432 288 451 260 451 c 0
 166 451 126 247 126 167 c 0
 126 107 154 91 193 91 c 0x147d60
236 561 m 1
 327 750 l 1
 432 750 l 1
 311 561 l 1
 236 561 l 1
EndSplineSet
Ligature2: "'liga' Standard Ligatures in Latin lookup 4 subtable" oacute s z
EndChar

StartChar: oacute_x
Encoding: 1114214 -1 206
Width: 805
Flags: MW
HStem: -80 104<417 420.5> -20 20G<603 685> -6 30 -6 97<166.5 189> 284 226<278.5 293> 433 105<703.5 760.5> 451 59<206 267> 730 20G<303 408 408 408>
VStem: -14 133<137 207 137 281> 251 119 334 126<-30.5 -13.5 -44.5 26.5> 674 124<473.5 475.5 418.5 506> 738 60
LayerCount: 3
Fore
SplineSet
249 510 m 0x29b0
 344 510 368 436 370 363 c 1
 376 357 385 354 399 354 c 0
 427 354 446 366 465 379 c 1
 439 500 l 1
 584 500 l 1
 633 271 l 1
 683 316 736 383 738 435 c 1x13c8
 732 434 726 433 721 433 c 0
 686 433 674 458 674 489 c 0
 674 523 706 538 742 538 c 0
 779 538 798 497 798 454 c 0
 798 383 698 273 644 219 c 1
 658 155 l 2
 667 114 672 91 717 91 c 0x15d0
 757 91 809 147 849 179 c 1
 883 179 l 1
 837 133 724 0 646 0 c 0x49d0
 560 0 542 23 515 147 c 1
 465 113 416 65 406 23 c 1
 411 24 415 24 419 24 c 0
 453 24 460 -2 460 -25 c 0
 460 -64 437 -80 404 -80 c 0x89b0
 359 -80 334 -52 334 -9 c 0
 334 62 432 148 504 200 c 1
 472 347 l 1
 443 324 406 305 367 294 c 1
 348 93 239 -6 139 -6 c 0
 32 -6 -14 39 -14 158 c 0
 -14 404 111 510 249 510 c 0x29b0
186 91 m 0
 247 91 281 187 293 284 c 1x19d0
 264 284 251 305 251 329 c 0
 251 358 268 389 295 399 c 1
 292 432 281 451 253 451 c 0
 159 451 119 247 119 167 c 0
 119 107 147 91 186 91 c 0
212 561 m 1
 303 750 l 1
 408 750 l 1
 287 561 l 1
 212 561 l 1
EndSplineSet
Ligature2: "'liga' Standard Ligatures in Latin lookup 4 subtable" oacute x
EndChar

StartChar: ocircumflex
Encoding: 244 244 207
Width: 418
Flags: MW
HStem: -6 97<173.5 196> 91 193<173.5 300> 451 59<213 274> 510 51<102 303.5> 730 20G<314 335 335 335>
VStem: -7 133<137 207 137 281> 258 119
LayerCount: 3
Fore
SplineSet
256 510 m 0xae
 351 510 375 436 377 363 c 1
 383 357 392 354 406 354 c 0
 453 354 474 388 511 403 c 1
 515 382 l 1
 484 343 432 310 374 294 c 1
 355 93 246 -6 146 -6 c 0
 39 -6 -7 39 -7 158 c 0
 -7 404 118 510 256 510 c 0xae
193 91 m 0
 254 91 288 187 300 284 c 1x5e
 271 284 258 305 258 329 c 0
 258 358 275 389 302 399 c 1
 299 432 288 451 260 451 c 0
 166 451 126 247 126 167 c 0
 126 107 154 91 193 91 c 0
395 561 m 1
 363 561 l 1
 303 641 l 1
 146 561 l 1
 102 561 l 1
 314 750 l 1
 335 750 l 1
 395 561 l 1
EndSplineSet
EndChar

StartChar: odieresis
Encoding: 246 246 208
Width: 418
Flags: MW
HStem: -6 97<173.5 196> 284 226<285.5 300> 451 59<213 274> 573 122<148 181.5 328 361.5>
VStem: -7 133<137 207 137 281> 104 122<617 650.5> 258 119 284 122<617 650.5>
LayerCount: 3
Fore
SplineSet
256 510 m 0xd9
 351 510 375 436 377 363 c 1xba
 383 357 392 354 406 354 c 0
 453 354 474 388 511 403 c 1
 515 382 l 1
 484 343 432 310 374 294 c 1
 355 93 246 -6 146 -6 c 0
 39 -6 -7 39 -7 158 c 0
 -7 404 118 510 256 510 c 0xd9
193 91 m 0
 254 91 288 187 300 284 c 1xd5
 271 284 258 305 258 329 c 0
 258 358 275 389 302 399 c 1
 299 432 288 451 260 451 c 0
 166 451 126 247 126 167 c 0
 126 107 154 91 193 91 c 0
104 634 m 0
 104 667 131 695 165 695 c 0
 198 695 226 667 226 634 c 0
 226 600 198 573 165 573 c 0
 131 573 104 600 104 634 c 0
284 634 m 0
 284 667 311 695 345 695 c 0
 378 695 406 667 406 634 c 0
 406 600 378 573 345 573 c 0
 311 573 284 600 284 634 c 0
EndSplineSet
EndChar

StartChar: ograve
Encoding: 242 242 209
Width: 418
Flags: MW
HStem: -6 97<173.5 196> 284 226<285.5 300> 451 59<213 274> 561 189<201 201 201 247 142 276>
VStem: -7 133<137 207 137 281> 258 119
LayerCount: 3
Fore
SplineSet
256 510 m 0xbc
 351 510 375 436 377 363 c 1
 383 357 392 354 406 354 c 0
 453 354 474 388 511 403 c 1
 515 382 l 1
 484 343 432 310 374 294 c 1
 355 93 246 -6 146 -6 c 0
 39 -6 -7 39 -7 158 c 0
 -7 404 118 510 256 510 c 0xbc
193 91 m 0
 254 91 288 187 300 284 c 1xdc
 271 284 258 305 258 329 c 0
 258 358 275 389 302 399 c 1
 299 432 288 451 260 451 c 0
 166 451 126 247 126 167 c 0
 126 107 154 91 193 91 c 0
201 561 m 1
 142 750 l 1
 247 750 l 1
 276 561 l 1
 201 561 l 1
EndSplineSet
EndChar

